<svg viewBox="0 0 24 24" fill="none" xmlns="http://www.w3.org/2000/svg" class="Icon__color-dark--1eQap Icon__stroke-none--URYRU" width="24px" height="24px" stroke-width="" stroke-linecap="" stroke-linejoin=""><path d="M13.2793 4.07715V3.57715C13.1359 3.57715 12.9994 3.63871 12.9045 3.7462L13.2793 4.07715ZM12 5.52595L11.6252 5.85689C11.7201 5.96438 11.8566 6.02595 12 6.02595C12.1434 6.02595 12.2799 5.96438 12.3748 5.85689L12 5.52595ZM21.5537 4.07715L22.0526 4.04324C22.0347 3.78086 21.8167 3.57715 21.5537 3.57715V4.07715ZM22.5091 18.1304V18.6304C22.6476 18.6304 22.7799 18.573 22.8744 18.4718C22.969 18.3706 23.0173 18.2347 23.0079 18.0965L22.5091 18.1304ZM13.5355 18.1304V17.6304C13.3962 17.6304 13.2632 17.6885 13.1686 17.7908L13.5355 18.1304ZM12.7339 18.9965L13.1009 19.3362L12.7339 18.9965ZM11.2661 18.9965L11.6331 18.6569L11.2661 18.9965ZM10.4645 18.1304L10.8315 17.7908C10.7368 17.6885 10.6038 17.6304 10.4645 17.6304V18.1304ZM1.49094 18.1304L0.992088 18.0965C0.982694 18.2347 1.03104 18.3706 1.12559 18.4718C1.22014 18.573 1.35244 18.6304 1.49094 18.6304V18.1304ZM2.44631 4.07715V3.57715C2.18333 3.57715 1.9653 3.78086 1.94746 4.04324L2.44631 4.07715ZM10.7207 4.07715L11.0955 3.7462C11.0006 3.63871 10.8641 3.57715 10.7207 3.57715V4.07715ZM12.9045 3.7462L11.6252 5.195L12.3748 5.85689L13.6541 4.4081L12.9045 3.7462ZM21.5537 3.57715H13.2793V4.57715H21.5537V3.57715ZM23.0079 18.0965L22.0526 4.04324L21.0549 4.11106L22.0102 18.1643L23.0079 18.0965ZM13.5355 18.6304H22.5091V17.6304H13.5355V18.6304ZM13.1009 19.3362L13.9025 18.47L13.1686 17.7908L12.367 18.6569L13.1009 19.3362ZM10.8991 19.3362C11.4929 19.9777 12.5072 19.9777 13.1009 19.3362L12.367 18.6569C12.1691 18.8708 11.831 18.8708 11.6331 18.6569L10.8991 19.3362ZM10.0975 18.47L10.8991 19.3362L11.6331 18.6569L10.8315 17.7908L10.0975 18.47ZM1.49094 18.6304H10.4645V17.6304H1.49094V18.6304ZM1.94746 4.04324L0.992088 18.0965L1.98978 18.1643L2.94516 4.11106L1.94746 4.04324ZM10.7207 3.57715H2.44631V4.57715H10.7207V3.57715ZM12.3748 5.195L11.0955 3.7462L10.3459 4.4081L11.6252 5.85689L12.3748 5.195Z" fill="rgb(73, 116, 33)"></path><path d="M12 5.87109V15.7745" stroke="rgb(73, 116, 33)"></path><path d="M12 15.7744C12 15.7744 12.6883 14.5684 14.0146 14.5684C15.3409 14.5684 22.0718 14.5684 22.0718 14.5684" stroke="rgb(73, 116, 33)"></path><path d="M12 15.7744C12 15.7744 11.3117 14.5684 9.98538 14.5684C8.65905 14.5684 1.92822 14.5684 1.92822 14.5684" stroke="rgb(73, 116, 33)"></path></svg>