<svg viewBox="0 0 24 25" xmlns="http://www.w3.org/2000/svg" stroke="white" class="Icon__color-none--1Z4Zw Icon__stroke-white--38xzz" width="24px" height="24px" stroke-width="1px" stroke-linecap="" stroke-linejoin=""><path d="M17.473 0.500122C17.473 0.22398 17.2491 0.00012207 16.973 0.00012207C16.6968 0.00012207 16.473 0.22398 16.473 0.500122H17.473ZM16.973 3.99152H16.473C16.473 4.26766 16.6968 4.49152 16.973 4.49152V3.99152ZM20.5096 4.49152C20.7857 4.49152 21.0096 4.26766 21.0096 3.99152C21.0096 3.71538 20.7857 3.49152 20.5096 3.49152V4.49152ZM17.3723 0.705122L17.7211 0.34697L17.721 0.346796L17.3723 0.705122ZM20.301 3.55812L19.9521 3.91627L19.9521 3.91636L20.301 3.55812ZM17.0001 17.0002C17.2762 17.0002 17.5001 16.7764 17.5001 16.5002C17.5001 16.2241 17.2762 16.0002 17.0001 16.0002V17.0002ZM9.00005 16.0002C8.72391 16.0002 8.50005 16.2241 8.50005 16.5002C8.50005 16.7764 8.72391 17.0002 9.00005 17.0002V16.0002ZM17.0001 14.0002C17.2762 14.0002 17.5001 13.7764 17.5001 13.5002C17.5001 13.2241 17.2762 13.0002 17.0001 13.0002V14.0002ZM9.00005 13.0002C8.72391 13.0002 8.50005 13.2241 8.50005 13.5002C8.50005 13.7764 8.72391 14.0002 9.00005 14.0002V13.0002ZM17.0001 11.0001C17.2762 11.0001 17.5001 10.7763 17.5001 10.5001C17.5001 10.224 17.2762 10.0001 17.0001 10.0001V11.0001ZM9.00005 10.0001C8.72391 10.0001 8.50005 10.224 8.50005 10.5001C8.50005 10.7763 8.72391 11.0001 9.00005 11.0001V10.0001ZM14.0001 8.00012C14.2762 8.00012 14.5001 7.77626 14.5001 7.50012C14.5001 7.22398 14.2762 7.00012 14.0001 7.00012V8.00012ZM9.00005 7.00012C8.72391 7.00012 8.50005 7.22398 8.50005 7.50012C8.50005 7.77626 8.72391 8.00012 9.00005 8.00012V7.00012ZM3.21945 3.98042C3.49559 3.98042 3.71945 3.75656 3.71945 3.48042C3.71945 3.20428 3.49559 2.98042 3.21945 2.98042V3.98042ZM19.0397 22.7992C19.0397 22.5231 18.8158 22.2992 18.5397 22.2992C18.2635 22.2992 18.0397 22.5231 18.0397 22.7992H19.0397ZM16.473 0.500122V3.99152H17.473V0.500122H16.473ZM16.973 4.49152H20.5096V3.49152H16.973V4.49152ZM20.0096 19.8773C20.0096 19.9834 19.9192 20.0755 19.8098 20.0755V21.0755C20.4739 21.0755 21.0096 20.5334 21.0096 19.8773H20.0096ZM19.8098 20.0755H6.17485V21.0755H19.8098V20.0755ZM6.17485 20.0755C6.06932 20.0755 5.97885 19.9866 5.97885 19.8773H4.97885C4.97885 20.5302 5.50838 21.0755 6.17485 21.0755V20.0755ZM5.97885 19.8773V1.20322H4.97885V19.8773H5.97885ZM5.97885 1.20322C5.97885 1.08946 6.07391 1.00012 6.17485 1.00012V0.00012207C5.50379 0.00012207 4.97885 0.55518 4.97885 1.20322H5.97885ZM6.17485 1.00012H16.9729V0.00012207H6.17485V1.00012ZM16.9729 1.00012C16.9829 1.00012 16.9798 1.00113 16.9689 0.998288C16.957 0.995207 16.9466 0.990419 16.9404 0.986786C16.9359 0.98421 16.9394 0.985482 16.9543 0.998316C16.9705 1.01229 16.9902 1.03099 17.0235 1.06345L17.721 0.346796C17.6633 0.29067 17.5668 0.194553 17.4446 0.123208C17.3013 0.0395666 17.1458 0.00012207 16.9729 0.00012207V1.00012ZM17.0234 1.06327L19.9521 3.91627L20.6498 3.19997L17.7211 0.34697L17.0234 1.06327ZM19.9521 3.91636C19.9881 3.95135 20.0096 4.00243 20.0096 4.05242H21.0096C21.0096 3.73342 20.8796 3.4237 20.6498 3.19988L19.9521 3.91636ZM20.0096 4.05242V19.8773H21.0096V4.05242H20.0096ZM17.0001 16.0002H9.00005V17.0002H17.0001V16.0002ZM17.0001 13.0002H9.00005V14.0002H17.0001V13.0002ZM17.0001 10.0001H9.00005V11.0001H17.0001V10.0001ZM14.0001 7.00012H9.00005V8.00012H14.0001V7.00012ZM3.21945 2.98042C2.54247 2.98042 1.99365 3.52852 1.99365 4.20542H2.99365C2.99365 4.08152 3.09404 3.98042 3.21945 3.98042V2.98042ZM1.99365 4.20542V22.7992H2.99365V4.20542H1.99365ZM1.99365 22.7992C1.99365 23.476 2.54193 24.025 3.21945 24.025V23.025C3.09457 23.025 2.99365 22.9241 2.99365 22.7992H1.99365ZM3.21945 24.025H17.8143V23.025H3.21945V24.025ZM17.8143 24.025C18.491 24.025 19.0397 23.476 19.0397 22.7992H18.0397C18.0397 22.9241 17.9383 23.025 17.8143 23.025V24.025Z"></path></svg>