<svg viewBox="0 0 24 24" fill="none" xmlns="http://www.w3.org/2000/svg" class="Icon__color-dark--1eQap Icon__stroke-none--URYRU" width="24px" height="24px" stroke-width="" stroke-linecap="" stroke-linejoin=""><path d="M8.5 16.6C8.22386 16.6 8 16.8238 8 17.1C8 17.3761 8.22386 17.6 8.5 17.6V16.6ZM15.4 17.6C15.6761 17.6 15.9 17.3761 15.9 17.1C15.9 16.8238 15.6761 16.6 15.4 16.6V17.6ZM18 11C18.2761 11 18.5 10.7761 18.5 10.5C18.5 10.2239 18.2761 10 18 10V11ZM7 10C6.72386 10 6.5 10.2239 6.5 10.5C6.5 10.7761 6.72386 11 7 11V10ZM6.5 6.99998C6.77614 6.99998 7 6.77612 7 6.49998C7 6.22383 6.77614 5.99998 6.5 5.99998V6.99998ZM6.36419 17.9C6.64033 17.9 6.86419 17.6761 6.86419 17.4C6.86419 17.1238 6.64033 16.9 6.36419 16.9V17.9ZM17.4706 16.9C17.1945 16.9 16.9706 17.1238 16.9706 17.4C16.9706 17.6761 17.1945 17.9 17.4706 17.9V16.9ZM17.5 5.99998C17.2239 5.99998 17 6.22383 17 6.49998C17 6.77612 17.2239 6.99998 17.5 6.99998V5.99998ZM6.5 14.6V14.1C6.22386 14.1 6 14.3238 6 14.6H6.5ZM17.5 14.6H18C18 14.3238 17.7761 14.1 17.5 14.1V14.6ZM17.5 10.5C17.5 10.7761 17.7239 11 18 11C18.2761 11 18.5 10.7761 18.5 10.5H17.5ZM17.8 6.7L17.411 7.01417C17.4221 7.02791 17.434 7.04106 17.4464 7.05355L17.8 6.7ZM15.7 4.1L16.089 3.78583C16.0779 3.77209 16.066 3.75894 16.0536 3.74645L15.7 4.1ZM6.5 10.5C6.5 10.7761 6.72386 11 7 11C7.27614 11 7.5 10.7761 7.5 10.5H6.5ZM19.4 14C19.1239 14 18.9 14.2238 18.9 14.5C18.9 14.7761 19.1239 15 19.4 15V14ZM19.5 15C19.7761 15 20 14.7761 20 14.5C20 14.2238 19.7761 14 19.5 14V15ZM8.5 17.6H15.4V16.6H8.5V17.6ZM18 10H7V11H18V10ZM6.5 5.99998H3.5V6.99998H6.5V5.99998ZM3.5 5.99998C2.12386 5.99998 1 7.12383 1 8.49998H2C2 7.67612 2.67614 6.99998 3.5 6.99998V5.99998ZM1 8.49998V15.4H2V8.49998H1ZM1 15.4C1 16.7761 2.12386 17.9 3.5 17.9V16.9C2.67614 16.9 2 16.2238 2 15.4H1ZM3.5 17.9C3.50344 17.9 3.50688 17.9 3.51032 17.9C3.51375 17.9 3.51718 17.9 3.5206 17.9C3.52402 17.9 3.52744 17.9 3.53085 17.9C3.53426 17.9 3.53766 17.9 3.54106 17.9C3.54446 17.9 3.54786 17.9 3.55125 17.9C3.55464 17.9 3.55802 17.9 3.5614 17.9C3.56477 17.9 3.56814 17.9 3.57151 17.9C3.57488 17.9 3.57824 17.9 3.58159 17.9C3.58495 17.9 3.5883 17.9 3.59164 17.9C3.59499 17.9 3.59833 17.9 3.60166 17.9C3.60499 17.9 3.60832 17.9 3.61164 17.9C3.61497 17.9 3.61828 17.9 3.62159 17.9C3.62491 17.9 3.62821 17.9 3.63151 17.9C3.63481 17.9 3.63811 17.9 3.6414 17.9C3.64469 17.9 3.64797 17.9 3.65125 17.9C3.65453 17.9 3.6578 17.9 3.66107 17.9C3.66434 17.9 3.6676 17.9 3.67086 17.9C3.67412 17.9 3.67737 17.9 3.68062 17.9C3.68386 17.9 3.6871 17.9 3.69034 17.9C3.69358 17.9 3.69681 17.9 3.70003 17.9C3.70326 17.9 3.70648 17.9 3.70969 17.9C3.71291 17.9 3.71612 17.9 3.71932 17.9C3.72252 17.9 3.72572 17.9 3.72892 17.9C3.73211 17.9 3.7353 17.9 3.73848 17.9C3.74166 17.9 3.74484 17.9 3.74801 17.9C3.75119 17.9 3.75435 17.9 3.75751 17.9C3.76068 17.9 3.76383 17.9 3.76698 17.9C3.77014 17.9 3.77328 17.9 3.77642 17.9C3.77956 17.9 3.7827 17.9 3.78583 17.9C3.78896 17.9 3.79209 17.9 3.79521 17.9C3.79833 17.9 3.80144 17.9 3.80455 17.9C3.80766 17.9 3.81077 17.9 3.81386 17.9C3.81696 17.9 3.82006 17.9 3.82315 17.9C3.82624 17.9 3.82932 17.9 3.8324 17.9C3.83548 17.9 3.83855 17.9 3.84162 17.9C3.84469 17.9 3.84775 17.9 3.85081 17.9C3.85387 17.9 3.85692 17.9 3.85997 17.9C3.86302 17.9 3.86606 17.9 3.8691 17.9C3.87214 17.9 3.87517 17.9 3.8782 17.9C3.88123 17.9 3.88425 17.9 3.88727 17.9C3.89029 17.9 3.8933 17.9 3.89631 17.9C3.89932 17.9 3.90232 17.9 3.90532 17.9C3.90832 17.9 3.91131 17.9 3.9143 17.9C3.91729 17.9 3.92027 17.9 3.92325 17.9C3.92622 17.9 3.9292 17.9 3.93217 17.9C3.93513 17.9 3.9381 17.9 3.94106 17.9C3.94401 17.9 3.94697 17.9 3.94991 17.9C3.95286 17.9 3.95581 17.9 3.95874 17.9C3.96168 17.9 3.96462 17.9 3.96755 17.9C3.97047 17.9 3.9734 17.9 3.97632 17.9C3.97924 17.9 3.98215 17.9 3.98506 17.9C3.98797 17.9 3.99087 17.9 3.99377 17.9C3.99667 17.9 3.99957 17.9 4.00245 17.9C4.00534 17.9 4.00823 17.9 4.01111 17.9C4.01399 17.9 4.01686 17.9 4.01973 17.9C4.02261 17.9 4.02547 17.9 4.02833 17.9C4.03119 17.9 4.03405 17.9 4.0369 17.9C4.03975 17.9 4.0426 17.9 4.04544 17.9C4.04828 17.9 4.05112 17.9 4.05395 17.9C4.05678 17.9 4.05961 17.9 4.06243 17.9C4.06525 17.9 4.06807 17.9 4.07089 17.9C4.0737 17.9 4.07651 17.9 4.07931 17.9C4.08211 17.9 4.08491 17.9 4.08771 17.9C4.0905 17.9 4.09329 17.9 4.09608 17.9C4.09886 17.9 4.10164 17.9 4.10442 17.9C4.10719 17.9 4.10997 17.9 4.11273 17.9C4.1155 17.9 4.11826 17.9 4.12102 17.9C4.12377 17.9 4.12653 17.9 4.12927 17.9C4.13202 17.9 4.13477 17.9 4.1375 17.9C4.14024 17.9 4.14298 17.9 4.14571 17.9C4.14844 17.9 4.15116 17.9 4.15388 17.9C4.1566 17.9 4.15932 17.9 4.16203 17.9C4.16474 17.9 4.16745 17.9 4.17015 17.9C4.17285 17.9 4.17555 17.9 4.17824 17.9C4.18093 17.9 4.18362 17.9 4.18631 17.9C4.18899 17.9 4.19167 17.9 4.19434 17.9C4.19702 17.9 4.19969 17.9 4.20236 17.9C4.20502 17.9 4.20768 17.9 4.21034 17.9C4.213 17.9 4.21565 17.9 4.2183 17.9C4.22095 17.9 4.22359 17.9 4.22623 17.9C4.22887 17.9 4.2315 17.9 4.23413 17.9C4.23676 17.9 4.23939 17.9 4.24201 17.9C4.24463 17.9 4.24725 17.9 4.24986 17.9C4.25248 17.9 4.25508 17.9 4.25769 17.9C4.26029 17.9 4.26289 17.9 4.26549 17.9C4.26808 17.9 4.27067 17.9 4.27326 17.9C4.27585 17.9 4.27843 17.9 4.28101 17.9C4.28358 17.9 4.28616 17.9 4.28873 17.9C4.2913 17.9 4.29386 17.9 4.29642 17.9C4.29898 17.9 4.30154 17.9 4.30409 17.9C4.30664 17.9 4.30919 17.9 4.31173 17.9C4.31428 17.9 4.31682 17.9 4.31935 17.9C4.32189 17.9 4.32442 17.9 4.32694 17.9C4.32947 17.9 4.33199 17.9 4.33451 17.9C4.33703 17.9 4.33954 17.9 4.34205 17.9C4.34456 17.9 4.34707 17.9 4.34957 17.9C4.35207 17.9 4.35457 17.9 4.35706 17.9C4.35955 17.9 4.36204 17.9 4.36452 17.9C4.36701 17.9 4.36949 17.9 4.37196 17.9C4.37444 17.9 4.37691 17.9 4.37938 17.9C4.38185 17.9 4.38431 17.9 4.38677 17.9C4.38923 17.9 4.39169 17.9 4.39414 17.9C4.39659 17.9 4.39904 17.9 4.40148 17.9C4.40392 17.9 4.40636 17.9 4.4088 17.9C4.41123 17.9 4.41366 17.9 4.41609 17.9C4.41851 17.9 4.42094 17.9 4.42336 17.9C4.42577 17.9 4.42819 17.9 4.4306 17.9C4.43301 17.9 4.43542 17.9 4.43782 17.9C4.44022 17.9 4.44262 17.9 4.44501 17.9C4.44741 17.9 4.4498 17.9 4.45219 17.9C4.45457 17.9 4.45696 17.9 4.45933 17.9C4.46171 17.9 4.46409 17.9 4.46646 17.9C4.46883 17.9 4.47119 17.9 4.47356 17.9C4.47592 17.9 4.47828 17.9 4.48063 17.9C4.48299 17.9 4.48534 17.9 4.48769 17.9C4.49003 17.9 4.49238 17.9 4.49471 17.9C4.49705 17.9 4.49939 17.9 4.50172 17.9C4.50405 17.9 4.50638 17.9 4.5087 17.9C4.51103 17.9 4.51335 17.9 4.51566 17.9C4.51798 17.9 4.52029 17.9 4.5226 17.9C4.52491 17.9 4.52721 17.9 4.52951 17.9C4.53181 17.9 4.53411 17.9 4.5364 17.9C4.53869 17.9 4.54098 17.9 4.54327 17.9C4.54555 17.9 4.54784 17.9 4.55011 17.9C4.55239 17.9 4.55466 17.9 4.55693 17.9C4.5592 17.9 4.56147 17.9 4.56373 17.9C4.566 17.9 4.56826 17.9 4.57051 17.9C4.57277 17.9 4.57502 17.9 4.57726 17.9C4.57951 17.9 4.58176 17.9 4.584 17.9C4.58624 17.9 4.58847 17.9 4.59071 17.9C4.59294 17.9 4.59517 17.9 4.59739 17.9C4.59962 17.9 4.60184 17.9 4.60406 17.9C4.60628 17.9 4.60849 17.9 4.6107 17.9C4.61291 17.9 4.61512 17.9 4.61732 17.9C4.61953 17.9 4.62173 17.9 4.62392 17.9C4.62612 17.9 4.62831 17.9 4.6305 17.9C4.63269 17.9 4.63488 17.9 4.63706 17.9C4.63924 17.9 4.64142 17.9 4.64359 17.9C4.64577 17.9 4.64794 17.9 4.65011 17.9C4.65227 17.9 4.65444 17.9 4.6566 17.9C4.65876 17.9 4.66092 17.9 4.66307 17.9C4.66522 17.9 4.66737 17.9 4.66952 17.9C4.67167 17.9 4.67381 17.9 4.67595 17.9C4.67809 17.9 4.68022 17.9 4.68236 17.9C4.68449 17.9 4.68662 17.9 4.68874 17.9C4.69087 17.9 4.69299 17.9 4.69511 17.9C4.69723 17.9 4.69934 17.9 4.70145 17.9C4.70357 17.9 4.70567 17.9 4.70778 17.9C4.70988 17.9 4.71199 17.9 4.71408 17.9C4.71618 17.9 4.71828 17.9 4.72037 17.9C4.72246 17.9 4.72455 17.9 4.72663 17.9C4.72871 17.9 4.7308 17.9 4.73287 17.9C4.73495 17.9 4.73703 17.9 4.7391 17.9C4.74117 17.9 4.74323 17.9 4.7453 17.9C4.74736 17.9 4.74942 17.9 4.75148 17.9C4.75354 17.9 4.75559 17.9 4.75764 17.9C4.7597 17.9 4.76174 17.9 4.76379 17.9C4.76583 17.9 4.76787 17.9 4.76991 17.9C4.77195 17.9 4.77398 17.9 4.77601 17.9C4.77805 17.9 4.78007 17.9 4.7821 17.9C4.78412 17.9 4.78614 17.9 4.78816 17.9C4.79018 17.9 4.7922 17.9 4.79421 17.9C4.79622 17.9 4.79823 17.9 4.80023 17.9C4.80224 17.9 4.80424 17.9 4.80624 17.9C4.80824 17.9 4.81024 17.9 4.81223 17.9C4.81422 17.9 4.81621 17.9 4.8182 17.9C4.82018 17.9 4.82217 17.9 4.82415 17.9C4.82613 17.9 4.8281 17.9 4.83008 17.9C4.83205 17.9 4.83402 17.9 4.83599 17.9C4.83796 17.9 4.83992 17.9 4.84188 17.9C4.84384 17.9 4.8458 17.9 4.84776 17.9C4.84971 17.9 4.85167 17.9 4.85361 17.9C4.85556 17.9 4.85751 17.9 4.85945 17.9C4.8614 17.9 4.86334 17.9 4.86527 17.9C4.86721 17.9 4.86914 17.9 4.87107 17.9C4.873 17.9 4.87493 17.9 4.87686 17.9C4.87878 17.9 4.8807 17.9 4.88262 17.9C4.88454 17.9 4.88646 17.9 4.88837 17.9C4.89028 17.9 4.89219 17.9 4.8941 17.9C4.89601 17.9 4.89791 17.9 4.89981 17.9C4.90171 17.9 4.90361 17.9 4.90551 17.9C4.9074 17.9 4.90929 17.9 4.91118 17.9C4.91307 17.9 4.91496 17.9 4.91684 17.9C4.91872 17.9 4.9206 17.9 4.92248 17.9C4.92436 17.9 4.92623 17.9 4.92811 17.9C4.92998 17.9 4.93185 17.9 4.93371 17.9C4.93558 17.9 4.93744 17.9 4.9393 17.9C4.94116 17.9 4.94302 17.9 4.94488 17.9C4.94673 17.9 4.94858 17.9 4.95043 17.9C4.95228 17.9 4.95413 17.9 4.95597 17.9C4.95781 17.9 4.95966 17.9 4.96149 17.9C4.96333 17.9 4.96517 17.9 4.967 17.9C4.96883 17.9 4.97066 17.9 4.97249 17.9C4.97431 17.9 4.97614 17.9 4.97796 17.9C4.97978 17.9 4.9816 17.9 4.98342 17.9C4.98523 17.9 4.98705 17.9 4.98886 17.9C4.99067 17.9 4.99247 17.9 4.99428 17.9C4.99608 17.9 4.99789 17.9 4.99969 17.9C5.00149 17.9 5.00328 17.9 5.00508 17.9C5.00687 17.9 5.00866 17.9 5.01045 17.9C5.01224 17.9 5.01403 17.9 5.01581 17.9C5.0176 17.9 5.01938 17.9 5.02116 17.9C5.02293 17.9 5.02471 17.9 5.02648 17.9C5.02826 17.9 5.03003 17.9 5.0318 17.9C5.03356 17.9 5.03533 17.9 5.03709 17.9C5.03885 17.9 5.04062 17.9 5.04237 17.9C5.04413 17.9 5.04589 17.9 5.04764 17.9C5.04939 17.9 5.05114 17.9 5.05289 17.9C5.05464 17.9 5.05638 17.9 5.05812 17.9C5.05987 17.9 5.06161 17.9 5.06334 17.9C5.06508 17.9 5.06682 17.9 5.06855 17.9C5.07028 17.9 5.07201 17.9 5.07374 17.9C5.07547 17.9 5.07719 17.9 5.07892 17.9C5.08064 17.9 5.08236 17.9 5.08408 17.9C5.08579 17.9 5.08751 17.9 5.08922 17.9C5.09094 17.9 5.09265 17.9 5.09435 17.9C5.09606 17.9 5.09777 17.9 5.09947 17.9C5.10118 17.9 5.10288 17.9 5.10457 17.9C5.10627 17.9 5.10797 17.9 5.10966 17.9C5.11136 17.9 5.11305 17.9 5.11474 17.9C5.11643 17.9 5.11811 17.9 5.1198 17.9C5.12148 17.9 5.12316 17.9 5.12484 17.9C5.12652 17.9 5.1282 17.9 5.12988 17.9C5.13155 17.9 5.13322 17.9 5.1349 17.9C5.13657 17.9 5.13823 17.9 5.1399 17.9C5.14157 17.9 5.14323 17.9 5.14489 17.9C5.14655 17.9 5.14821 17.9 5.14987 17.9C5.15153 17.9 5.15318 17.9 5.15483 17.9C5.15648 17.9 5.15814 17.9 5.15978 17.9C5.16143 17.9 5.16308 17.9 5.16472 17.9C5.16636 17.9 5.16801 17.9 5.16964 17.9C5.17128 17.9 5.17292 17.9 5.17456 17.9C5.17619 17.9 5.17782 17.9 5.17945 17.9C5.18108 17.9 5.18271 17.9 5.18434 17.9C5.18596 17.9 5.18759 17.9 5.18921 17.9C5.19083 17.9 5.19245 17.9 5.19407 17.9C5.19569 17.9 5.1973 17.9 5.19892 17.9C5.20053 17.9 5.20214 17.9 5.20375 17.9C5.20536 17.9 5.20697 17.9 5.20857 17.9C5.21018 17.9 5.21178 17.9 5.21338 17.9C5.21498 17.9 5.21658 17.9 5.21818 17.9C5.21978 17.9 5.22137 17.9 5.22296 17.9C5.22456 17.9 5.22615 17.9 5.22774 17.9C5.22933 17.9 5.23091 17.9 5.2325 17.9C5.23408 17.9 5.23567 17.9 5.23725 17.9C5.23883 17.9 5.24041 17.9 5.24198 17.9C5.24356 17.9 5.24513 17.9 5.24671 17.9C5.24828 17.9 5.24985 17.9 5.25142 17.9C5.25299 17.9 5.25456 17.9 5.25612 17.9C5.25769 17.9 5.25925 17.9 5.26081 17.9C5.26237 17.9 5.26393 17.9 5.26549 17.9C5.26705 17.9 5.2686 17.9 5.27016 17.9C5.27171 17.9 5.27327 17.9 5.27482 17.9C5.27637 17.9 5.27791 17.9 5.27946 17.9C5.28101 17.9 5.28255 17.9 5.28409 17.9C5.28564 17.9 5.28718 17.9 5.28872 17.9C5.29026 17.9 5.29179 17.9 5.29333 17.9C5.29486 17.9 5.2964 17.9 5.29793 17.9C5.29946 17.9 5.30099 17.9 5.30252 17.9C5.30405 17.9 5.30558 17.9 5.3071 17.9C5.30863 17.9 5.31015 17.9 5.31167 17.9C5.31319 17.9 5.31471 17.9 5.31623 17.9C5.31775 17.9 5.31926 17.9 5.32078 17.9C5.32229 17.9 5.32381 17.9 5.32532 17.9C5.32683 17.9 5.32834 17.9 5.32985 17.9C5.33135 17.9 5.33286 17.9 5.33436 17.9C5.33587 17.9 5.33737 17.9 5.33887 17.9C5.34037 17.9 5.34187 17.9 5.34337 17.9C5.34487 17.9 5.34636 17.9 5.34786 17.9C5.34935 17.9 5.35085 17.9 5.35234 17.9C5.35383 17.9 5.35532 17.9 5.35681 17.9C5.35829 17.9 5.35978 17.9 5.36127 17.9C5.36275 17.9 5.36423 17.9 5.36572 17.9C5.3672 17.9 5.36868 17.9 5.37016 17.9C5.37164 17.9 5.37311 17.9 5.37459 17.9C5.37606 17.9 5.37754 17.9 5.37901 17.9C5.38048 17.9 5.38195 17.9 5.38342 17.9C5.38489 17.9 5.38636 17.9 5.38783 17.9C5.38929 17.9 5.39076 17.9 5.39222 17.9C5.39369 17.9 5.39515 17.9 5.39661 17.9C5.39807 17.9 5.39953 17.9 5.40099 17.9C5.40245 17.9 5.4039 17.9 5.40536 17.9C5.40681 17.9 5.40827 17.9 5.40972 17.9C5.41117 17.9 5.41262 17.9 5.41407 17.9C5.41552 17.9 5.41697 17.9 5.41841 17.9C5.41986 17.9 5.4213 17.9 5.42275 17.9C5.42419 17.9 5.42563 17.9 5.42708 17.9C5.42852 17.9 5.42996 17.9 5.43139 17.9C5.43283 17.9 5.43427 17.9 5.43571 17.9C5.43714 17.9 5.43858 17.9 5.44001 17.9C5.44144 17.9 5.44287 17.9 5.4443 17.9C5.44573 17.9 5.44716 17.9 5.44859 17.9C5.45002 17.9 5.45145 17.9 5.45287 17.9C5.4543 17.9 5.45572 17.9 5.45714 17.9C5.45857 17.9 5.45999 17.9 5.46141 17.9C5.46283 17.9 5.46425 17.9 5.46567 17.9C5.46708 17.9 5.4685 17.9 5.46992 17.9C5.47133 17.9 5.47275 17.9 5.47416 17.9C5.47557 17.9 5.47698 17.9 5.47839 17.9C5.47981 17.9 5.48122 17.9 5.48262 17.9C5.48403 17.9 5.48544 17.9 5.48685 17.9C5.48825 17.9 5.48966 17.9 5.49106 17.9C5.49246 17.9 5.49387 17.9 5.49527 17.9C5.49667 17.9 5.49807 17.9 5.49947 17.9C5.50087 17.9 5.50227 17.9 5.50366 17.9C5.50506 17.9 5.50646 17.9 5.50785 17.9C5.50925 17.9 5.51064 17.9 5.51204 17.9C5.51343 17.9 5.51482 17.9 5.51621 17.9C5.5176 17.9 5.51899 17.9 5.52038 17.9C5.52177 17.9 5.52316 17.9 5.52454 17.9C5.52593 17.9 5.52732 17.9 5.5287 17.9C5.53009 17.9 5.53147 17.9 5.53285 17.9C5.53423 17.9 5.53562 17.9 5.537 17.9C5.53838 17.9 5.53976 17.9 5.54114 17.9C5.54252 17.9 5.54389 17.9 5.54527 17.9C5.54665 17.9 5.54802 17.9 5.5494 17.9C5.55077 17.9 5.55215 17.9 5.55352 17.9C5.55489 17.9 5.55627 17.9 5.55764 17.9C5.55901 17.9 5.56038 17.9 5.56175 17.9C5.56312 17.9 5.56449 17.9 5.56586 17.9C5.56723 17.9 5.56859 17.9 5.56996 17.9C5.57133 17.9 5.57269 17.9 5.57406 17.9C5.57542 17.9 5.57678 17.9 5.57815 17.9C5.57951 17.9 5.58087 17.9 5.58223 17.9C5.5836 17.9 5.58496 17.9 5.58632 17.9C5.58768 17.9 5.58903 17.9 5.59039 17.9C5.59175 17.9 5.59311 17.9 5.59447 17.9C5.59582 17.9 5.59718 17.9 5.59853 17.9C5.59989 17.9 5.60124 17.9 5.6026 17.9C5.60395 17.9 5.6053 17.9 5.60666 17.9C5.60801 17.9 5.60936 17.9 5.61071 17.9C5.61206 17.9 5.61341 17.9 5.61476 17.9C5.61611 17.9 5.61746 17.9 5.61881 17.9C5.62016 17.9 5.6215 17.9 5.62285 17.9C5.6242 17.9 5.62554 17.9 5.62689 17.9C5.62823 17.9 5.62958 17.9 5.63092 17.9C5.63227 17.9 5.63361 17.9 5.63495 17.9C5.6363 17.9 5.63764 17.9 5.63898 17.9C5.64032 17.9 5.64167 17.9 5.64301 17.9C5.64435 17.9 5.64569 17.9 5.64703 17.9C5.64837 17.9 5.64971 17.9 5.65104 17.9C5.65238 17.9 5.65372 17.9 5.65506 17.9C5.6564 17.9 5.65773 17.9 5.65907 17.9C5.66041 17.9 5.66174 17.9 5.66308 17.9C5.66441 17.9 5.66575 17.9 5.66708 17.9C5.66842 17.9 5.66975 17.9 5.67108 17.9C5.67242 17.9 5.67375 17.9 5.67508 17.9C5.67641 17.9 5.67775 17.9 5.67908 17.9C5.68041 17.9 5.68174 17.9 5.68307 17.9C5.6844 17.9 5.68573 17.9 5.68706 17.9C5.68839 17.9 5.68972 17.9 5.69105 17.9C5.69238 17.9 5.69371 17.9 5.69504 17.9C5.69636 17.9 5.69769 17.9 5.69902 17.9C5.70035 17.9 5.70167 17.9 5.703 17.9C5.70433 17.9 5.70565 17.9 5.70698 17.9C5.70831 17.9 5.70963 17.9 5.71096 17.9C5.71228 17.9 5.71361 17.9 5.71493 17.9C5.71626 17.9 5.71758 17.9 5.71891 17.9C5.72023 17.9 5.72155 17.9 5.72288 17.9C5.7242 17.9 5.72552 17.9 5.72685 17.9C5.72817 17.9 5.72949 17.9 5.73082 17.9C5.73214 17.9 5.73346 17.9 5.73478 17.9C5.7361 17.9 5.73743 17.9 5.73875 17.9C5.74007 17.9 5.74139 17.9 5.74271 17.9C5.74403 17.9 5.74535 17.9 5.74668 17.9C5.748 17.9 5.74932 17.9 5.75064 17.9C5.75196 17.9 5.75328 17.9 5.7546 17.9C5.75592 17.9 5.75724 17.9 5.75856 17.9C5.75988 17.9 5.7612 17.9 5.76252 17.9C5.76384 17.9 5.76516 17.9 5.76647 17.9C5.76779 17.9 5.76911 17.9 5.77043 17.9C5.77175 17.9 5.77307 17.9 5.77439 17.9C5.77571 17.9 5.77703 17.9 5.77835 17.9C5.77966 17.9 5.78098 17.9 5.7823 17.9C5.78362 17.9 5.78494 17.9 5.78626 17.9C5.78758 17.9 5.78889 17.9 5.79021 17.9C5.79153 17.9 5.79285 17.9 5.79417 17.9C5.79549 17.9 5.7968 17.9 5.79812 17.9C5.79944 17.9 5.80076 17.9 5.80208 17.9C5.8034 17.9 5.80471 17.9 5.80603 17.9C5.80735 17.9 5.80867 17.9 5.80999 17.9C5.81131 17.9 5.81263 17.9 5.81394 17.9C5.81526 17.9 5.81658 17.9 5.8179 17.9C5.81922 17.9 5.82054 17.9 5.82186 17.9C5.82318 17.9 5.8245 17.9 5.82581 17.9C5.82713 17.9 5.82845 17.9 5.82977 17.9C5.83109 17.9 5.83241 17.9 5.83373 17.9C5.83505 17.9 5.83637 17.9 5.83769 17.9C5.83901 17.9 5.84033 17.9 5.84165 17.9C5.84297 17.9 5.84429 17.9 5.84561 17.9C5.84693 17.9 5.84825 17.9 5.84957 17.9C5.8509 17.9 5.85222 17.9 5.85354 17.9C5.85486 17.9 5.85618 17.9 5.8575 17.9C5.85883 17.9 5.86015 17.9 5.86147 17.9C5.86279 17.9 5.86411 17.9 5.86544 17.9C5.86676 17.9 5.86808 17.9 5.86941 17.9C5.87073 17.9 5.87205 17.9 5.87338 17.9C5.8747 17.9 5.87603 17.9 5.87735 17.9C5.87867 17.9 5.88 17.9 5.88132 17.9C5.88265 17.9 5.88398 17.9 5.8853 17.9C5.88663 17.9 5.88795 17.9 5.88928 17.9C5.89061 17.9 5.89193 17.9 5.89326 17.9C5.89459 17.9 5.89591 17.9 5.89724 17.9C5.89857 17.9 5.8999 17.9 5.90123 17.9C5.90256 17.9 5.90388 17.9 5.90521 17.9C5.90654 17.9 5.90787 17.9 5.9092 17.9C5.91053 17.9 5.91186 17.9 5.9132 17.9C5.91453 17.9 5.91586 17.9 5.91719 17.9C5.91852 17.9 5.91986 17.9 5.92119 17.9C5.92252 17.9 5.92385 17.9 5.92519 17.9C5.92652 17.9 5.92786 17.9 5.92919 17.9C5.93053 17.9 5.93186 17.9 5.9332 17.9C5.93453 17.9 5.93587 17.9 5.93721 17.9C5.93854 17.9 5.93988 17.9 5.94122 17.9C5.94256 17.9 5.9439 17.9 5.94523 17.9C5.94657 17.9 5.94791 17.9 5.94925 17.9C5.95059 17.9 5.95193 17.9 5.95328 17.9C5.95462 17.9 5.95596 17.9 5.9573 17.9C5.95864 17.9 5.95999 17.9 5.96133 17.9C5.96268 17.9 5.96402 17.9 5.96536 17.9C5.96671 17.9 5.96806 17.9 5.9694 17.9C5.97075 17.9 5.9721 17.9 5.97344 17.9C5.97479 17.9 5.97614 17.9 5.97749 17.9C5.97884 17.9 5.98019 17.9 5.98154 17.9C5.98289 17.9 5.98424 17.9 5.98559 17.9C5.98694 17.9 5.98829 17.9 5.98965 17.9C5.991 17.9 5.99235 17.9 5.99371 17.9C5.99506 17.9 5.99642 17.9 5.99777 17.9C5.99913 17.9 6.00049 17.9 6.00184 17.9C6.0032 17.9 6.00456 17.9 6.00592 17.9C6.00728 17.9 6.00864 17.9 6.01 17.9C6.01136 17.9 6.01272 17.9 6.01408 17.9C6.01545 17.9 6.01681 17.9 6.01817 17.9C6.01954 17.9 6.0209 17.9 6.02227 17.9C6.02363 17.9 6.025 17.9 6.02637 17.9C6.02773 17.9 6.0291 17.9 6.03047 17.9C6.03184 17.9 6.03321 17.9 6.03458 17.9C6.03595 17.9 6.03732 17.9 6.03869 17.9C6.04007 17.9 6.04144 17.9 6.04281 17.9C6.04419 17.9 6.04556 17.9 6.04694 17.9C6.04832 17.9 6.04969 17.9 6.05107 17.9C6.05245 17.9 6.05383 17.9 6.05521 17.9C6.05659 17.9 6.05797 17.9 6.05935 17.9C6.06073 17.9 6.06212 17.9 6.0635 17.9C6.06488 17.9 6.06627 17.9 6.06765 17.9C6.06904 17.9 6.07043 17.9 6.07182 17.9C6.0732 17.9 6.07459 17.9 6.07598 17.9C6.07737 17.9 6.07876 17.9 6.08015 17.9C6.08155 17.9 6.08294 17.9 6.08433 17.9C6.08573 17.9 6.08712 17.9 6.08852 17.9C6.08991 17.9 6.09131 17.9 6.09271 17.9C6.09411 17.9 6.09551 17.9 6.09691 17.9C6.09831 17.9 6.09971 17.9 6.10111 17.9C6.10252 17.9 6.10392 17.9 6.10533 17.9C6.10673 17.9 6.10814 17.9 6.10954 17.9C6.11095 17.9 6.11236 17.9 6.11377 17.9C6.11518 17.9 6.11659 17.9 6.118 17.9C6.11941 17.9 6.12083 17.9 6.12224 17.9C6.12366 17.9 6.12507 17.9 6.12649 17.9C6.12791 17.9 6.12932 17.9 6.13074 17.9C6.13216 17.9 6.13358 17.9 6.135 17.9C6.13643 17.9 6.13785 17.9 6.13927 17.9C6.1407 17.9 6.14212 17.9 6.14355 17.9C6.14498 17.9 6.1464 17.9 6.14783 17.9C6.14926 17.9 6.15069 17.9 6.15213 17.9C6.15356 17.9 6.15499 17.9 6.15642 17.9C6.15786 17.9 6.1593 17.9 6.16073 17.9C6.16217 17.9 6.16361 17.9 6.16505 17.9C6.16649 17.9 6.16793 17.9 6.16937 17.9C6.17081 17.9 6.17226 17.9 6.1737 17.9C6.17515 17.9 6.1766 17.9 6.17804 17.9C6.17949 17.9 6.18094 17.9 6.18239 17.9C6.18384 17.9 6.18529 17.9 6.18675 17.9C6.1882 17.9 6.18966 17.9 6.19111 17.9C6.19257 17.9 6.19403 17.9 6.19549 17.9C6.19695 17.9 6.19841 17.9 6.19987 17.9C6.20133 17.9 6.2028 17.9 6.20426 17.9C6.20573 17.9 6.20719 17.9 6.20866 17.9C6.21013 17.9 6.2116 17.9 6.21307 17.9C6.21454 17.9 6.21601 17.9 6.21749 17.9C6.21896 17.9 6.22044 17.9 6.22192 17.9C6.22339 17.9 6.22487 17.9 6.22635 17.9C6.22783 17.9 6.22931 17.9 6.2308 17.9C6.23228 17.9 6.23377 17.9 6.23525 17.9C6.23674 17.9 6.23823 17.9 6.23972 17.9C6.24121 17.9 6.2427 17.9 6.24419 17.9C6.24569 17.9 6.24718 17.9 6.24868 17.9C6.25017 17.9 6.25167 17.9 6.25317 17.9C6.25467 17.9 6.25617 17.9 6.25767 17.9C6.25918 17.9 6.26068 17.9 6.26219 17.9C6.26369 17.9 6.2652 17.9 6.26671 17.9C6.26822 17.9 6.26973 17.9 6.27125 17.9C6.27276 17.9 6.27427 17.9 6.27579 17.9C6.27731 17.9 6.27882 17.9 6.28034 17.9C6.28186 17.9 6.28338 17.9 6.28491 17.9C6.28643 17.9 6.28796 17.9 6.28948 17.9C6.29101 17.9 6.29254 17.9 6.29407 17.9C6.2956 17.9 6.29713 17.9 6.29867 17.9C6.3002 17.9 6.30173 17.9 6.30327 17.9C6.30481 17.9 6.30635 17.9 6.30789 17.9C6.30943 17.9 6.31097 17.9 6.31252 17.9C6.31406 17.9 6.31561 17.9 6.31716 17.9C6.31871 17.9 6.32026 17.9 6.32181 17.9C6.32336 17.9 6.32492 17.9 6.32647 17.9C6.32803 17.9 6.32959 17.9 6.33115 17.9C6.33271 17.9 6.33427 17.9 6.33583 17.9C6.3374 17.9 6.33896 17.9 6.34053 17.9C6.3421 17.9 6.34366 17.9 6.34524 17.9C6.34681 17.9 6.34838 17.9 6.34996 17.9C6.35153 17.9 6.35311 17.9 6.35469 17.9C6.35627 17.9 6.35785 17.9 6.35943 17.9C6.36101 17.9 6.3626 17.9 6.36419 17.9V16.9C6.3626 16.9 6.36101 16.9 6.35943 16.9C6.35785 16.9 6.35627 16.9 6.35469 16.9C6.35311 16.9 6.35153 16.9 6.34996 16.9C6.34838 16.9 6.34681 16.9 6.34524 16.9C6.34366 16.9 6.3421 16.9 6.34053 16.9C6.33896 16.9 6.3374 16.9 6.33583 16.9C6.33427 16.9 6.33271 16.9 6.33115 16.9C6.32959 16.9 6.32803 16.9 6.32647 16.9C6.32492 16.9 6.32336 16.9 6.32181 16.9C6.32026 16.9 6.31871 16.9 6.31716 16.9C6.31561 16.9 6.31406 16.9 6.31252 16.9C6.31097 16.9 6.30943 16.9 6.30789 16.9C6.30635 16.9 6.30481 16.9 6.30327 16.9C6.30173 16.9 6.3002 16.9 6.29867 16.9C6.29713 16.9 6.2956 16.9 6.29407 16.9C6.29254 16.9 6.29101 16.9 6.28948 16.9C6.28796 16.9 6.28643 16.9 6.28491 16.9C6.28338 16.9 6.28186 16.9 6.28034 16.9C6.27882 16.9 6.27731 16.9 6.27579 16.9C6.27427 16.9 6.27276 16.9 6.27125 16.9C6.26973 16.9 6.26822 16.9 6.26671 16.9C6.2652 16.9 6.26369 16.9 6.26219 16.9C6.26068 16.9 6.25918 16.9 6.25767 16.9C6.25617 16.9 6.25467 16.9 6.25317 16.9C6.25167 16.9 6.25017 16.9 6.24868 16.9C6.24718 16.9 6.24569 16.9 6.24419 16.9C6.2427 16.9 6.24121 16.9 6.23972 16.9C6.23823 16.9 6.23674 16.9 6.23525 16.9C6.23377 16.9 6.23228 16.9 6.2308 16.9C6.22931 16.9 6.22783 16.9 6.22635 16.9C6.22487 16.9 6.22339 16.9 6.22192 16.9C6.22044 16.9 6.21896 16.9 6.21749 16.9C6.21601 16.9 6.21454 16.9 6.21307 16.9C6.2116 16.9 6.21013 16.9 6.20866 16.9C6.20719 16.9 6.20573 16.9 6.20426 16.9C6.2028 16.9 6.20133 16.9 6.19987 16.9C6.19841 16.9 6.19695 16.9 6.19549 16.9C6.19403 16.9 6.19257 16.9 6.19111 16.9C6.18966 16.9 6.1882 16.9 6.18675 16.9C6.18529 16.9 6.18384 16.9 6.18239 16.9C6.18094 16.9 6.17949 16.9 6.17804 16.9C6.1766 16.9 6.17515 16.9 6.1737 16.9C6.17226 16.9 6.17081 16.9 6.16937 16.9C6.16793 16.9 6.16649 16.9 6.16505 16.9C6.16361 16.9 6.16217 16.9 6.16073 16.9C6.1593 16.9 6.15786 16.9 6.15642 16.9C6.15499 16.9 6.15356 16.9 6.15213 16.9C6.15069 16.9 6.14926 16.9 6.14783 16.9C6.1464 16.9 6.14498 16.9 6.14355 16.9C6.14212 16.9 6.1407 16.9 6.13927 16.9C6.13785 16.9 6.13643 16.9 6.135 16.9C6.13358 16.9 6.13216 16.9 6.13074 16.9C6.12932 16.9 6.12791 16.9 6.12649 16.9C6.12507 16.9 6.12366 16.9 6.12224 16.9C6.12083 16.9 6.11941 16.9 6.118 16.9C6.11659 16.9 6.11518 16.9 6.11377 16.9C6.11236 16.9 6.11095 16.9 6.10954 16.9C6.10814 16.9 6.10673 16.9 6.10533 16.9C6.10392 16.9 6.10252 16.9 6.10111 16.9C6.09971 16.9 6.09831 16.9 6.09691 16.9C6.09551 16.9 6.09411 16.9 6.09271 16.9C6.09131 16.9 6.08991 16.9 6.08852 16.9C6.08712 16.9 6.08573 16.9 6.08433 16.9C6.08294 16.9 6.08155 16.9 6.08015 16.9C6.07876 16.9 6.07737 16.9 6.07598 16.9C6.07459 16.9 6.0732 16.9 6.07182 16.9C6.07043 16.9 6.06904 16.9 6.06765 16.9C6.06627 16.9 6.06488 16.9 6.0635 16.9C6.06212 16.9 6.06073 16.9 6.05935 16.9C6.05797 16.9 6.05659 16.9 6.05521 16.9C6.05383 16.9 6.05245 16.9 6.05107 16.9C6.04969 16.9 6.04832 16.9 6.04694 16.9C6.04556 16.9 6.04419 16.9 6.04281 16.9C6.04144 16.9 6.04007 16.9 6.03869 16.9C6.03732 16.9 6.03595 16.9 6.03458 16.9C6.03321 16.9 6.03184 16.9 6.03047 16.9C6.0291 16.9 6.02773 16.9 6.02637 16.9C6.025 16.9 6.02363 16.9 6.02227 16.9C6.0209 16.9 6.01954 16.9 6.01817 16.9C6.01681 16.9 6.01545 16.9 6.01408 16.9C6.01272 16.9 6.01136 16.9 6.01 16.9C6.00864 16.9 6.00728 16.9 6.00592 16.9C6.00456 16.9 6.0032 16.9 6.00184 16.9C6.00049 16.9 5.99913 16.9 5.99777 16.9C5.99642 16.9 5.99506 16.9 5.99371 16.9C5.99235 16.9 5.991 16.9 5.98965 16.9C5.98829 16.9 5.98694 16.9 5.98559 16.9C5.98424 16.9 5.98289 16.9 5.98154 16.9C5.98019 16.9 5.97884 16.9 5.97749 16.9C5.97614 16.9 5.97479 16.9 5.97344 16.9C5.9721 16.9 5.97075 16.9 5.9694 16.9C5.96806 16.9 5.96671 16.9 5.96536 16.9C5.96402 16.9 5.96268 16.9 5.96133 16.9C5.95999 16.9 5.95864 16.9 5.9573 16.9C5.95596 16.9 5.95462 16.9 5.95328 16.9C5.95193 16.9 5.95059 16.9 5.94925 16.9C5.94791 16.9 5.94657 16.9 5.94523 16.9C5.9439 16.9 5.94256 16.9 5.94122 16.9C5.93988 16.9 5.93854 16.9 5.93721 16.9C5.93587 16.9 5.93453 16.9 5.9332 16.9C5.93186 16.9 5.93053 16.9 5.92919 16.9C5.92786 16.9 5.92652 16.9 5.92519 16.9C5.92385 16.9 5.92252 16.9 5.92119 16.9C5.91986 16.9 5.91852 16.9 5.91719 16.9C5.91586 16.9 5.91453 16.9 5.9132 16.9C5.91186 16.9 5.91053 16.9 5.9092 16.9C5.90787 16.9 5.90654 16.9 5.90521 16.9C5.90388 16.9 5.90256 16.9 5.90123 16.9C5.8999 16.9 5.89857 16.9 5.89724 16.9C5.89591 16.9 5.89459 16.9 5.89326 16.9C5.89193 16.9 5.89061 16.9 5.88928 16.9C5.88795 16.9 5.88663 16.9 5.8853 16.9C5.88398 16.9 5.88265 16.9 5.88132 16.9C5.88 16.9 5.87867 16.9 5.87735 16.9C5.87603 16.9 5.8747 16.9 5.87338 16.9C5.87205 16.9 5.87073 16.9 5.86941 16.9C5.86808 16.9 5.86676 16.9 5.86544 16.9C5.86411 16.9 5.86279 16.9 5.86147 16.9C5.86015 16.9 5.85883 16.9 5.8575 16.9C5.85618 16.9 5.85486 16.9 5.85354 16.9C5.85222 16.9 5.8509 16.9 5.84957 16.9C5.84825 16.9 5.84693 16.9 5.84561 16.9C5.84429 16.9 5.84297 16.9 5.84165 16.9C5.84033 16.9 5.83901 16.9 5.83769 16.9C5.83637 16.9 5.83505 16.9 5.83373 16.9C5.83241 16.9 5.83109 16.9 5.82977 16.9C5.82845 16.9 5.82713 16.9 5.82581 16.9C5.8245 16.9 5.82318 16.9 5.82186 16.9C5.82054 16.9 5.81922 16.9 5.8179 16.9C5.81658 16.9 5.81526 16.9 5.81394 16.9C5.81263 16.9 5.81131 16.9 5.80999 16.9C5.80867 16.9 5.80735 16.9 5.80603 16.9C5.80471 16.9 5.8034 16.9 5.80208 16.9C5.80076 16.9 5.79944 16.9 5.79812 16.9C5.7968 16.9 5.79549 16.9 5.79417 16.9C5.79285 16.9 5.79153 16.9 5.79021 16.9C5.78889 16.9 5.78758 16.9 5.78626 16.9C5.78494 16.9 5.78362 16.9 5.7823 16.9C5.78098 16.9 5.77966 16.9 5.77835 16.9C5.77703 16.9 5.77571 16.9 5.77439 16.9C5.77307 16.9 5.77175 16.9 5.77043 16.9C5.76911 16.9 5.76779 16.9 5.76647 16.9C5.76516 16.9 5.76384 16.9 5.76252 16.9C5.7612 16.9 5.75988 16.9 5.75856 16.9C5.75724 16.9 5.75592 16.9 5.7546 16.9C5.75328 16.9 5.75196 16.9 5.75064 16.9C5.74932 16.9 5.748 16.9 5.74668 16.9C5.74535 16.9 5.74403 16.9 5.74271 16.9C5.74139 16.9 5.74007 16.9 5.73875 16.9C5.73743 16.9 5.7361 16.9 5.73478 16.9C5.73346 16.9 5.73214 16.9 5.73082 16.9C5.72949 16.9 5.72817 16.9 5.72685 16.9C5.72552 16.9 5.7242 16.9 5.72288 16.9C5.72155 16.9 5.72023 16.9 5.71891 16.9C5.71758 16.9 5.71626 16.9 5.71493 16.9C5.71361 16.9 5.71228 16.9 5.71096 16.9C5.70963 16.9 5.70831 16.9 5.70698 16.9C5.70565 16.9 5.70433 16.9 5.703 16.9C5.70167 16.9 5.70035 16.9 5.69902 16.9C5.69769 16.9 5.69636 16.9 5.69504 16.9C5.69371 16.9 5.69238 16.9 5.69105 16.9C5.68972 16.9 5.68839 16.9 5.68706 16.9C5.68573 16.9 5.6844 16.9 5.68307 16.9C5.68174 16.9 5.68041 16.9 5.67908 16.9C5.67775 16.9 5.67641 16.9 5.67508 16.9C5.67375 16.9 5.67242 16.9 5.67108 16.9C5.66975 16.9 5.66842 16.9 5.66708 16.9C5.66575 16.9 5.66441 16.9 5.66308 16.9C5.66174 16.9 5.66041 16.9 5.65907 16.9C5.65773 16.9 5.6564 16.9 5.65506 16.9C5.65372 16.9 5.65238 16.9 5.65104 16.9C5.64971 16.9 5.64837 16.9 5.64703 16.9C5.64569 16.9 5.64435 16.9 5.64301 16.9C5.64167 16.9 5.64032 16.9 5.63898 16.9C5.63764 16.9 5.6363 16.9 5.63495 16.9C5.63361 16.9 5.63227 16.9 5.63092 16.9C5.62958 16.9 5.62823 16.9 5.62689 16.9C5.62554 16.9 5.6242 16.9 5.62285 16.9C5.6215 16.9 5.62016 16.9 5.61881 16.9C5.61746 16.9 5.61611 16.9 5.61476 16.9C5.61341 16.9 5.61206 16.9 5.61071 16.9C5.60936 16.9 5.60801 16.9 5.60666 16.9C5.6053 16.9 5.60395 16.9 5.6026 16.9C5.60124 16.9 5.59989 16.9 5.59853 16.9C5.59718 16.9 5.59582 16.9 5.59447 16.9C5.59311 16.9 5.59175 16.9 5.59039 16.9C5.58903 16.9 5.58768 16.9 5.58632 16.9C5.58496 16.9 5.5836 16.9 5.58223 16.9C5.58087 16.9 5.57951 16.9 5.57815 16.9C5.57678 16.9 5.57542 16.9 5.57406 16.9C5.57269 16.9 5.57133 16.9 5.56996 16.9C5.56859 16.9 5.56723 16.9 5.56586 16.9C5.56449 16.9 5.56312 16.9 5.56175 16.9C5.56038 16.9 5.55901 16.9 5.55764 16.9C5.55627 16.9 5.55489 16.9 5.55352 16.9C5.55215 16.9 5.55077 16.9 5.5494 16.9C5.54802 16.9 5.54665 16.9 5.54527 16.9C5.54389 16.9 5.54252 16.9 5.54114 16.9C5.53976 16.9 5.53838 16.9 5.537 16.9C5.53562 16.9 5.53423 16.9 5.53285 16.9C5.53147 16.9 5.53009 16.9 5.5287 16.9C5.52732 16.9 5.52593 16.9 5.52454 16.9C5.52316 16.9 5.52177 16.9 5.52038 16.9C5.51899 16.9 5.5176 16.9 5.51621 16.9C5.51482 16.9 5.51343 16.9 5.51204 16.9C5.51064 16.9 5.50925 16.9 5.50785 16.9C5.50646 16.9 5.50506 16.9 5.50366 16.9C5.50227 16.9 5.50087 16.9 5.49947 16.9C5.49807 16.9 5.49667 16.9 5.49527 16.9C5.49387 16.9 5.49246 16.9 5.49106 16.9C5.48966 16.9 5.48825 16.9 5.48685 16.9C5.48544 16.9 5.48403 16.9 5.48262 16.9C5.48122 16.9 5.47981 16.9 5.47839 16.9C5.47698 16.9 5.47557 16.9 5.47416 16.9C5.47275 16.9 5.47133 16.9 5.46992 16.9C5.4685 16.9 5.46708 16.9 5.46567 16.9C5.46425 16.9 5.46283 16.9 5.46141 16.9C5.45999 16.9 5.45857 16.9 5.45714 16.9C5.45572 16.9 5.4543 16.9 5.45287 16.9C5.45145 16.9 5.45002 16.9 5.44859 16.9C5.44716 16.9 5.44573 16.9 5.4443 16.9C5.44287 16.9 5.44144 16.9 5.44001 16.9C5.43858 16.9 5.43714 16.9 5.43571 16.9C5.43427 16.9 5.43283 16.9 5.43139 16.9C5.42996 16.9 5.42852 16.9 5.42708 16.9C5.42563 16.9 5.42419 16.9 5.42275 16.9C5.4213 16.9 5.41986 16.9 5.41841 16.9C5.41697 16.9 5.41552 16.9 5.41407 16.9C5.41262 16.9 5.41117 16.9 5.40972 16.9C5.40827 16.9 5.40681 16.9 5.40536 16.9C5.4039 16.9 5.40245 16.9 5.40099 16.9C5.39953 16.9 5.39807 16.9 5.39661 16.9C5.39515 16.9 5.39369 16.9 5.39222 16.9C5.39076 16.9 5.38929 16.9 5.38783 16.9C5.38636 16.9 5.38489 16.9 5.38342 16.9C5.38195 16.9 5.38048 16.9 5.37901 16.9C5.37754 16.9 5.37606 16.9 5.37459 16.9C5.37311 16.9 5.37164 16.9 5.37016 16.9C5.36868 16.9 5.3672 16.9 5.36572 16.9C5.36423 16.9 5.36275 16.9 5.36127 16.9C5.35978 16.9 5.35829 16.9 5.35681 16.9C5.35532 16.9 5.35383 16.9 5.35234 16.9C5.35085 16.9 5.34935 16.9 5.34786 16.9C5.34636 16.9 5.34487 16.9 5.34337 16.9C5.34187 16.9 5.34037 16.9 5.33887 16.9C5.33737 16.9 5.33587 16.9 5.33436 16.9C5.33286 16.9 5.33135 16.9 5.32985 16.9C5.32834 16.9 5.32683 16.9 5.32532 16.9C5.32381 16.9 5.32229 16.9 5.32078 16.9C5.31926 16.9 5.31775 16.9 5.31623 16.9C5.31471 16.9 5.31319 16.9 5.31167 16.9C5.31015 16.9 5.30863 16.9 5.3071 16.9C5.30558 16.9 5.30405 16.9 5.30252 16.9C5.30099 16.9 5.29946 16.9 5.29793 16.9C5.2964 16.9 5.29486 16.9 5.29333 16.9C5.29179 16.9 5.29026 16.9 5.28872 16.9C5.28718 16.9 5.28564 16.9 5.28409 16.9C5.28255 16.9 5.28101 16.9 5.27946 16.9C5.27791 16.9 5.27637 16.9 5.27482 16.9C5.27327 16.9 5.27171 16.9 5.27016 16.9C5.2686 16.9 5.26705 16.9 5.26549 16.9C5.26393 16.9 5.26237 16.9 5.26081 16.9C5.25925 16.9 5.25769 16.9 5.25612 16.9C5.25456 16.9 5.25299 16.9 5.25142 16.9C5.24985 16.9 5.24828 16.9 5.24671 16.9C5.24513 16.9 5.24356 16.9 5.24198 16.9C5.24041 16.9 5.23883 16.9 5.23725 16.9C5.23567 16.9 5.23408 16.9 5.2325 16.9C5.23091 16.9 5.22933 16.9 5.22774 16.9C5.22615 16.9 5.22456 16.9 5.22296 16.9C5.22137 16.9 5.21978 16.9 5.21818 16.9C5.21658 16.9 5.21498 16.9 5.21338 16.9C5.21178 16.9 5.21018 16.9 5.20857 16.9C5.20697 16.9 5.20536 16.9 5.20375 16.9C5.20214 16.9 5.20053 16.9 5.19892 16.9C5.1973 16.9 5.19569 16.9 5.19407 16.9C5.19245 16.9 5.19083 16.9 5.18921 16.9C5.18759 16.9 5.18596 16.9 5.18434 16.9C5.18271 16.9 5.18108 16.9 5.17945 16.9C5.17782 16.9 5.17619 16.9 5.17456 16.9C5.17292 16.9 5.17128 16.9 5.16964 16.9C5.16801 16.9 5.16636 16.9 5.16472 16.9C5.16308 16.9 5.16143 16.9 5.15978 16.9C5.15814 16.9 5.15648 16.9 5.15483 16.9C5.15318 16.9 5.15153 16.9 5.14987 16.9C5.14821 16.9 5.14655 16.9 5.14489 16.9C5.14323 16.9 5.14157 16.9 5.1399 16.9C5.13823 16.9 5.13657 16.9 5.1349 16.9C5.13322 16.9 5.13155 16.9 5.12988 16.9C5.1282 16.9 5.12652 16.9 5.12484 16.9C5.12316 16.9 5.12148 16.9 5.1198 16.9C5.11811 16.9 5.11643 16.9 5.11474 16.9C5.11305 16.9 5.11136 16.9 5.10966 16.9C5.10797 16.9 5.10627 16.9 5.10457 16.9C5.10288 16.9 5.10118 16.9 5.09947 16.9C5.09777 16.9 5.09606 16.9 5.09435 16.9C5.09265 16.9 5.09094 16.9 5.08922 16.9C5.08751 16.9 5.08579 16.9 5.08408 16.9C5.08236 16.9 5.08064 16.9 5.07892 16.9C5.07719 16.9 5.07547 16.9 5.07374 16.9C5.07201 16.9 5.07028 16.9 5.06855 16.9C5.06682 16.9 5.06508 16.9 5.06334 16.9C5.06161 16.9 5.05987 16.9 5.05812 16.9C5.05638 16.9 5.05464 16.9 5.05289 16.9C5.05114 16.9 5.04939 16.9 5.04764 16.9C5.04589 16.9 5.04413 16.9 5.04237 16.9C5.04062 16.9 5.03885 16.9 5.03709 16.9C5.03533 16.9 5.03356 16.9 5.0318 16.9C5.03003 16.9 5.02826 16.9 5.02648 16.9C5.02471 16.9 5.02293 16.9 5.02116 16.9C5.01938 16.9 5.0176 16.9 5.01581 16.9C5.01403 16.9 5.01224 16.9 5.01045 16.9C5.00866 16.9 5.00687 16.9 5.00508 16.9C5.00328 16.9 5.00149 16.9 4.99969 16.9C4.99789 16.9 4.99608 16.9 4.99428 16.9C4.99247 16.9 4.99067 16.9 4.98886 16.9C4.98705 16.9 4.98523 16.9 4.98342 16.9C4.9816 16.9 4.97978 16.9 4.97796 16.9C4.97614 16.9 4.97431 16.9 4.97249 16.9C4.97066 16.9 4.96883 16.9 4.967 16.9C4.96517 16.9 4.96333 16.9 4.96149 16.9C4.95966 16.9 4.95781 16.9 4.95597 16.9C4.95413 16.9 4.95228 16.9 4.95043 16.9C4.94858 16.9 4.94673 16.9 4.94488 16.9C4.94302 16.9 4.94116 16.9 4.9393 16.9C4.93744 16.9 4.93558 16.9 4.93371 16.9C4.93185 16.9 4.92998 16.9 4.92811 16.9C4.92623 16.9 4.92436 16.9 4.92248 16.9C4.9206 16.9 4.91872 16.9 4.91684 16.9C4.91496 16.9 4.91307 16.9 4.91118 16.9C4.90929 16.9 4.9074 16.9 4.90551 16.9C4.90361 16.9 4.90171 16.9 4.89981 16.9C4.89791 16.9 4.89601 16.9 4.8941 16.9C4.89219 16.9 4.89028 16.9 4.88837 16.9C4.88646 16.9 4.88454 16.9 4.88262 16.9C4.8807 16.9 4.87878 16.9 4.87686 16.9C4.87493 16.9 4.873 16.9 4.87107 16.9C4.86914 16.9 4.86721 16.9 4.86527 16.9C4.86334 16.9 4.8614 16.9 4.85945 16.9C4.85751 16.9 4.85556 16.9 4.85361 16.9C4.85167 16.9 4.84971 16.9 4.84776 16.9C4.8458 16.9 4.84384 16.9 4.84188 16.9C4.83992 16.9 4.83796 16.9 4.83599 16.9C4.83402 16.9 4.83205 16.9 4.83008 16.9C4.8281 16.9 4.82613 16.9 4.82415 16.9C4.82217 16.9 4.82018 16.9 4.8182 16.9C4.81621 16.9 4.81422 16.9 4.81223 16.9C4.81024 16.9 4.80824 16.9 4.80624 16.9C4.80424 16.9 4.80224 16.9 4.80023 16.9C4.79823 16.9 4.79622 16.9 4.79421 16.9C4.7922 16.9 4.79018 16.9 4.78816 16.9C4.78614 16.9 4.78412 16.9 4.7821 16.9C4.78007 16.9 4.77805 16.9 4.77601 16.9C4.77398 16.9 4.77195 16.9 4.76991 16.9C4.76787 16.9 4.76583 16.9 4.76379 16.9C4.76174 16.9 4.7597 16.9 4.75764 16.9C4.75559 16.9 4.75354 16.9 4.75148 16.9C4.74942 16.9 4.74736 16.9 4.7453 16.9C4.74323 16.9 4.74117 16.9 4.7391 16.9C4.73703 16.9 4.73495 16.9 4.73287 16.9C4.7308 16.9 4.72871 16.9 4.72663 16.9C4.72455 16.9 4.72246 16.9 4.72037 16.9C4.71828 16.9 4.71618 16.9 4.71408 16.9C4.71199 16.9 4.70988 16.9 4.70778 16.9C4.70567 16.9 4.70357 16.9 4.70145 16.9C4.69934 16.9 4.69723 16.9 4.69511 16.9C4.69299 16.9 4.69087 16.9 4.68874 16.9C4.68662 16.9 4.68449 16.9 4.68236 16.9C4.68022 16.9 4.67809 16.9 4.67595 16.9C4.67381 16.9 4.67167 16.9 4.66952 16.9C4.66737 16.9 4.66522 16.9 4.66307 16.9C4.66092 16.9 4.65876 16.9 4.6566 16.9C4.65444 16.9 4.65227 16.9 4.65011 16.9C4.64794 16.9 4.64577 16.9 4.64359 16.9C4.64142 16.9 4.63924 16.9 4.63706 16.9C4.63488 16.9 4.63269 16.9 4.6305 16.9C4.62831 16.9 4.62612 16.9 4.62392 16.9C4.62173 16.9 4.61953 16.9 4.61732 16.9C4.61512 16.9 4.61291 16.9 4.6107 16.9C4.60849 16.9 4.60628 16.9 4.60406 16.9C4.60184 16.9 4.59962 16.9 4.59739 16.9C4.59517 16.9 4.59294 16.9 4.59071 16.9C4.58847 16.9 4.58624 16.9 4.584 16.9C4.58176 16.9 4.57951 16.9 4.57726 16.9C4.57502 16.9 4.57277 16.9 4.57051 16.9C4.56826 16.9 4.566 16.9 4.56373 16.9C4.56147 16.9 4.5592 16.9 4.55693 16.9C4.55466 16.9 4.55239 16.9 4.55011 16.9C4.54784 16.9 4.54555 16.9 4.54327 16.9C4.54098 16.9 4.53869 16.9 4.5364 16.9C4.53411 16.9 4.53181 16.9 4.52951 16.9C4.52721 16.9 4.52491 16.9 4.5226 16.9C4.52029 16.9 4.51798 16.9 4.51566 16.9C4.51335 16.9 4.51103 16.9 4.5087 16.9C4.50638 16.9 4.50405 16.9 4.50172 16.9C4.49939 16.9 4.49705 16.9 4.49471 16.9C4.49238 16.9 4.49003 16.9 4.48769 16.9C4.48534 16.9 4.48299 16.9 4.48063 16.9C4.47828 16.9 4.47592 16.9 4.47356 16.9C4.47119 16.9 4.46883 16.9 4.46646 16.9C4.46409 16.9 4.46171 16.9 4.45933 16.9C4.45696 16.9 4.45457 16.9 4.45219 16.9C4.4498 16.9 4.44741 16.9 4.44501 16.9C4.44262 16.9 4.44022 16.9 4.43782 16.9C4.43542 16.9 4.43301 16.9 4.4306 16.9C4.42819 16.9 4.42577 16.9 4.42336 16.9C4.42094 16.9 4.41851 16.9 4.41609 16.9C4.41366 16.9 4.41123 16.9 4.4088 16.9C4.40636 16.9 4.40392 16.9 4.40148 16.9C4.39904 16.9 4.39659 16.9 4.39414 16.9C4.39169 16.9 4.38923 16.9 4.38677 16.9C4.38431 16.9 4.38185 16.9 4.37938 16.9C4.37691 16.9 4.37444 16.9 4.37196 16.9C4.36949 16.9 4.36701 16.9 4.36452 16.9C4.36204 16.9 4.35955 16.9 4.35706 16.9C4.35457 16.9 4.35207 16.9 4.34957 16.9C4.34707 16.9 4.34456 16.9 4.34205 16.9C4.33954 16.9 4.33703 16.9 4.33451 16.9C4.33199 16.9 4.32947 16.9 4.32694 16.9C4.32442 16.9 4.32189 16.9 4.31935 16.9C4.31682 16.9 4.31428 16.9 4.31173 16.9C4.30919 16.9 4.30664 16.9 4.30409 16.9C4.30154 16.9 4.29898 16.9 4.29642 16.9C4.29386 16.9 4.2913 16.9 4.28873 16.9C4.28616 16.9 4.28358 16.9 4.28101 16.9C4.27843 16.9 4.27585 16.9 4.27326 16.9C4.27067 16.9 4.26808 16.9 4.26549 16.9C4.26289 16.9 4.26029 16.9 4.25769 16.9C4.25508 16.9 4.25248 16.9 4.24986 16.9C4.24725 16.9 4.24463 16.9 4.24201 16.9C4.23939 16.9 4.23676 16.9 4.23413 16.9C4.2315 16.9 4.22887 16.9 4.22623 16.9C4.22359 16.9 4.22095 16.9 4.2183 16.9C4.21565 16.9 4.213 16.9 4.21034 16.9C4.20768 16.9 4.20502 16.9 4.20236 16.9C4.19969 16.9 4.19702 16.9 4.19434 16.9C4.19167 16.9 4.18899 16.9 4.18631 16.9C4.18362 16.9 4.18093 16.9 4.17824 16.9C4.17555 16.9 4.17285 16.9 4.17015 16.9C4.16745 16.9 4.16474 16.9 4.16203 16.9C4.15932 16.9 4.1566 16.9 4.15388 16.9C4.15116 16.9 4.14844 16.9 4.14571 16.9C4.14298 16.9 4.14024 16.9 4.1375 16.9C4.13477 16.9 4.13202 16.9 4.12927 16.9C4.12653 16.9 4.12377 16.9 4.12102 16.9C4.11826 16.9 4.1155 16.9 4.11273 16.9C4.10997 16.9 4.10719 16.9 4.10442 16.9C4.10164 16.9 4.09886 16.9 4.09608 16.9C4.09329 16.9 4.0905 16.9 4.08771 16.9C4.08491 16.9 4.08211 16.9 4.07931 16.9C4.07651 16.9 4.0737 16.9 4.07089 16.9C4.06807 16.9 4.06525 16.9 4.06243 16.9C4.05961 16.9 4.05678 16.9 4.05395 16.9C4.05112 16.9 4.04828 16.9 4.04544 16.9C4.0426 16.9 4.03975 16.9 4.0369 16.9C4.03405 16.9 4.03119 16.9 4.02833 16.9C4.02547 16.9 4.02261 16.9 4.01973 16.9C4.01686 16.9 4.01399 16.9 4.01111 16.9C4.00823 16.9 4.00534 16.9 4.00245 16.9C3.99957 16.9 3.99667 16.9 3.99377 16.9C3.99087 16.9 3.98797 16.9 3.98506 16.9C3.98215 16.9 3.97924 16.9 3.97632 16.9C3.9734 16.9 3.97047 16.9 3.96755 16.9C3.96462 16.9 3.96168 16.9 3.95874 16.9C3.95581 16.9 3.95286 16.9 3.94991 16.9C3.94697 16.9 3.94401 16.9 3.94106 16.9C3.9381 16.9 3.93513 16.9 3.93217 16.9C3.9292 16.9 3.92622 16.9 3.92325 16.9C3.92027 16.9 3.91729 16.9 3.9143 16.9C3.91131 16.9 3.90832 16.9 3.90532 16.9C3.90232 16.9 3.89932 16.9 3.89631 16.9C3.8933 16.9 3.89029 16.9 3.88727 16.9C3.88425 16.9 3.88123 16.9 3.8782 16.9C3.87517 16.9 3.87214 16.9 3.8691 16.9C3.86606 16.9 3.86302 16.9 3.85997 16.9C3.85692 16.9 3.85387 16.9 3.85081 16.9C3.84775 16.9 3.84469 16.9 3.84162 16.9C3.83855 16.9 3.83548 16.9 3.8324 16.9C3.82932 16.9 3.82624 16.9 3.82315 16.9C3.82006 16.9 3.81696 16.9 3.81386 16.9C3.81077 16.9 3.80766 16.9 3.80455 16.9C3.80144 16.9 3.79833 16.9 3.79521 16.9C3.79209 16.9 3.78896 16.9 3.78583 16.9C3.7827 16.9 3.77956 16.9 3.77642 16.9C3.77328 16.9 3.77014 16.9 3.76698 16.9C3.76383 16.9 3.76068 16.9 3.75751 16.9C3.75435 16.9 3.75119 16.9 3.74801 16.9C3.74484 16.9 3.74166 16.9 3.73848 16.9C3.7353 16.9 3.73211 16.9 3.72892 16.9C3.72572 16.9 3.72252 16.9 3.71932 16.9C3.71612 16.9 3.71291 16.9 3.70969 16.9C3.70648 16.9 3.70326 16.9 3.70003 16.9C3.69681 16.9 3.69358 16.9 3.69034 16.9C3.6871 16.9 3.68386 16.9 3.68062 16.9C3.67737 16.9 3.67412 16.9 3.67086 16.9C3.6676 16.9 3.66434 16.9 3.66107 16.9C3.6578 16.9 3.65453 16.9 3.65125 16.9C3.64797 16.9 3.64469 16.9 3.6414 16.9C3.63811 16.9 3.63481 16.9 3.63151 16.9C3.62821 16.9 3.62491 16.9 3.62159 16.9C3.61828 16.9 3.61497 16.9 3.61164 16.9C3.60832 16.9 3.60499 16.9 3.60166 16.9C3.59833 16.9 3.59499 16.9 3.59164 16.9C3.5883 16.9 3.58495 16.9 3.58159 16.9C3.57824 16.9 3.57488 16.9 3.57151 16.9C3.56814 16.9 3.56477 16.9 3.5614 16.9C3.55802 16.9 3.55464 16.9 3.55125 16.9C3.54786 16.9 3.54446 16.9 3.54106 16.9C3.53766 16.9 3.53426 16.9 3.53085 16.9C3.52744 16.9 3.52402 16.9 3.5206 16.9C3.51718 16.9 3.51375 16.9 3.51032 16.9C3.50688 16.9 3.50344 16.9 3.5 16.9V17.9ZM17.4706 17.9C17.4724 17.9 17.4741 17.9 17.4759 17.9C17.4776 17.9 17.4794 17.9 17.4811 17.9C17.4828 17.9 17.4846 17.9 17.4863 17.9C17.4881 17.9 17.4898 17.9 17.4915 17.9C17.4933 17.9 17.495 17.9 17.4967 17.9C17.4984 17.9 17.5002 17.9 17.5019 17.9C17.5036 17.9 17.5053 17.9 17.5071 17.9C17.5088 17.9 17.5105 17.9 17.5122 17.9C17.5139 17.9 17.5156 17.9 17.5174 17.9C17.5191 17.9 17.5208 17.9 17.5225 17.9C17.5242 17.9 17.5259 17.9 17.5276 17.9C17.5293 17.9 17.531 17.9 17.5327 17.9C17.5344 17.9 17.5361 17.9 17.5378 17.9C17.5395 17.9 17.5412 17.9 17.5429 17.9C17.5446 17.9 17.5463 17.9 17.548 17.9C17.5497 17.9 17.5513 17.9 17.553 17.9C17.5547 17.9 17.5564 17.9 17.5581 17.9C17.5598 17.9 17.5614 17.9 17.5631 17.9C17.5648 17.9 17.5665 17.9 17.5681 17.9C17.5698 17.9 17.5715 17.9 17.5732 17.9C17.5748 17.9 17.5765 17.9 17.5782 17.9C17.5798 17.9 17.5815 17.9 17.5832 17.9C17.5848 17.9 17.5865 17.9 17.5881 17.9C17.5898 17.9 17.5915 17.9 17.5931 17.9C17.5948 17.9 17.5964 17.9 17.5981 17.9C17.5997 17.9 17.6014 17.9 17.603 17.9C17.6047 17.9 17.6063 17.9 17.608 17.9C17.6096 17.9 17.6113 17.9 17.6129 17.9C17.6146 17.9 17.6162 17.9 17.6178 17.9C17.6195 17.9 17.6211 17.9 17.6227 17.9C17.6244 17.9 17.626 17.9 17.6276 17.9C17.6293 17.9 17.6309 17.9 17.6325 17.9C17.6342 17.9 17.6358 17.9 17.6374 17.9C17.6391 17.9 17.6407 17.9 17.6423 17.9C17.6439 17.9 17.6455 17.9 17.6472 17.9C17.6488 17.9 17.6504 17.9 17.652 17.9C17.6536 17.9 17.6552 17.9 17.6569 17.9C17.6585 17.9 17.6601 17.9 17.6617 17.9C17.6633 17.9 17.6649 17.9 17.6665 17.9C17.6681 17.9 17.6697 17.9 17.6713 17.9C17.6729 17.9 17.6745 17.9 17.6761 17.9C17.6777 17.9 17.6793 17.9 17.6809 17.9C17.6825 17.9 17.6841 17.9 17.6857 17.9C17.6873 17.9 17.6889 17.9 17.6905 17.9C17.6921 17.9 17.6937 17.9 17.6953 17.9C17.6969 17.9 17.6985 17.9 17.7001 17.9C17.7016 17.9 17.7032 17.9 17.7048 17.9C17.7064 17.9 17.708 17.9 17.7096 17.9C17.7111 17.9 17.7127 17.9 17.7143 17.9C17.7159 17.9 17.7175 17.9 17.719 17.9C17.7206 17.9 17.7222 17.9 17.7237 17.9C17.7253 17.9 17.7269 17.9 17.7285 17.9C17.73 17.9 17.7316 17.9 17.7332 17.9C17.7347 17.9 17.7363 17.9 17.7379 17.9C17.7394 17.9 17.741 17.9 17.7426 17.9C17.7441 17.9 17.7457 17.9 17.7472 17.9C17.7488 17.9 17.7504 17.9 17.7519 17.9C17.7535 17.9 17.755 17.9 17.7566 17.9C17.7581 17.9 17.7597 17.9 17.7612 17.9C17.7628 17.9 17.7643 17.9 17.7659 17.9C17.7674 17.9 17.769 17.9 17.7705 17.9C17.7721 17.9 17.7736 17.9 17.7752 17.9C17.7767 17.9 17.7783 17.9 17.7798 17.9C17.7814 17.9 17.7829 17.9 17.7844 17.9C17.786 17.9 17.7875 17.9 17.7891 17.9C17.7906 17.9 17.7921 17.9 17.7937 17.9C17.7952 17.9 17.7967 17.9 17.7983 17.9C17.7998 17.9 17.8013 17.9 17.8029 17.9C17.8044 17.9 17.8059 17.9 17.8075 17.9C17.809 17.9 17.8105 17.9 17.812 17.9C17.8136 17.9 17.8151 17.9 17.8166 17.9C17.8181 17.9 17.8197 17.9 17.8212 17.9C17.8227 17.9 17.8242 17.9 17.8258 17.9C17.8273 17.9 17.8288 17.9 17.8303 17.9C17.8318 17.9 17.8333 17.9 17.8349 17.9C17.8364 17.9 17.8379 17.9 17.8394 17.9C17.8409 17.9 17.8424 17.9 17.844 17.9C17.8455 17.9 17.847 17.9 17.8485 17.9C17.85 17.9 17.8515 17.9 17.853 17.9C17.8545 17.9 17.856 17.9 17.8575 17.9C17.859 17.9 17.8606 17.9 17.8621 17.9C17.8636 17.9 17.8651 17.9 17.8666 17.9C17.8681 17.9 17.8696 17.9 17.8711 17.9C17.8726 17.9 17.8741 17.9 17.8756 17.9C17.8771 17.9 17.8786 17.9 17.8801 17.9C17.8816 17.9 17.8831 17.9 17.8846 17.9C17.8861 17.9 17.8876 17.9 17.8891 17.9C17.8906 17.9 17.892 17.9 17.8935 17.9C17.895 17.9 17.8965 17.9 17.898 17.9C17.8995 17.9 17.901 17.9 17.9025 17.9C17.904 17.9 17.9055 17.9 17.907 17.9C17.9085 17.9 17.9099 17.9 17.9114 17.9C17.9129 17.9 17.9144 17.9 17.9159 17.9C17.9174 17.9 17.9189 17.9 17.9203 17.9C17.9218 17.9 17.9233 17.9 17.9248 17.9C17.9263 17.9 17.9278 17.9 17.9292 17.9C17.9307 17.9 17.9322 17.9 17.9337 17.9C17.9352 17.9 17.9366 17.9 17.9381 17.9C17.9396 17.9 17.9411 17.9 17.9426 17.9C17.944 17.9 17.9455 17.9 17.947 17.9C17.9485 17.9 17.9499 17.9 17.9514 17.9C17.9529 17.9 17.9544 17.9 17.9558 17.9C17.9573 17.9 17.9588 17.9 17.9603 17.9C17.9617 17.9 17.9632 17.9 17.9647 17.9C17.9662 17.9 17.9676 17.9 17.9691 17.9C17.9706 17.9 17.972 17.9 17.9735 17.9C17.975 17.9 17.9764 17.9 17.9779 17.9C17.9794 17.9 17.9808 17.9 17.9823 17.9C17.9838 17.9 17.9852 17.9 17.9867 17.9C17.9882 17.9 17.9896 17.9 17.9911 17.9C17.9926 17.9 17.994 17.9 17.9955 17.9C17.997 17.9 17.9984 17.9 17.9999 17.9C18.0014 17.9 18.0028 17.9 18.0043 17.9C18.0058 17.9 18.0072 17.9 18.0087 17.9C18.0101 17.9 18.0116 17.9 18.0131 17.9C18.0145 17.9 18.016 17.9 18.0174 17.9C18.0189 17.9 18.0204 17.9 18.0218 17.9C18.0233 17.9 18.0247 17.9 18.0262 17.9C18.0277 17.9 18.0291 17.9 18.0306 17.9C18.032 17.9 18.0335 17.9 18.035 17.9C18.0364 17.9 18.0379 17.9 18.0393 17.9C18.0408 17.9 18.0422 17.9 18.0437 17.9C18.0452 17.9 18.0466 17.9 18.0481 17.9C18.0495 17.9 18.051 17.9 18.0524 17.9C18.0539 17.9 18.0553 17.9 18.0568 17.9C18.0583 17.9 18.0597 17.9 18.0612 17.9C18.0626 17.9 18.0641 17.9 18.0655 17.9C18.067 17.9 18.0684 17.9 18.0699 17.9C18.0713 17.9 18.0728 17.9 18.0743 17.9C18.0757 17.9 18.0772 17.9 18.0786 17.9C18.0801 17.9 18.0815 17.9 18.083 17.9C18.0844 17.9 18.0859 17.9 18.0873 17.9C18.0888 17.9 18.0902 17.9 18.0917 17.9C18.0931 17.9 18.0946 17.9 18.096 17.9C18.0975 17.9 18.0989 17.9 18.1004 17.9C18.1018 17.9 18.1033 17.9 18.1047 17.9C18.1062 17.9 18.1077 17.9 18.1091 17.9C18.1106 17.9 18.112 17.9 18.1135 17.9C18.1149 17.9 18.1164 17.9 18.1178 17.9C18.1193 17.9 18.1207 17.9 18.1222 17.9C18.1236 17.9 18.1251 17.9 18.1265 17.9C18.128 17.9 18.1294 17.9 18.1309 17.9C18.1323 17.9 18.1338 17.9 18.1352 17.9C18.1367 17.9 18.1381 17.9 18.1396 17.9C18.141 17.9 18.1425 17.9 18.1439 17.9C18.1454 17.9 18.1468 17.9 18.1483 17.9C18.1497 17.9 18.1512 17.9 18.1526 17.9C18.1541 17.9 18.1555 17.9 18.157 17.9C18.1584 17.9 18.1599 17.9 18.1613 17.9C18.1628 17.9 18.1642 17.9 18.1657 17.9C18.1672 17.9 18.1686 17.9 18.1701 17.9C18.1715 17.9 18.173 17.9 18.1744 17.9C18.1759 17.9 18.1773 17.9 18.1788 17.9C18.1802 17.9 18.1817 17.9 18.1831 17.9C18.1846 17.9 18.186 17.9 18.1875 17.9C18.1889 17.9 18.1904 17.9 18.1919 17.9C18.1933 17.9 18.1948 17.9 18.1962 17.9C18.1977 17.9 18.1991 17.9 18.2006 17.9C18.202 17.9 18.2035 17.9 18.205 17.9C18.2064 17.9 18.2079 17.9 18.2093 17.9C18.2108 17.9 18.2122 17.9 18.2137 17.9C18.2151 17.9 18.2166 17.9 18.2181 17.9C18.2195 17.9 18.221 17.9 18.2224 17.9C18.2239 17.9 18.2253 17.9 18.2268 17.9C18.2283 17.9 18.2297 17.9 18.2312 17.9C18.2326 17.9 18.2341 17.9 18.2356 17.9C18.237 17.9 18.2385 17.9 18.2399 17.9C18.2414 17.9 18.2429 17.9 18.2443 17.9C18.2458 17.9 18.2472 17.9 18.2487 17.9C18.2502 17.9 18.2516 17.9 18.2531 17.9C18.2546 17.9 18.256 17.9 18.2575 17.9C18.259 17.9 18.2604 17.9 18.2619 17.9C18.2633 17.9 18.2648 17.9 18.2663 17.9C18.2677 17.9 18.2692 17.9 18.2707 17.9C18.2721 17.9 18.2736 17.9 18.2751 17.9C18.2765 17.9 18.278 17.9 18.2795 17.9C18.281 17.9 18.2824 17.9 18.2839 17.9C18.2854 17.9 18.2868 17.9 18.2883 17.9C18.2898 17.9 18.2912 17.9 18.2927 17.9C18.2942 17.9 18.2957 17.9 18.2971 17.9C18.2986 17.9 18.3001 17.9 18.3016 17.9C18.303 17.9 18.3045 17.9 18.306 17.9C18.3075 17.9 18.3089 17.9 18.3104 17.9C18.3119 17.9 18.3134 17.9 18.3148 17.9C18.3163 17.9 18.3178 17.9 18.3193 17.9C18.3208 17.9 18.3222 17.9 18.3237 17.9C18.3252 17.9 18.3267 17.9 18.3282 17.9C18.3296 17.9 18.3311 17.9 18.3326 17.9C18.3341 17.9 18.3356 17.9 18.3371 17.9C18.3386 17.9 18.34 17.9 18.3415 17.9C18.343 17.9 18.3445 17.9 18.346 17.9C18.3475 17.9 18.349 17.9 18.3504 17.9C18.3519 17.9 18.3534 17.9 18.3549 17.9C18.3564 17.9 18.3579 17.9 18.3594 17.9C18.3609 17.9 18.3624 17.9 18.3639 17.9C18.3654 17.9 18.3669 17.9 18.3684 17.9C18.3699 17.9 18.3713 17.9 18.3728 17.9C18.3743 17.9 18.3758 17.9 18.3773 17.9C18.3788 17.9 18.3803 17.9 18.3818 17.9C18.3833 17.9 18.3848 17.9 18.3863 17.9C18.3878 17.9 18.3893 17.9 18.3908 17.9C18.3924 17.9 18.3939 17.9 18.3954 17.9C18.3969 17.9 18.3984 17.9 18.3999 17.9C18.4014 17.9 18.4029 17.9 18.4044 17.9C18.4059 17.9 18.4074 17.9 18.4089 17.9C18.4104 17.9 18.412 17.9 18.4135 17.9C18.415 17.9 18.4165 17.9 18.418 17.9C18.4195 17.9 18.421 17.9 18.4226 17.9C18.4241 17.9 18.4256 17.9 18.4271 17.9C18.4286 17.9 18.4302 17.9 18.4317 17.9C18.4332 17.9 18.4347 17.9 18.4362 17.9C18.4378 17.9 18.4393 17.9 18.4408 17.9C18.4423 17.9 18.4439 17.9 18.4454 17.9C18.4469 17.9 18.4485 17.9 18.45 17.9C18.4515 17.9 18.453 17.9 18.4546 17.9C18.4561 17.9 18.4576 17.9 18.4592 17.9C18.4607 17.9 18.4622 17.9 18.4638 17.9C18.4653 17.9 18.4669 17.9 18.4684 17.9C18.4699 17.9 18.4715 17.9 18.473 17.9C18.4746 17.9 18.4761 17.9 18.4776 17.9C18.4792 17.9 18.4807 17.9 18.4823 17.9C18.4838 17.9 18.4854 17.9 18.4869 17.9C18.4885 17.9 18.49 17.9 18.4916 17.9C18.4931 17.9 18.4947 17.9 18.4962 17.9C18.4978 17.9 18.4993 17.9 18.5009 17.9C18.5024 17.9 18.504 17.9 18.5055 17.9C18.5071 17.9 18.5087 17.9 18.5102 17.9C18.5118 17.9 18.5133 17.9 18.5149 17.9C18.5165 17.9 18.518 17.9 18.5196 17.9C18.5212 17.9 18.5227 17.9 18.5243 17.9C18.5259 17.9 18.5274 17.9 18.529 17.9C18.5306 17.9 18.5321 17.9 18.5337 17.9C18.5353 17.9 18.5369 17.9 18.5384 17.9C18.54 17.9 18.5416 17.9 18.5432 17.9C18.5448 17.9 18.5463 17.9 18.5479 17.9C18.5495 17.9 18.5511 17.9 18.5527 17.9C18.5542 17.9 18.5558 17.9 18.5574 17.9C18.559 17.9 18.5606 17.9 18.5622 17.9C18.5638 17.9 18.5654 17.9 18.567 17.9C18.5686 17.9 18.5702 17.9 18.5717 17.9C18.5733 17.9 18.5749 17.9 18.5765 17.9C18.5781 17.9 18.5797 17.9 18.5813 17.9C18.5829 17.9 18.5845 17.9 18.5861 17.9C18.5878 17.9 18.5894 17.9 18.591 17.9C18.5926 17.9 18.5942 17.9 18.5958 17.9C18.5974 17.9 18.599 17.9 18.6006 17.9C18.6022 17.9 18.6039 17.9 18.6055 17.9C18.6071 17.9 18.6087 17.9 18.6103 17.9C18.612 17.9 18.6136 17.9 18.6152 17.9C18.6168 17.9 18.6185 17.9 18.6201 17.9C18.6217 17.9 18.6233 17.9 18.625 17.9C18.6266 17.9 18.6282 17.9 18.6299 17.9C18.6315 17.9 18.6331 17.9 18.6348 17.9C18.6364 17.9 18.638 17.9 18.6397 17.9C18.6413 17.9 18.643 17.9 18.6446 17.9C18.6462 17.9 18.6479 17.9 18.6495 17.9C18.6512 17.9 18.6528 17.9 18.6545 17.9C18.6561 17.9 18.6578 17.9 18.6594 17.9C18.6611 17.9 18.6627 17.9 18.6644 17.9C18.6661 17.9 18.6677 17.9 18.6694 17.9C18.671 17.9 18.6727 17.9 18.6744 17.9C18.676 17.9 18.6777 17.9 18.6794 17.9C18.681 17.9 18.6827 17.9 18.6844 17.9C18.686 17.9 18.6877 17.9 18.6894 17.9C18.6911 17.9 18.6927 17.9 18.6944 17.9C18.6961 17.9 18.6978 17.9 18.6995 17.9C18.7011 17.9 18.7028 17.9 18.7045 17.9C18.7062 17.9 18.7079 17.9 18.7096 17.9C18.7113 17.9 18.713 17.9 18.7147 17.9C18.7164 17.9 18.718 17.9 18.7197 17.9C18.7214 17.9 18.7231 17.9 18.7248 17.9C18.7265 17.9 18.7282 17.9 18.73 17.9C18.7317 17.9 18.7334 17.9 18.7351 17.9C18.7368 17.9 18.7385 17.9 18.7402 17.9C18.7419 17.9 18.7436 17.9 18.7454 17.9C18.7471 17.9 18.7488 17.9 18.7505 17.9C18.7522 17.9 18.754 17.9 18.7557 17.9C18.7574 17.9 18.7591 17.9 18.7609 17.9C18.7626 17.9 18.7643 17.9 18.7661 17.9C18.7678 17.9 18.7695 17.9 18.7713 17.9C18.773 17.9 18.7747 17.9 18.7765 17.9C18.7782 17.9 18.78 17.9 18.7817 17.9C18.7835 17.9 18.7852 17.9 18.787 17.9C18.7887 17.9 18.7905 17.9 18.7922 17.9C18.794 17.9 18.7957 17.9 18.7975 17.9C18.7992 17.9 18.801 17.9 18.8028 17.9C18.8045 17.9 18.8063 17.9 18.8081 17.9C18.8098 17.9 18.8116 17.9 18.8134 17.9C18.8151 17.9 18.8169 17.9 18.8187 17.9C18.8205 17.9 18.8222 17.9 18.824 17.9C18.8258 17.9 18.8276 17.9 18.8294 17.9C18.8311 17.9 18.8329 17.9 18.8347 17.9C18.8365 17.9 18.8383 17.9 18.8401 17.9C18.8419 17.9 18.8437 17.9 18.8455 17.9C18.8473 17.9 18.8491 17.9 18.8509 17.9C18.8527 17.9 18.8545 17.9 18.8563 17.9C18.8581 17.9 18.8599 17.9 18.8617 17.9C18.8635 17.9 18.8654 17.9 18.8672 17.9C18.869 17.9 18.8708 17.9 18.8726 17.9C18.8744 17.9 18.8763 17.9 18.8781 17.9C18.8799 17.9 18.8817 17.9 18.8836 17.9C18.8854 17.9 18.8872 17.9 18.8891 17.9C18.8909 17.9 18.8927 17.9 18.8946 17.9C18.8964 17.9 18.8983 17.9 18.9001 17.9C18.902 17.9 18.9038 17.9 18.9057 17.9C18.9075 17.9 18.9094 17.9 18.9112 17.9C18.9131 17.9 18.9149 17.9 18.9168 17.9C18.9186 17.9 18.9205 17.9 18.9224 17.9C18.9242 17.9 18.9261 17.9 18.928 17.9C18.9298 17.9 18.9317 17.9 18.9336 17.9C18.9355 17.9 18.9373 17.9 18.9392 17.9C18.9411 17.9 18.943 17.9 18.9449 17.9C18.9468 17.9 18.9486 17.9 18.9505 17.9C18.9524 17.9 18.9543 17.9 18.9562 17.9C18.9581 17.9 18.96 17.9 18.9619 17.9C18.9638 17.9 18.9657 17.9 18.9676 17.9C18.9695 17.9 18.9714 17.9 18.9733 17.9C18.9752 17.9 18.9772 17.9 18.9791 17.9C18.981 17.9 18.9829 17.9 18.9848 17.9C18.9868 17.9 18.9887 17.9 18.9906 17.9C18.9925 17.9 18.9945 17.9 18.9964 17.9C18.9983 17.9 19.0003 17.9 19.0022 17.9C19.0041 17.9 19.0061 17.9 19.008 17.9C19.01 17.9 19.0119 17.9 19.0138 17.9C19.0158 17.9 19.0177 17.9 19.0197 17.9C19.0217 17.9 19.0236 17.9 19.0256 17.9C19.0275 17.9 19.0295 17.9 19.0315 17.9C19.0334 17.9 19.0354 17.9 19.0374 17.9C19.0393 17.9 19.0413 17.9 19.0433 17.9C19.0452 17.9 19.0472 17.9 19.0492 17.9C19.0512 17.9 19.0532 17.9 19.0552 17.9C19.0571 17.9 19.0591 17.9 19.0611 17.9C19.0631 17.9 19.0651 17.9 19.0671 17.9C19.0691 17.9 19.0711 17.9 19.0731 17.9C19.0751 17.9 19.0771 17.9 19.0791 17.9C19.0811 17.9 19.0832 17.9 19.0852 17.9C19.0872 17.9 19.0892 17.9 19.0912 17.9C19.0932 17.9 19.0953 17.9 19.0973 17.9C19.0993 17.9 19.1014 17.9 19.1034 17.9C19.1054 17.9 19.1075 17.9 19.1095 17.9C19.1115 17.9 19.1136 17.9 19.1156 17.9C19.1177 17.9 19.1197 17.9 19.1218 17.9C19.1238 17.9 19.1259 17.9 19.1279 17.9C19.13 17.9 19.132 17.9 19.1341 17.9C19.1362 17.9 19.1382 17.9 19.1403 17.9C19.1424 17.9 19.1444 17.9 19.1465 17.9C19.1486 17.9 19.1507 17.9 19.1528 17.9C19.1548 17.9 19.1569 17.9 19.159 17.9C19.1611 17.9 19.1632 17.9 19.1653 17.9C19.1674 17.9 19.1695 17.9 19.1716 17.9C19.1737 17.9 19.1758 17.9 19.1779 17.9C19.18 17.9 19.1821 17.9 19.1842 17.9C19.1863 17.9 19.1884 17.9 19.1905 17.9C19.1927 17.9 19.1948 17.9 19.1969 17.9C19.199 17.9 19.2012 17.9 19.2033 17.9C19.2054 17.9 19.2076 17.9 19.2097 17.9C19.2118 17.9 19.214 17.9 19.2161 17.9C19.2183 17.9 19.2204 17.9 19.2226 17.9C19.2247 17.9 19.2269 17.9 19.229 17.9C19.2312 17.9 19.2333 17.9 19.2355 17.9C19.2377 17.9 19.2398 17.9 19.242 17.9C19.2442 17.9 19.2463 17.9 19.2485 17.9C19.2507 17.9 19.2529 17.9 19.2551 17.9C19.2572 17.9 19.2594 17.9 19.2616 17.9C19.2638 17.9 19.266 17.9 19.2682 17.9C19.2704 17.9 19.2726 17.9 19.2748 17.9C19.277 17.9 19.2792 17.9 19.2814 17.9C19.2836 17.9 19.2858 17.9 19.288 17.9C19.2903 17.9 19.2925 17.9 19.2947 17.9C19.2969 17.9 19.2992 17.9 19.3014 17.9C19.3036 17.9 19.3058 17.9 19.3081 17.9C19.3103 17.9 19.3126 17.9 19.3148 17.9C19.317 17.9 19.3193 17.9 19.3215 17.9C19.3238 17.9 19.326 17.9 19.3283 17.9C19.3306 17.9 19.3328 17.9 19.3351 17.9C19.3373 17.9 19.3396 17.9 19.3419 17.9C19.3442 17.9 19.3464 17.9 19.3487 17.9C19.351 17.9 19.3533 17.9 19.3556 17.9C19.3578 17.9 19.3601 17.9 19.3624 17.9C19.3647 17.9 19.367 17.9 19.3693 17.9C19.3716 17.9 19.3739 17.9 19.3762 17.9C19.3785 17.9 19.3808 17.9 19.3831 17.9C19.3855 17.9 19.3878 17.9 19.3901 17.9C19.3924 17.9 19.3947 17.9 19.3971 17.9C19.3994 17.9 19.4017 17.9 19.4041 17.9C19.4064 17.9 19.4087 17.9 19.4111 17.9C19.4134 17.9 19.4158 17.9 19.4181 17.9C19.4205 17.9 19.4228 17.9 19.4252 17.9C19.4275 17.9 19.4299 17.9 19.4323 17.9C19.4346 17.9 19.437 17.9 19.4394 17.9C19.4417 17.9 19.4441 17.9 19.4465 17.9C19.4489 17.9 19.4513 17.9 19.4536 17.9C19.456 17.9 19.4584 17.9 19.4608 17.9C19.4632 17.9 19.4656 17.9 19.468 17.9C19.4704 17.9 19.4728 17.9 19.4752 17.9C19.4776 17.9 19.4801 17.9 19.4825 17.9C19.4849 17.9 19.4873 17.9 19.4897 17.9C19.4922 17.9 19.4946 17.9 19.497 17.9C19.4995 17.9 19.5019 17.9 19.5043 17.9C19.5068 17.9 19.5092 17.9 19.5117 17.9C19.5141 17.9 19.5166 17.9 19.519 17.9C19.5215 17.9 19.5239 17.9 19.5264 17.9C19.5289 17.9 19.5313 17.9 19.5338 17.9C19.5363 17.9 19.5387 17.9 19.5412 17.9C19.5437 17.9 19.5462 17.9 19.5487 17.9C19.5511 17.9 19.5536 17.9 19.5561 17.9C19.5586 17.9 19.5611 17.9 19.5636 17.9C19.5661 17.9 19.5686 17.9 19.5711 17.9C19.5737 17.9 19.5762 17.9 19.5787 17.9C19.5812 17.9 19.5837 17.9 19.5863 17.9C19.5888 17.9 19.5913 17.9 19.5938 17.9C19.5964 17.9 19.5989 17.9 19.6015 17.9C19.604 17.9 19.6066 17.9 19.6091 17.9C19.6117 17.9 19.6142 17.9 19.6168 17.9C19.6193 17.9 19.6219 17.9 19.6245 17.9C19.627 17.9 19.6296 17.9 19.6322 17.9C19.6347 17.9 19.6373 17.9 19.6399 17.9C19.6425 17.9 19.6451 17.9 19.6477 17.9C19.6503 17.9 19.6528 17.9 19.6554 17.9C19.658 17.9 19.6607 17.9 19.6633 17.9C19.6659 17.9 19.6685 17.9 19.6711 17.9C19.6737 17.9 19.6763 17.9 19.679 17.9C19.6816 17.9 19.6842 17.9 19.6868 17.9C19.6895 17.9 19.6921 17.9 19.6947 17.9C19.6974 17.9 19.7 17.9 19.7027 17.9C19.7053 17.9 19.708 17.9 19.7106 17.9C19.7133 17.9 19.716 17.9 19.7186 17.9C19.7213 17.9 19.724 17.9 19.7266 17.9C19.7293 17.9 19.732 17.9 19.7347 17.9C19.7374 17.9 19.7401 17.9 19.7427 17.9C19.7454 17.9 19.7481 17.9 19.7508 17.9C19.7535 17.9 19.7562 17.9 19.759 17.9C19.7617 17.9 19.7644 17.9 19.7671 17.9C19.7698 17.9 19.7725 17.9 19.7753 17.9C19.778 17.9 19.7807 17.9 19.7835 17.9C19.7862 17.9 19.7889 17.9 19.7917 17.9C19.7944 17.9 19.7972 17.9 19.7999 17.9C19.8027 17.9 19.8054 17.9 19.8082 17.9C19.811 17.9 19.8137 17.9 19.8165 17.9C19.8193 17.9 19.822 17.9 19.8248 17.9C19.8276 17.9 19.8304 17.9 19.8332 17.9C19.836 17.9 19.8388 17.9 19.8416 17.9C19.8443 17.9 19.8472 17.9 19.85 17.9C19.8528 17.9 19.8556 17.9 19.8584 17.9C19.8612 17.9 19.864 17.9 19.8668 17.9C19.8697 17.9 19.8725 17.9 19.8753 17.9C19.8782 17.9 19.881 17.9 19.8839 17.9C19.8867 17.9 19.8895 17.9 19.8924 17.9C19.8952 17.9 19.8981 17.9 19.901 17.9C19.9038 17.9 19.9067 17.9 19.9096 17.9C19.9124 17.9 19.9153 17.9 19.9182 17.9C19.9211 17.9 19.9239 17.9 19.9268 17.9C19.9297 17.9 19.9326 17.9 19.9355 17.9C19.9384 17.9 19.9413 17.9 19.9442 17.9C19.9471 17.9 19.95 17.9 19.953 17.9C19.9559 17.9 19.9588 17.9 19.9617 17.9C19.9646 17.9 19.9676 17.9 19.9705 17.9C19.9735 17.9 19.9764 17.9 19.9793 17.9C19.9823 17.9 19.9852 17.9 19.9882 17.9C19.9911 17.9 19.9941 17.9 19.9971 17.9C20 17.9 20.003 17.9 20.006 17.9C20.0089 17.9 20.0119 17.9 20.0149 17.9C20.0179 17.9 20.0209 17.9 20.0239 17.9C20.0269 17.9 20.0299 17.9 20.0329 17.9C20.0359 17.9 20.0389 17.9 20.0419 17.9C20.0449 17.9 20.0479 17.9 20.0509 17.9C20.0539 17.9 20.057 17.9 20.06 17.9C20.063 17.9 20.0661 17.9 20.0691 17.9C20.0721 17.9 20.0752 17.9 20.0782 17.9C20.0813 17.9 20.0844 17.9 20.0874 17.9C20.0905 17.9 20.0935 17.9 20.0966 17.9C20.0997 17.9 20.1027 17.9 20.1058 17.9C20.1089 17.9 20.112 17.9 20.1151 17.9C20.1182 17.9 20.1213 17.9 20.1244 17.9C20.1275 17.9 20.1306 17.9 20.1337 17.9C20.1368 17.9 20.1399 17.9 20.143 17.9C20.1461 17.9 20.1493 17.9 20.1524 17.9C20.1555 17.9 20.1587 17.9 20.1618 17.9C20.1649 17.9 20.1681 17.9 20.1712 17.9C20.1744 17.9 20.1775 17.9 20.1807 17.9C20.1839 17.9 20.187 17.9 20.1902 17.9C20.1934 17.9 20.1965 17.9 20.1997 17.9C20.2029 17.9 20.2061 17.9 20.2093 17.9C20.2125 17.9 20.2157 17.9 20.2189 17.9C20.2221 17.9 20.2253 17.9 20.2285 17.9C20.2317 17.9 20.2349 17.9 20.2381 17.9C20.2413 17.9 20.2446 17.9 20.2478 17.9C20.251 17.9 20.2543 17.9 20.2575 17.9C20.2607 17.9 20.264 17.9 20.2672 17.9C20.2705 17.9 20.2737 17.9 20.277 17.9C20.2803 17.9 20.2835 17.9 20.2868 17.9C20.2901 17.9 20.2934 17.9 20.2966 17.9C20.2999 17.9 20.3032 17.9 20.3065 17.9C20.3098 17.9 20.3131 17.9 20.3164 17.9C20.3197 17.9 20.323 17.9 20.3263 17.9C20.3296 17.9 20.333 17.9 20.3363 17.9C20.3396 17.9 20.3429 17.9 20.3463 17.9C20.3496 17.9 20.353 17.9 20.3563 17.9C20.3596 17.9 20.363 17.9 20.3664 17.9C20.3697 17.9 20.3731 17.9 20.3764 17.9C20.3798 17.9 20.3832 17.9 20.3866 17.9C20.3899 17.9 20.3933 17.9 20.3967 17.9C20.4001 17.9 20.4035 17.9 20.4069 17.9C20.4103 17.9 20.4137 17.9 20.4171 17.9C20.4205 17.9 20.4239 17.9 20.4274 17.9C20.4308 17.9 20.4342 17.9 20.4376 17.9C20.4411 17.9 20.4445 17.9 20.4479 17.9C20.4514 17.9 20.4548 17.9 20.4583 17.9C20.4617 17.9 20.4652 17.9 20.4687 17.9C20.4721 17.9 20.4756 17.9 20.4791 17.9C20.4826 17.9 20.486 17.9 20.4895 17.9C20.493 17.9 20.4965 17.9 20.5 17.9V16.9C20.4965 16.9 20.493 16.9 20.4895 16.9C20.486 16.9 20.4826 16.9 20.4791 16.9C20.4756 16.9 20.4721 16.9 20.4687 16.9C20.4652 16.9 20.4617 16.9 20.4583 16.9C20.4548 16.9 20.4514 16.9 20.4479 16.9C20.4445 16.9 20.4411 16.9 20.4376 16.9C20.4342 16.9 20.4308 16.9 20.4274 16.9C20.4239 16.9 20.4205 16.9 20.4171 16.9C20.4137 16.9 20.4103 16.9 20.4069 16.9C20.4035 16.9 20.4001 16.9 20.3967 16.9C20.3933 16.9 20.3899 16.9 20.3866 16.9C20.3832 16.9 20.3798 16.9 20.3764 16.9C20.3731 16.9 20.3697 16.9 20.3664 16.9C20.363 16.9 20.3596 16.9 20.3563 16.9C20.353 16.9 20.3496 16.9 20.3463 16.9C20.3429 16.9 20.3396 16.9 20.3363 16.9C20.333 16.9 20.3296 16.9 20.3263 16.9C20.323 16.9 20.3197 16.9 20.3164 16.9C20.3131 16.9 20.3098 16.9 20.3065 16.9C20.3032 16.9 20.2999 16.9 20.2966 16.9C20.2934 16.9 20.2901 16.9 20.2868 16.9C20.2835 16.9 20.2803 16.9 20.277 16.9C20.2737 16.9 20.2705 16.9 20.2672 16.9C20.264 16.9 20.2607 16.9 20.2575 16.9C20.2543 16.9 20.251 16.9 20.2478 16.9C20.2446 16.9 20.2413 16.9 20.2381 16.9C20.2349 16.9 20.2317 16.9 20.2285 16.9C20.2253 16.9 20.2221 16.9 20.2189 16.9C20.2157 16.9 20.2125 16.9 20.2093 16.9C20.2061 16.9 20.2029 16.9 20.1997 16.9C20.1965 16.9 20.1934 16.9 20.1902 16.9C20.187 16.9 20.1839 16.9 20.1807 16.9C20.1775 16.9 20.1744 16.9 20.1712 16.9C20.1681 16.9 20.1649 16.9 20.1618 16.9C20.1587 16.9 20.1555 16.9 20.1524 16.9C20.1493 16.9 20.1461 16.9 20.143 16.9C20.1399 16.9 20.1368 16.9 20.1337 16.9C20.1306 16.9 20.1275 16.9 20.1244 16.9C20.1213 16.9 20.1182 16.9 20.1151 16.9C20.112 16.9 20.1089 16.9 20.1058 16.9C20.1027 16.9 20.0997 16.9 20.0966 16.9C20.0935 16.9 20.0905 16.9 20.0874 16.9C20.0844 16.9 20.0813 16.9 20.0782 16.9C20.0752 16.9 20.0721 16.9 20.0691 16.9C20.0661 16.9 20.063 16.9 20.06 16.9C20.057 16.9 20.0539 16.9 20.0509 16.9C20.0479 16.9 20.0449 16.9 20.0419 16.9C20.0389 16.9 20.0359 16.9 20.0329 16.9C20.0299 16.9 20.0269 16.9 20.0239 16.9C20.0209 16.9 20.0179 16.9 20.0149 16.9C20.0119 16.9 20.0089 16.9 20.006 16.9C20.003 16.9 20 16.9 19.9971 16.9C19.9941 16.9 19.9911 16.9 19.9882 16.9C19.9852 16.9 19.9823 16.9 19.9793 16.9C19.9764 16.9 19.9735 16.9 19.9705 16.9C19.9676 16.9 19.9646 16.9 19.9617 16.9C19.9588 16.9 19.9559 16.9 19.953 16.9C19.95 16.9 19.9471 16.9 19.9442 16.9C19.9413 16.9 19.9384 16.9 19.9355 16.9C19.9326 16.9 19.9297 16.9 19.9268 16.9C19.9239 16.9 19.9211 16.9 19.9182 16.9C19.9153 16.9 19.9124 16.9 19.9096 16.9C19.9067 16.9 19.9038 16.9 19.901 16.9C19.8981 16.9 19.8952 16.9 19.8924 16.9C19.8895 16.9 19.8867 16.9 19.8839 16.9C19.881 16.9 19.8782 16.9 19.8753 16.9C19.8725 16.9 19.8697 16.9 19.8668 16.9C19.864 16.9 19.8612 16.9 19.8584 16.9C19.8556 16.9 19.8528 16.9 19.85 16.9C19.8472 16.9 19.8443 16.9 19.8416 16.9C19.8388 16.9 19.836 16.9 19.8332 16.9C19.8304 16.9 19.8276 16.9 19.8248 16.9C19.822 16.9 19.8193 16.9 19.8165 16.9C19.8137 16.9 19.811 16.9 19.8082 16.9C19.8054 16.9 19.8027 16.9 19.7999 16.9C19.7972 16.9 19.7944 16.9 19.7917 16.9C19.7889 16.9 19.7862 16.9 19.7835 16.9C19.7807 16.9 19.778 16.9 19.7753 16.9C19.7725 16.9 19.7698 16.9 19.7671 16.9C19.7644 16.9 19.7617 16.9 19.759 16.9C19.7562 16.9 19.7535 16.9 19.7508 16.9C19.7481 16.9 19.7454 16.9 19.7427 16.9C19.7401 16.9 19.7374 16.9 19.7347 16.9C19.732 16.9 19.7293 16.9 19.7266 16.9C19.724 16.9 19.7213 16.9 19.7186 16.9C19.716 16.9 19.7133 16.9 19.7106 16.9C19.708 16.9 19.7053 16.9 19.7027 16.9C19.7 16.9 19.6974 16.9 19.6947 16.9C19.6921 16.9 19.6895 16.9 19.6868 16.9C19.6842 16.9 19.6816 16.9 19.679 16.9C19.6763 16.9 19.6737 16.9 19.6711 16.9C19.6685 16.9 19.6659 16.9 19.6633 16.9C19.6607 16.9 19.658 16.9 19.6554 16.9C19.6528 16.9 19.6503 16.9 19.6477 16.9C19.6451 16.9 19.6425 16.9 19.6399 16.9C19.6373 16.9 19.6347 16.9 19.6322 16.9C19.6296 16.9 19.627 16.9 19.6245 16.9C19.6219 16.9 19.6193 16.9 19.6168 16.9C19.6142 16.9 19.6117 16.9 19.6091 16.9C19.6066 16.9 19.604 16.9 19.6015 16.9C19.5989 16.9 19.5964 16.9 19.5938 16.9C19.5913 16.9 19.5888 16.9 19.5863 16.9C19.5837 16.9 19.5812 16.9 19.5787 16.9C19.5762 16.9 19.5737 16.9 19.5711 16.9C19.5686 16.9 19.5661 16.9 19.5636 16.9C19.5611 16.9 19.5586 16.9 19.5561 16.9C19.5536 16.9 19.5511 16.9 19.5487 16.9C19.5462 16.9 19.5437 16.9 19.5412 16.9C19.5387 16.9 19.5363 16.9 19.5338 16.9C19.5313 16.9 19.5289 16.9 19.5264 16.9C19.5239 16.9 19.5215 16.9 19.519 16.9C19.5166 16.9 19.5141 16.9 19.5117 16.9C19.5092 16.9 19.5068 16.9 19.5043 16.9C19.5019 16.9 19.4995 16.9 19.497 16.9C19.4946 16.9 19.4922 16.9 19.4897 16.9C19.4873 16.9 19.4849 16.9 19.4825 16.9C19.4801 16.9 19.4776 16.9 19.4752 16.9C19.4728 16.9 19.4704 16.9 19.468 16.9C19.4656 16.9 19.4632 16.9 19.4608 16.9C19.4584 16.9 19.456 16.9 19.4536 16.9C19.4513 16.9 19.4489 16.9 19.4465 16.9C19.4441 16.9 19.4417 16.9 19.4394 16.9C19.437 16.9 19.4346 16.9 19.4323 16.9C19.4299 16.9 19.4275 16.9 19.4252 16.9C19.4228 16.9 19.4205 16.9 19.4181 16.9C19.4158 16.9 19.4134 16.9 19.4111 16.9C19.4087 16.9 19.4064 16.9 19.4041 16.9C19.4017 16.9 19.3994 16.9 19.3971 16.9C19.3947 16.9 19.3924 16.9 19.3901 16.9C19.3878 16.9 19.3855 16.9 19.3831 16.9C19.3808 16.9 19.3785 16.9 19.3762 16.9C19.3739 16.9 19.3716 16.9 19.3693 16.9C19.367 16.9 19.3647 16.9 19.3624 16.9C19.3601 16.9 19.3578 16.9 19.3556 16.9C19.3533 16.9 19.351 16.9 19.3487 16.9C19.3464 16.9 19.3442 16.9 19.3419 16.9C19.3396 16.9 19.3373 16.9 19.3351 16.9C19.3328 16.9 19.3306 16.9 19.3283 16.9C19.326 16.9 19.3238 16.9 19.3215 16.9C19.3193 16.9 19.317 16.9 19.3148 16.9C19.3126 16.9 19.3103 16.9 19.3081 16.9C19.3058 16.9 19.3036 16.9 19.3014 16.9C19.2992 16.9 19.2969 16.9 19.2947 16.9C19.2925 16.9 19.2903 16.9 19.288 16.9C19.2858 16.9 19.2836 16.9 19.2814 16.9C19.2792 16.9 19.277 16.9 19.2748 16.9C19.2726 16.9 19.2704 16.9 19.2682 16.9C19.266 16.9 19.2638 16.9 19.2616 16.9C19.2594 16.9 19.2572 16.9 19.2551 16.9C19.2529 16.9 19.2507 16.9 19.2485 16.9C19.2463 16.9 19.2442 16.9 19.242 16.9C19.2398 16.9 19.2377 16.9 19.2355 16.9C19.2333 16.9 19.2312 16.9 19.229 16.9C19.2269 16.9 19.2247 16.9 19.2226 16.9C19.2204 16.9 19.2183 16.9 19.2161 16.9C19.214 16.9 19.2118 16.9 19.2097 16.9C19.2076 16.9 19.2054 16.9 19.2033 16.9C19.2012 16.9 19.199 16.9 19.1969 16.9C19.1948 16.9 19.1927 16.9 19.1905 16.9C19.1884 16.9 19.1863 16.9 19.1842 16.9C19.1821 16.9 19.18 16.9 19.1779 16.9C19.1758 16.9 19.1737 16.9 19.1716 16.9C19.1695 16.9 19.1674 16.9 19.1653 16.9C19.1632 16.9 19.1611 16.9 19.159 16.9C19.1569 16.9 19.1548 16.9 19.1528 16.9C19.1507 16.9 19.1486 16.9 19.1465 16.9C19.1444 16.9 19.1424 16.9 19.1403 16.9C19.1382 16.9 19.1362 16.9 19.1341 16.9C19.132 16.9 19.13 16.9 19.1279 16.9C19.1259 16.9 19.1238 16.9 19.1218 16.9C19.1197 16.9 19.1177 16.9 19.1156 16.9C19.1136 16.9 19.1115 16.9 19.1095 16.9C19.1075 16.9 19.1054 16.9 19.1034 16.9C19.1014 16.9 19.0993 16.9 19.0973 16.9C19.0953 16.9 19.0932 16.9 19.0912 16.9C19.0892 16.9 19.0872 16.9 19.0852 16.9C19.0832 16.9 19.0811 16.9 19.0791 16.9C19.0771 16.9 19.0751 16.9 19.0731 16.9C19.0711 16.9 19.0691 16.9 19.0671 16.9C19.0651 16.9 19.0631 16.9 19.0611 16.9C19.0591 16.9 19.0571 16.9 19.0552 16.9C19.0532 16.9 19.0512 16.9 19.0492 16.9C19.0472 16.9 19.0452 16.9 19.0433 16.9C19.0413 16.9 19.0393 16.9 19.0374 16.9C19.0354 16.9 19.0334 16.9 19.0315 16.9C19.0295 16.9 19.0275 16.9 19.0256 16.9C19.0236 16.9 19.0217 16.9 19.0197 16.9C19.0177 16.9 19.0158 16.9 19.0138 16.9C19.0119 16.9 19.01 16.9 19.008 16.9C19.0061 16.9 19.0041 16.9 19.0022 16.9C19.0003 16.9 18.9983 16.9 18.9964 16.9C18.9945 16.9 18.9925 16.9 18.9906 16.9C18.9887 16.9 18.9868 16.9 18.9848 16.9C18.9829 16.9 18.981 16.9 18.9791 16.9C18.9772 16.9 18.9752 16.9 18.9733 16.9C18.9714 16.9 18.9695 16.9 18.9676 16.9C18.9657 16.9 18.9638 16.9 18.9619 16.9C18.96 16.9 18.9581 16.9 18.9562 16.9C18.9543 16.9 18.9524 16.9 18.9505 16.9C18.9486 16.9 18.9468 16.9 18.9449 16.9C18.943 16.9 18.9411 16.9 18.9392 16.9C18.9373 16.9 18.9355 16.9 18.9336 16.9C18.9317 16.9 18.9298 16.9 18.928 16.9C18.9261 16.9 18.9242 16.9 18.9224 16.9C18.9205 16.9 18.9186 16.9 18.9168 16.9C18.9149 16.9 18.9131 16.9 18.9112 16.9C18.9094 16.9 18.9075 16.9 18.9057 16.9C18.9038 16.9 18.902 16.9 18.9001 16.9C18.8983 16.9 18.8964 16.9 18.8946 16.9C18.8927 16.9 18.8909 16.9 18.8891 16.9C18.8872 16.9 18.8854 16.9 18.8836 16.9C18.8817 16.9 18.8799 16.9 18.8781 16.9C18.8763 16.9 18.8744 16.9 18.8726 16.9C18.8708 16.9 18.869 16.9 18.8672 16.9C18.8654 16.9 18.8635 16.9 18.8617 16.9C18.8599 16.9 18.8581 16.9 18.8563 16.9C18.8545 16.9 18.8527 16.9 18.8509 16.9C18.8491 16.9 18.8473 16.9 18.8455 16.9C18.8437 16.9 18.8419 16.9 18.8401 16.9C18.8383 16.9 18.8365 16.9 18.8347 16.9C18.8329 16.9 18.8311 16.9 18.8294 16.9C18.8276 16.9 18.8258 16.9 18.824 16.9C18.8222 16.9 18.8205 16.9 18.8187 16.9C18.8169 16.9 18.8151 16.9 18.8134 16.9C18.8116 16.9 18.8098 16.9 18.8081 16.9C18.8063 16.9 18.8045 16.9 18.8028 16.9C18.801 16.9 18.7992 16.9 18.7975 16.9C18.7957 16.9 18.794 16.9 18.7922 16.9C18.7905 16.9 18.7887 16.9 18.787 16.9C18.7852 16.9 18.7835 16.9 18.7817 16.9C18.78 16.9 18.7782 16.9 18.7765 16.9C18.7747 16.9 18.773 16.9 18.7713 16.9C18.7695 16.9 18.7678 16.9 18.7661 16.9C18.7643 16.9 18.7626 16.9 18.7609 16.9C18.7591 16.9 18.7574 16.9 18.7557 16.9C18.754 16.9 18.7522 16.9 18.7505 16.9C18.7488 16.9 18.7471 16.9 18.7454 16.9C18.7436 16.9 18.7419 16.9 18.7402 16.9C18.7385 16.9 18.7368 16.9 18.7351 16.9C18.7334 16.9 18.7317 16.9 18.73 16.9C18.7282 16.9 18.7265 16.9 18.7248 16.9C18.7231 16.9 18.7214 16.9 18.7197 16.9C18.718 16.9 18.7164 16.9 18.7147 16.9C18.713 16.9 18.7113 16.9 18.7096 16.9C18.7079 16.9 18.7062 16.9 18.7045 16.9C18.7028 16.9 18.7011 16.9 18.6995 16.9C18.6978 16.9 18.6961 16.9 18.6944 16.9C18.6927 16.9 18.6911 16.9 18.6894 16.9C18.6877 16.9 18.686 16.9 18.6844 16.9C18.6827 16.9 18.681 16.9 18.6794 16.9C18.6777 16.9 18.676 16.9 18.6744 16.9C18.6727 16.9 18.671 16.9 18.6694 16.9C18.6677 16.9 18.6661 16.9 18.6644 16.9C18.6627 16.9 18.6611 16.9 18.6594 16.9C18.6578 16.9 18.6561 16.9 18.6545 16.9C18.6528 16.9 18.6512 16.9 18.6495 16.9C18.6479 16.9 18.6462 16.9 18.6446 16.9C18.643 16.9 18.6413 16.9 18.6397 16.9C18.638 16.9 18.6364 16.9 18.6348 16.9C18.6331 16.9 18.6315 16.9 18.6299 16.9C18.6282 16.9 18.6266 16.9 18.625 16.9C18.6233 16.9 18.6217 16.9 18.6201 16.9C18.6185 16.9 18.6168 16.9 18.6152 16.9C18.6136 16.9 18.612 16.9 18.6103 16.9C18.6087 16.9 18.6071 16.9 18.6055 16.9C18.6039 16.9 18.6022 16.9 18.6006 16.9C18.599 16.9 18.5974 16.9 18.5958 16.9C18.5942 16.9 18.5926 16.9 18.591 16.9C18.5894 16.9 18.5878 16.9 18.5861 16.9C18.5845 16.9 18.5829 16.9 18.5813 16.9C18.5797 16.9 18.5781 16.9 18.5765 16.9C18.5749 16.9 18.5733 16.9 18.5717 16.9C18.5702 16.9 18.5686 16.9 18.567 16.9C18.5654 16.9 18.5638 16.9 18.5622 16.9C18.5606 16.9 18.559 16.9 18.5574 16.9C18.5558 16.9 18.5542 16.9 18.5527 16.9C18.5511 16.9 18.5495 16.9 18.5479 16.9C18.5463 16.9 18.5448 16.9 18.5432 16.9C18.5416 16.9 18.54 16.9 18.5384 16.9C18.5369 16.9 18.5353 16.9 18.5337 16.9C18.5321 16.9 18.5306 16.9 18.529 16.9C18.5274 16.9 18.5259 16.9 18.5243 16.9C18.5227 16.9 18.5212 16.9 18.5196 16.9C18.518 16.9 18.5165 16.9 18.5149 16.9C18.5133 16.9 18.5118 16.9 18.5102 16.9C18.5087 16.9 18.5071 16.9 18.5055 16.9C18.504 16.9 18.5024 16.9 18.5009 16.9C18.4993 16.9 18.4978 16.9 18.4962 16.9C18.4947 16.9 18.4931 16.9 18.4916 16.9C18.49 16.9 18.4885 16.9 18.4869 16.9C18.4854 16.9 18.4838 16.9 18.4823 16.9C18.4807 16.9 18.4792 16.9 18.4776 16.9C18.4761 16.9 18.4746 16.9 18.473 16.9C18.4715 16.9 18.4699 16.9 18.4684 16.9C18.4669 16.9 18.4653 16.9 18.4638 16.9C18.4622 16.9 18.4607 16.9 18.4592 16.9C18.4576 16.9 18.4561 16.9 18.4546 16.9C18.453 16.9 18.4515 16.9 18.45 16.9C18.4485 16.9 18.4469 16.9 18.4454 16.9C18.4439 16.9 18.4423 16.9 18.4408 16.9C18.4393 16.9 18.4378 16.9 18.4362 16.9C18.4347 16.9 18.4332 16.9 18.4317 16.9C18.4302 16.9 18.4286 16.9 18.4271 16.9C18.4256 16.9 18.4241 16.9 18.4226 16.9C18.421 16.9 18.4195 16.9 18.418 16.9C18.4165 16.9 18.415 16.9 18.4135 16.9C18.412 16.9 18.4104 16.9 18.4089 16.9C18.4074 16.9 18.4059 16.9 18.4044 16.9C18.4029 16.9 18.4014 16.9 18.3999 16.9C18.3984 16.9 18.3969 16.9 18.3954 16.9C18.3939 16.9 18.3924 16.9 18.3908 16.9C18.3893 16.9 18.3878 16.9 18.3863 16.9C18.3848 16.9 18.3833 16.9 18.3818 16.9C18.3803 16.9 18.3788 16.9 18.3773 16.9C18.3758 16.9 18.3743 16.9 18.3728 16.9C18.3713 16.9 18.3699 16.9 18.3684 16.9C18.3669 16.9 18.3654 16.9 18.3639 16.9C18.3624 16.9 18.3609 16.9 18.3594 16.9C18.3579 16.9 18.3564 16.9 18.3549 16.9C18.3534 16.9 18.3519 16.9 18.3504 16.9C18.349 16.9 18.3475 16.9 18.346 16.9C18.3445 16.9 18.343 16.9 18.3415 16.9C18.34 16.9 18.3386 16.9 18.3371 16.9C18.3356 16.9 18.3341 16.9 18.3326 16.9C18.3311 16.9 18.3296 16.9 18.3282 16.9C18.3267 16.9 18.3252 16.9 18.3237 16.9C18.3222 16.9 18.3208 16.9 18.3193 16.9C18.3178 16.9 18.3163 16.9 18.3148 16.9C18.3134 16.9 18.3119 16.9 18.3104 16.9C18.3089 16.9 18.3075 16.9 18.306 16.9C18.3045 16.9 18.303 16.9 18.3016 16.9C18.3001 16.9 18.2986 16.9 18.2971 16.9C18.2957 16.9 18.2942 16.9 18.2927 16.9C18.2912 16.9 18.2898 16.9 18.2883 16.9C18.2868 16.9 18.2854 16.9 18.2839 16.9C18.2824 16.9 18.281 16.9 18.2795 16.9C18.278 16.9 18.2765 16.9 18.2751 16.9C18.2736 16.9 18.2721 16.9 18.2707 16.9C18.2692 16.9 18.2677 16.9 18.2663 16.9C18.2648 16.9 18.2633 16.9 18.2619 16.9C18.2604 16.9 18.259 16.9 18.2575 16.9C18.256 16.9 18.2546 16.9 18.2531 16.9C18.2516 16.9 18.2502 16.9 18.2487 16.9C18.2472 16.9 18.2458 16.9 18.2443 16.9C18.2429 16.9 18.2414 16.9 18.2399 16.9C18.2385 16.9 18.237 16.9 18.2356 16.9C18.2341 16.9 18.2326 16.9 18.2312 16.9C18.2297 16.9 18.2283 16.9 18.2268 16.9C18.2253 16.9 18.2239 16.9 18.2224 16.9C18.221 16.9 18.2195 16.9 18.2181 16.9C18.2166 16.9 18.2151 16.9 18.2137 16.9C18.2122 16.9 18.2108 16.9 18.2093 16.9C18.2079 16.9 18.2064 16.9 18.205 16.9C18.2035 16.9 18.202 16.9 18.2006 16.9C18.1991 16.9 18.1977 16.9 18.1962 16.9C18.1948 16.9 18.1933 16.9 18.1919 16.9C18.1904 16.9 18.1889 16.9 18.1875 16.9C18.186 16.9 18.1846 16.9 18.1831 16.9C18.1817 16.9 18.1802 16.9 18.1788 16.9C18.1773 16.9 18.1759 16.9 18.1744 16.9C18.173 16.9 18.1715 16.9 18.1701 16.9C18.1686 16.9 18.1672 16.9 18.1657 16.9C18.1642 16.9 18.1628 16.9 18.1613 16.9C18.1599 16.9 18.1584 16.9 18.157 16.9C18.1555 16.9 18.1541 16.9 18.1526 16.9C18.1512 16.9 18.1497 16.9 18.1483 16.9C18.1468 16.9 18.1454 16.9 18.1439 16.9C18.1425 16.9 18.141 16.9 18.1396 16.9C18.1381 16.9 18.1367 16.9 18.1352 16.9C18.1338 16.9 18.1323 16.9 18.1309 16.9C18.1294 16.9 18.128 16.9 18.1265 16.9C18.1251 16.9 18.1236 16.9 18.1222 16.9C18.1207 16.9 18.1193 16.9 18.1178 16.9C18.1164 16.9 18.1149 16.9 18.1135 16.9C18.112 16.9 18.1106 16.9 18.1091 16.9C18.1077 16.9 18.1062 16.9 18.1047 16.9C18.1033 16.9 18.1018 16.9 18.1004 16.9C18.0989 16.9 18.0975 16.9 18.096 16.9C18.0946 16.9 18.0931 16.9 18.0917 16.9C18.0902 16.9 18.0888 16.9 18.0873 16.9C18.0859 16.9 18.0844 16.9 18.083 16.9C18.0815 16.9 18.0801 16.9 18.0786 16.9C18.0772 16.9 18.0757 16.9 18.0743 16.9C18.0728 16.9 18.0713 16.9 18.0699 16.9C18.0684 16.9 18.067 16.9 18.0655 16.9C18.0641 16.9 18.0626 16.9 18.0612 16.9C18.0597 16.9 18.0583 16.9 18.0568 16.9C18.0553 16.9 18.0539 16.9 18.0524 16.9C18.051 16.9 18.0495 16.9 18.0481 16.9C18.0466 16.9 18.0452 16.9 18.0437 16.9C18.0422 16.9 18.0408 16.9 18.0393 16.9C18.0379 16.9 18.0364 16.9 18.035 16.9C18.0335 16.9 18.032 16.9 18.0306 16.9C18.0291 16.9 18.0277 16.9 18.0262 16.9C18.0247 16.9 18.0233 16.9 18.0218 16.9C18.0204 16.9 18.0189 16.9 18.0174 16.9C18.016 16.9 18.0145 16.9 18.0131 16.9C18.0116 16.9 18.0101 16.9 18.0087 16.9C18.0072 16.9 18.0058 16.9 18.0043 16.9C18.0028 16.9 18.0014 16.9 17.9999 16.9C17.9984 16.9 17.997 16.9 17.9955 16.9C17.994 16.9 17.9926 16.9 17.9911 16.9C17.9896 16.9 17.9882 16.9 17.9867 16.9C17.9852 16.9 17.9838 16.9 17.9823 16.9C17.9808 16.9 17.9794 16.9 17.9779 16.9C17.9764 16.9 17.975 16.9 17.9735 16.9C17.972 16.9 17.9706 16.9 17.9691 16.9C17.9676 16.9 17.9662 16.9 17.9647 16.9C17.9632 16.9 17.9617 16.9 17.9603 16.9C17.9588 16.9 17.9573 16.9 17.9558 16.9C17.9544 16.9 17.9529 16.9 17.9514 16.9C17.9499 16.9 17.9485 16.9 17.947 16.9C17.9455 16.9 17.944 16.9 17.9426 16.9C17.9411 16.9 17.9396 16.9 17.9381 16.9C17.9366 16.9 17.9352 16.9 17.9337 16.9C17.9322 16.9 17.9307 16.9 17.9292 16.9C17.9278 16.9 17.9263 16.9 17.9248 16.9C17.9233 16.9 17.9218 16.9 17.9203 16.9C17.9189 16.9 17.9174 16.9 17.9159 16.9C17.9144 16.9 17.9129 16.9 17.9114 16.9C17.9099 16.9 17.9085 16.9 17.907 16.9C17.9055 16.9 17.904 16.9 17.9025 16.9C17.901 16.9 17.8995 16.9 17.898 16.9C17.8965 16.9 17.895 16.9 17.8935 16.9C17.892 16.9 17.8906 16.9 17.8891 16.9C17.8876 16.9 17.8861 16.9 17.8846 16.9C17.8831 16.9 17.8816 16.9 17.8801 16.9C17.8786 16.9 17.8771 16.9 17.8756 16.9C17.8741 16.9 17.8726 16.9 17.8711 16.9C17.8696 16.9 17.8681 16.9 17.8666 16.9C17.8651 16.9 17.8636 16.9 17.8621 16.9C17.8606 16.9 17.859 16.9 17.8575 16.9C17.856 16.9 17.8545 16.9 17.853 16.9C17.8515 16.9 17.85 16.9 17.8485 16.9C17.847 16.9 17.8455 16.9 17.844 16.9C17.8424 16.9 17.8409 16.9 17.8394 16.9C17.8379 16.9 17.8364 16.9 17.8349 16.9C17.8333 16.9 17.8318 16.9 17.8303 16.9C17.8288 16.9 17.8273 16.9 17.8258 16.9C17.8242 16.9 17.8227 16.9 17.8212 16.9C17.8197 16.9 17.8181 16.9 17.8166 16.9C17.8151 16.9 17.8136 16.9 17.812 16.9C17.8105 16.9 17.809 16.9 17.8075 16.9C17.8059 16.9 17.8044 16.9 17.8029 16.9C17.8013 16.9 17.7998 16.9 17.7983 16.9C17.7967 16.9 17.7952 16.9 17.7937 16.9C17.7921 16.9 17.7906 16.9 17.7891 16.9C17.7875 16.9 17.786 16.9 17.7844 16.9C17.7829 16.9 17.7814 16.9 17.7798 16.9C17.7783 16.9 17.7767 16.9 17.7752 16.9C17.7736 16.9 17.7721 16.9 17.7705 16.9C17.769 16.9 17.7674 16.9 17.7659 16.9C17.7643 16.9 17.7628 16.9 17.7612 16.9C17.7597 16.9 17.7581 16.9 17.7566 16.9C17.755 16.9 17.7535 16.9 17.7519 16.9C17.7504 16.9 17.7488 16.9 17.7472 16.9C17.7457 16.9 17.7441 16.9 17.7426 16.9C17.741 16.9 17.7394 16.9 17.7379 16.9C17.7363 16.9 17.7347 16.9 17.7332 16.9C17.7316 16.9 17.73 16.9 17.7285 16.9C17.7269 16.9 17.7253 16.9 17.7237 16.9C17.7222 16.9 17.7206 16.9 17.719 16.9C17.7175 16.9 17.7159 16.9 17.7143 16.9C17.7127 16.9 17.7111 16.9 17.7096 16.9C17.708 16.9 17.7064 16.9 17.7048 16.9C17.7032 16.9 17.7016 16.9 17.7001 16.9C17.6985 16.9 17.6969 16.9 17.6953 16.9C17.6937 16.9 17.6921 16.9 17.6905 16.9C17.6889 16.9 17.6873 16.9 17.6857 16.9C17.6841 16.9 17.6825 16.9 17.6809 16.9C17.6793 16.9 17.6777 16.9 17.6761 16.9C17.6745 16.9 17.6729 16.9 17.6713 16.9C17.6697 16.9 17.6681 16.9 17.6665 16.9C17.6649 16.9 17.6633 16.9 17.6617 16.9C17.6601 16.9 17.6585 16.9 17.6569 16.9C17.6552 16.9 17.6536 16.9 17.652 16.9C17.6504 16.9 17.6488 16.9 17.6472 16.9C17.6455 16.9 17.6439 16.9 17.6423 16.9C17.6407 16.9 17.6391 16.9 17.6374 16.9C17.6358 16.9 17.6342 16.9 17.6325 16.9C17.6309 16.9 17.6293 16.9 17.6276 16.9C17.626 16.9 17.6244 16.9 17.6227 16.9C17.6211 16.9 17.6195 16.9 17.6178 16.9C17.6162 16.9 17.6146 16.9 17.6129 16.9C17.6113 16.9 17.6096 16.9 17.608 16.9C17.6063 16.9 17.6047 16.9 17.603 16.9C17.6014 16.9 17.5997 16.9 17.5981 16.9C17.5964 16.9 17.5948 16.9 17.5931 16.9C17.5915 16.9 17.5898 16.9 17.5881 16.9C17.5865 16.9 17.5848 16.9 17.5832 16.9C17.5815 16.9 17.5798 16.9 17.5782 16.9C17.5765 16.9 17.5748 16.9 17.5732 16.9C17.5715 16.9 17.5698 16.9 17.5681 16.9C17.5665 16.9 17.5648 16.9 17.5631 16.9C17.5614 16.9 17.5598 16.9 17.5581 16.9C17.5564 16.9 17.5547 16.9 17.553 16.9C17.5513 16.9 17.5497 16.9 17.548 16.9C17.5463 16.9 17.5446 16.9 17.5429 16.9C17.5412 16.9 17.5395 16.9 17.5378 16.9C17.5361 16.9 17.5344 16.9 17.5327 16.9C17.531 16.9 17.5293 16.9 17.5276 16.9C17.5259 16.9 17.5242 16.9 17.5225 16.9C17.5208 16.9 17.5191 16.9 17.5174 16.9C17.5156 16.9 17.5139 16.9 17.5122 16.9C17.5105 16.9 17.5088 16.9 17.5071 16.9C17.5053 16.9 17.5036 16.9 17.5019 16.9C17.5002 16.9 17.4984 16.9 17.4967 16.9C17.495 16.9 17.4933 16.9 17.4915 16.9C17.4898 16.9 17.4881 16.9 17.4863 16.9C17.4846 16.9 17.4828 16.9 17.4811 16.9C17.4794 16.9 17.4776 16.9 17.4759 16.9C17.4741 16.9 17.4724 16.9 17.4706 16.9V17.9ZM20.5 17.9C21.8761 17.9 23 16.7761 23 15.4H22C22 16.2238 21.3239 16.9 20.5 16.9V17.9ZM23 15.4V8.49998H22V15.4H23ZM23 8.49998C23 7.12383 21.8761 5.99998 20.5 5.99998V6.99998C21.3239 6.99998 22 7.67612 22 8.49998H23ZM20.5 5.99998H17.5V6.99998H20.5V5.99998ZM6 14.6V21H7V14.6H6ZM6 21C6 21.2636 6.09006 21.5221 6.28395 21.716C6.47784 21.9099 6.73638 22 7 22V21C6.98064 21 6.97335 20.9968 6.9748 20.9974C6.97543 20.9976 6.97762 20.9985 6.98081 21.0006C6.98402 21.0027 6.98757 21.0054 6.99105 21.0089C6.99454 21.0124 6.99732 21.016 6.99939 21.0192C7.00144 21.0224 7.00237 21.0245 7.00261 21.0252C7.00317 21.0266 7 21.0193 7 21H6ZM7 22H17V21H7V22ZM17 22C17.2636 22 17.5222 21.9099 17.7161 21.716C17.9099 21.5221 18 21.2636 18 21H17C17 21.0193 16.9968 21.0266 16.9974 21.0252C16.9976 21.0245 16.9986 21.0224 17.0006 21.0192C17.0027 21.016 17.0055 21.0124 17.0089 21.0089C17.0124 21.0054 17.016 21.0027 17.0192 21.0006C17.0224 20.9985 17.0246 20.9976 17.0252 20.9974C17.0267 20.9968 17.0194 21 17 21V22ZM18 21V14.6H17V21H18ZM17.5 14.1H6.5V15.1H17.5V14.1ZM18.5 10.5V7.1H17.5V10.5H18.5ZM18.5 7.1C18.5 6.92864 18.4298 6.76663 18.3847 6.67639C18.3317 6.57036 18.253 6.44591 18.1536 6.34645L17.4464 7.05355C17.4439 7.05098 17.4494 7.05631 17.4603 7.07229C17.4705 7.08721 17.4811 7.10521 17.4903 7.12361C17.4998 7.14256 17.5047 7.15583 17.5063 7.16098C17.5071 7.16328 17.506 7.16034 17.5045 7.15263C17.5032 7.14586 17.5 7.12729 17.5 7.1H18.5ZM18.189 6.38583L16.089 3.78583L15.311 4.41417L17.411 7.01417L18.189 6.38583ZM16.0536 3.74645C15.7842 3.47708 15.4595 3.5 15.3 3.5V4.5C15.3255 4.5 15.3466 4.5 15.3661 4.50018C15.3854 4.50035 15.4004 4.50067 15.4128 4.50116C15.439 4.50221 15.4443 4.50377 15.4394 4.50279C15.4317 4.50124 15.4126 4.49632 15.3895 4.48408C15.3664 4.47183 15.3519 4.45897 15.3464 4.45355L16.0536 3.74645ZM15.3 3.5H7.5V4.5H15.3V3.5ZM7.5 3.5C7.23638 3.5 6.97784 3.59006 6.78395 3.78395C6.59006 3.97784 6.5 4.23638 6.5 4.5H7.5C7.5 4.48064 7.50317 4.47335 7.50261 4.4748C7.50237 4.47543 7.50144 4.47762 7.49939 4.48081C7.49732 4.48402 7.49454 4.48757 7.49105 4.49105C7.48757 4.49454 7.48402 4.49732 7.48081 4.49939C7.47762 4.50144 7.47543 4.50237 7.4748 4.50261C7.47335 4.50317 7.48064 4.5 7.5 4.5V3.5ZM6.5 4.5V10.5H7.5V4.5H6.5ZM19.4 15H19.5V14H19.4V15Z" fill="white"></path></svg>