<svg width="98" height="33" fill="none" xmlns="http://www.w3.org/2000/svg"><path d="M0 7.333C0 3.283 3.375 0 7.538 0h82.924C94.624 0 98 3.283 98 7.333v18.334C98 29.717 94.625 33 90.462 33H7.537C3.375 33 0 29.717 0 25.667V7.333z" fill="#F2F2F2"/><path fill-rule="evenodd" clip-rule="evenodd" d="M90.462 1.1H7.537C4 1.1 1.131 3.89 1.131 7.333v18.334C1.13 29.109 4 31.9 7.538 31.9h82.924c3.538 0 6.407-2.79 6.407-6.233V7.333C96.87 3.891 94 1.1 90.462 1.1zM7.537 0C3.375 0 0 3.283 0 7.333v18.334C0 29.717 3.375 33 7.538 33h82.924C94.624 33 98 29.717 98 25.667V7.333C98 3.283 94.625 0 90.462 0H7.537z" fill="#E0E0E0"/><path d="M14 17c0-2.21 1.65-4 3.684-4h62.632C82.35 13 84 14.79 84 17s-1.65 4-3.684 4H17.684C15.65 21 14 19.21 14 17z" fill="#F2F2F2"/><path fill-rule="evenodd" clip-rule="evenodd" d="M17.203 20.966l.143-1.19c.11.016.223.024.338.024h.56V21h-.56a3.43 3.43 0 01-.481-.034zm-.93-.27l.424-1.108a2.536 2.536 0 01-.582-.366l-.674.952c.254.211.533.388.833.523zm-1.512-1.26l.877-.732a2.863 2.863 0 01-.338-.633l-1.02.46c.124.325.286.629.481.904zm-.73-1.914l1.096-.155a3.072 3.072 0 010-.734l-1.096-.155a4.387 4.387 0 000 1.044zm.249-2.053l1.02.46c.087-.228.2-.44.337-.633l-.876-.731a4.088 4.088 0 00-.481.904zm1.161-1.643l.674.952c.178-.148.373-.272.582-.366l-.423-1.109c-.3.135-.58.312-.833.523zm1.762-.792a3.43 3.43 0 01.481-.034h.56v1.2h-.56c-.115 0-.228.008-.338.024l-.143-1.19zM19.362 13v1.2h1.118V13h-1.118zm2.237 0v1.2h1.118V13H21.6zm2.236 0v1.2h1.119V13h-1.119zm2.237 0v1.2h1.119V13h-1.119zm2.237 0v1.2h1.119V13h-1.119zm2.237 0v1.2h1.119V13h-1.119zm2.237 0v1.2H33.9V13h-1.118zm2.237 0v1.2h1.118V13H35.02zm2.237 0v1.2h1.118V13h-1.118zm2.236 0v1.2h1.119V13h-1.119zm2.237 0v1.2h1.119V13H41.73zm2.237 0v1.2h1.119V13h-1.119zm2.237 0v1.2h1.118V13h-1.118zm2.237 0v1.2h1.118V13h-1.118zm2.237 0v1.2h1.118V13h-1.118zm2.236 0v1.2h1.119V13h-1.119zm2.237 0v1.2h1.119V13h-1.12zm2.237 0v1.2h1.119V13h-1.119zm2.237 0v1.2h1.118V13h-1.118zm2.237 0v1.2h1.118V13h-1.118zm2.237 0v1.2h1.118V13H64.1zm2.236 0v1.2h1.119V13h-1.118zm2.237 0v1.2h1.119V13h-1.119zm2.237 0v1.2h1.119V13h-1.119zm2.237 0v1.2h1.118V13h-1.118zm2.237 0v1.2H76.4V13h-1.118zm2.237 0v1.2h1.118V13H77.52zm2.237 0v1.2h.559c.115 0 .228.008.338.024l.143-1.19a3.43 3.43 0 00-.481-.034h-.56zm1.97.303l-.424 1.109c.209.094.404.218.582.366l.674-.952a3.624 3.624 0 00-.833-.523zm1.512 1.262l-.877.731c.137.193.25.405.338.633l1.02-.46a4.088 4.088 0 00-.481-.904zm.73 1.913l-1.096.155a3.072 3.072 0 010 .734l1.096.155a4.387 4.387 0 000-1.044zm-.249 2.053l-1.02-.46c-.087.227-.2.44-.338.633l.877.731c.195-.275.357-.579.481-.904zm-1.161 1.643l-.674-.952a2.536 2.536 0 01-.582.366l.423 1.108c.3-.134.58-.31.833-.522zm-1.762.792l-.143-1.19c-.11.016-.223.024-.338.024h-.56V21h.56c.163 0 .323-.012.481-.034zM78.638 21v-1.2H77.52V21h1.118zm-2.237 0v-1.2h-1.118V21H76.4zm-2.236 0v-1.2h-1.119V21h1.118zm-2.237 0v-1.2h-1.119V21h1.119zm-2.237 0v-1.2h-1.119V21h1.119zm-2.237 0v-1.2h-1.118V21h1.118zm-2.237 0v-1.2H64.1V21h1.118zm-2.237 0v-1.2h-1.118V21h1.118zm-2.237 0v-1.2h-1.118V21h1.118zm-2.236 0v-1.2h-1.119V21h1.119zm-2.237 0v-1.2h-1.12V21h1.119zm-2.237 0v-1.2h-1.119V21h1.119zm-2.237 0v-1.2h-1.118V21h1.118zm-2.237 0v-1.2h-1.118V21h1.118zm-2.237 0v-1.2h-1.118V21h1.118zm-2.236 0v-1.2h-1.119V21h1.119zm-2.237 0v-1.2H41.73V21h1.119zm-2.237 0v-1.2h-1.119V21h1.119zm-2.237 0v-1.2h-1.118V21h1.118zm-2.237 0v-1.2H35.02V21h1.118zm-2.237 0v-1.2h-1.118V21H33.9zm-2.237 0v-1.2h-1.118V21h1.119zm-2.236 0v-1.2h-1.119V21h1.119zm-2.237 0v-1.2h-1.119V21h1.119zm-2.237 0v-1.2h-1.119V21h1.119zm-2.237 0v-1.2H21.6V21h1.118zm-2.237 0v-1.2h-1.118V21h1.118z" fill="#E0E0E0"/><path d="M76 17c0 7.732-11.64 14-26 14s-26-6.268-26-14S35.64 3 50 3s26 6.268 26 14z" fill="#F2F2F2"/><path d="M76 17c0 7.732-11.64 14-26 14s-26-6.268-26-14S35.64 3 50 3s26 6.268 26 14z" fill="url(#paint0_linear)"/><path fill-rule="evenodd" clip-rule="evenodd" d="M67.832 25.856c4.554-2.452 6.995-5.64 6.995-8.856 0-3.217-2.44-6.404-6.995-8.856C63.33 5.72 57.026 4.184 50 4.184c-7.026 0-13.329 1.535-17.832 3.96-4.554 2.452-6.995 5.64-6.995 8.856 0 3.217 2.44 6.404 6.995 8.856 4.503 2.425 10.806 3.96 17.832 3.96 7.026 0 13.329-1.535 17.832-3.96zM50 31c14.36 0 26-6.268 26-14S64.36 3 50 3 24 9.268 24 17s11.64 14 26 14z" fill="#fff"/><defs><linearGradient id="paint0_linear" x1="24" y1="17" x2="76" y2="17" gradientUnits="userSpaceOnUse"><stop stop-color="#C6007F"/><stop offset="1" stop-color="#ED81C1"/></linearGradient></defs></svg>