<svg width="98" height="34" fill="none" xmlns="http://www.w3.org/2000/svg"><path d="M0 7.556C0 3.383 3.375 0 7.538 0h82.924C94.624 0 98 3.383 98 7.556v18.888C98 30.617 94.625 34 90.462 34H7.537C3.375 34 0 30.617 0 26.444V7.556z" fill="#F2F2F2"/><path fill-rule="evenodd" clip-rule="evenodd" d="M90.462 1.133H7.537C4 1.133 1.131 4.01 1.131 7.556v18.888c0 3.547 2.869 6.423 6.407 6.423h82.924c3.538 0 6.407-2.876 6.407-6.423V7.556c0-3.547-2.869-6.423-6.407-6.423zM7.537 0C3.375 0 0 3.383 0 7.556v18.888C0 30.617 3.375 34 7.538 34h82.924C94.624 34 98 30.617 98 26.444V7.556C98 3.383 94.625 0 90.462 0H7.537z" fill="#E0E0E0"/><path d="M14 17c0-1.657 1.65-3 3.684-3h62.632C82.35 14 84 15.343 84 17s-1.65 3-3.684 3H17.684C15.65 20 14 18.657 14 17z" fill="#F2F2F2"/><path fill-rule="evenodd" clip-rule="evenodd" d="M17.203 19.975l.143-.893c.11.012.223.018.338.018h.56v.9h-.56a4.75 4.75 0 01-.481-.025zm-.93-.203l.424-.831a2.772 2.772 0 01-.582-.274l-.674.713c.254.159.533.291.833.392zm-1.512-.946l.877-.548a2.046 2.046 0 01-.338-.474l-1.02.344c.124.244.286.472.481.678zm-.73-1.434l1.096-.117a1.736 1.736 0 010-.55l-1.096-.117a2.48 2.48 0 000 .784zm.249-1.54l1.02.344c.087-.17.2-.33.337-.474l-.876-.548a2.922 2.922 0 00-.481.678zm1.161-1.232l.674.713c.178-.11.373-.203.582-.274l-.423-.831c-.3.1-.58.233-.833.392zm1.762-.595a4.75 4.75 0 01.481-.025h.56v.9h-.56a3.12 3.12 0 00-.338.018l-.143-.893zM19.362 14v.9h1.118V14h-1.118zm2.237 0v.9h1.118V14H21.6zm2.236 0v.9h1.119V14h-1.119zm2.237 0v.9h1.119V14h-1.119zm2.237 0v.9h1.119V14h-1.119zm2.237 0v.9h1.119V14h-1.119zm2.237 0v.9H33.9V14h-1.118zm2.237 0v.9h1.118V14H35.02zm2.237 0v.9h1.118V14h-1.118zm2.236 0v.9h1.119V14h-1.119zm2.237 0v.9h1.119V14H41.73zm2.237 0v.9h1.119V14h-1.119zm2.237 0v.9h1.118V14h-1.118zm2.237 0v.9h1.118V14h-1.118zm2.237 0v.9h1.118V14h-1.118zm2.236 0v.9h1.119V14h-1.119zm2.237 0v.9h1.119V14h-1.12zm2.237 0v.9h1.119V14h-1.119zm2.237 0v.9h1.118V14h-1.118zm2.237 0v.9h1.118V14h-1.118zm2.237 0v.9h1.118V14H64.1zm2.236 0v.9h1.119V14h-1.118zm2.237 0v.9h1.119V14h-1.119zm2.237 0v.9h1.119V14h-1.119zm2.237 0v.9h1.118V14h-1.118zm2.237 0v.9H76.4V14h-1.118zm2.237 0v.9h1.118V14H77.52zm2.237 0v.9h.559c.115 0 .228.006.338.018l.143-.893a4.537 4.537 0 00-.481-.025h-.56zm1.97.228l-.424.831c.209.07.404.163.582.274l.674-.713a3.96 3.96 0 00-.833-.392zm1.512.946l-.877.548c.137.145.25.304.338.474l1.02-.344a2.922 2.922 0 00-.481-.678zm.73 1.434l-1.096.117a1.736 1.736 0 010 .55l1.096.117a2.48 2.48 0 000-.784zm-.249 1.54l-1.02-.344c-.087.17-.2.33-.338.474l.877.548c.195-.206.357-.434.481-.678zm-1.16 1.232l-.674-.713a2.772 2.772 0 01-.582.274l.423.831c.3-.1.58-.233.833-.392zm-1.762.595l-.143-.893a3.12 3.12 0 01-.338.018h-.56v.9h.56c.163 0 .323-.009.481-.025zm-2.16.025v-.9H77.52v.9h1.118zm-2.237 0v-.9h-1.118v.9H76.4zm-2.236 0v-.9h-1.119v.9h1.118zm-2.237 0v-.9h-1.119v.9h1.119zm-2.237 0v-.9h-1.119v.9h1.119zm-2.237 0v-.9h-1.118v.9h1.118zm-2.237 0v-.9H64.1v.9h1.118zm-2.237 0v-.9h-1.118v.9h1.118zm-2.237 0v-.9h-1.118v.9h1.118zm-2.236 0v-.9h-1.119v.9h1.119zm-2.237 0v-.9h-1.12v.9h1.119zm-2.237 0v-.9h-1.119v.9h1.119zm-2.237 0v-.9h-1.118v.9h1.118zm-2.237 0v-.9h-1.118v.9h1.118zm-2.237 0v-.9h-1.118v.9h1.118zm-2.236 0v-.9h-1.119v.9h1.119zm-2.237 0v-.9H41.73v.9h1.119zm-2.237 0v-.9h-1.119v.9h1.119zm-2.237 0v-.9h-1.118v.9h1.118zm-2.237 0v-.9H35.02v.9h1.118zm-2.237 0v-.9h-1.118v.9H33.9zm-2.237 0v-.9h-1.118v.9h1.119zm-2.236 0v-.9h-1.119v.9h1.119zm-2.237 0v-.9h-1.119v.9h1.119zm-2.237 0v-.9h-1.119v.9h1.119zm-2.237 0v-.9H21.6v.9h1.118zm-2.237 0v-.9h-1.118v.9h1.118z" fill="#E0E0E0"/><path d="M84 16.5C84 25.06 68.33 32 49 32s-35-6.94-35-15.5C14 7.94 29.67 1 49 1s35 6.94 35 15.5z" fill="#F2F2F2"/><path d="M84 16.5C84 25.06 68.33 32 49 32s-35-6.94-35-15.5C14 7.94 29.67 1 49 1s35 6.94 35 15.5z" fill="url(#paint0_linear)"/><path fill-rule="evenodd" clip-rule="evenodd" d="M80.416 21.714c1.628-1.704 2.424-3.464 2.424-5.214 0-1.75-.796-3.51-2.424-5.214-1.633-1.71-4.052-3.303-7.131-4.667C67.129 3.893 58.544 2.177 49 2.177S30.871 3.893 24.715 6.62c-3.08 1.364-5.498 2.957-7.131 4.667-1.628 1.704-2.424 3.464-2.424 5.214 0 1.75.796 3.51 2.424 5.214 1.633 1.71 4.052 3.303 7.131 4.667 6.156 2.726 14.741 4.442 24.285 4.442s18.129-1.716 24.285-4.442c3.08-1.364 5.498-2.957 7.131-4.667zM49 32c19.33 0 35-6.94 35-15.5C84 7.94 68.33 1 49 1S14 7.94 14 16.5C14 25.06 29.67 32 49 32z" fill="#fff"/><defs><linearGradient id="paint0_linear" x1="14" y1="17" x2="84" y2="17" gradientUnits="userSpaceOnUse"><stop stop-color="#C90C85"/><stop offset="1" stop-color="#E870B8"/></linearGradient></defs></svg>