<svg width="98" height="34" fill="none" xmlns="http://www.w3.org/2000/svg"><path d="M0 7.556C0 3.383 3.375 0 7.538 0h82.924C94.624 0 98 3.383 98 7.556v18.888C98 30.617 94.625 34 90.462 34H7.537C3.375 34 0 30.617 0 26.444V7.556z" fill="#F2F2F2"/><path fill-rule="evenodd" clip-rule="evenodd" d="M90.462 1.133H7.537C4 1.133 1.131 4.01 1.131 7.556v18.888c0 3.547 2.869 6.423 6.407 6.423h82.924c3.538 0 6.407-2.876 6.407-6.423V7.556c0-3.547-2.869-6.423-6.407-6.423zM7.537 0C3.375 0 0 3.383 0 7.556v18.888C0 30.617 3.375 34 7.538 34h82.924C94.624 34 98 30.617 98 26.444V7.556C98 3.383 94.625 0 90.462 0H7.537z" fill="#E0E0E0"/><path d="M14 16.5c0-1.933 1.65-3.5 3.684-3.5h62.632C82.35 13 84 14.567 84 16.5S82.35 20 80.316 20H17.684C15.65 20 14 18.433 14 16.5z" fill="#F2F2F2"/><path fill-rule="evenodd" clip-rule="evenodd" d="M17.203 19.97l.143-1.04c.11.013.223.02.338.02h.56V20h-.56a3.81 3.81 0 01-.481-.03zm-.93-.236l.424-.97a2.614 2.614 0 01-.582-.32l-.674.833c.254.185.533.34.833.457zm-1.512-1.103l.877-.64a2.423 2.423 0 01-.338-.553l-1.02.402c.124.284.286.55.481.79zm-.73-1.674l1.096-.136a2.357 2.357 0 010-.642l-1.096-.136a3.366 3.366 0 000 .914zm.249-1.797l1.02.402c.087-.198.2-.384.337-.553l-.876-.64a3.457 3.457 0 00-.481.791zm1.161-1.437l.674.833a2.59 2.59 0 01.582-.32l-.423-.97c-.3.118-.58.272-.833.457zm1.762-.693c.157-.02.318-.03.481-.03h.56v1.05h-.56a2.74 2.74 0 00-.338.02l-.143-1.04zm2.159-.03v1.05h1.118V13h-1.118zm2.237 0v1.05h1.118V13H21.6zm2.236 0v1.05h1.119V13h-1.119zm2.237 0v1.05h1.119V13h-1.119zm2.237 0v1.05h1.119V13h-1.119zm2.237 0v1.05h1.119V13h-1.119zm2.237 0v1.05H33.9V13h-1.118zm2.237 0v1.05h1.118V13H35.02zm2.237 0v1.05h1.118V13h-1.118zm2.236 0v1.05h1.119V13h-1.119zm2.237 0v1.05h1.119V13H41.73zm2.237 0v1.05h1.119V13h-1.119zm2.237 0v1.05h1.118V13h-1.118zm2.237 0v1.05h1.118V13h-1.118zm2.237 0v1.05h1.118V13h-1.118zm2.236 0v1.05h1.119V13h-1.119zm2.237 0v1.05h1.119V13h-1.12zm2.237 0v1.05h1.119V13h-1.119zm2.237 0v1.05h1.118V13h-1.118zm2.237 0v1.05h1.118V13h-1.118zm2.237 0v1.05h1.118V13H64.1zm2.236 0v1.05h1.119V13h-1.118zm2.237 0v1.05h1.119V13h-1.119zm2.237 0v1.05h1.119V13h-1.119zm2.237 0v1.05h1.118V13h-1.118zm2.237 0v1.05H76.4V13h-1.118zm2.237 0v1.05h1.118V13H77.52zm2.237 0v1.05h.559c.115 0 .228.007.338.02l.143-1.04a3.915 3.915 0 00-.481-.03h-.56zm1.97.266l-.424.97c.209.082.404.19.582.32l.674-.833a3.731 3.731 0 00-.833-.457zm1.512 1.103l-.877.64c.137.169.25.355.338.553l1.02-.402a3.454 3.454 0 00-.481-.79zm.73 1.674l-1.096.136a2.357 2.357 0 010 .642l1.096.136a3.366 3.366 0 000-.914zm-.249 1.797l-1.02-.402c-.087.198-.2.384-.338.553l.877.64c.195-.241.357-.507.481-.791zm-1.161 1.437l-.674-.833a2.59 2.59 0 01-.582.32l.423.97c.3-.118.58-.272.833-.457zm-1.762.693l-.143-1.04a2.74 2.74 0 01-.338.02h-.56V20h.56c.163 0 .323-.01.481-.03zm-2.159.03v-1.05H77.52V20h1.118zm-2.237 0v-1.05h-1.118V20H76.4zm-2.236 0v-1.05h-1.119V20h1.118zm-2.237 0v-1.05h-1.119V20h1.119zm-2.237 0v-1.05h-1.119V20h1.119zm-2.237 0v-1.05h-1.118V20h1.118zm-2.237 0v-1.05H64.1V20h1.118zm-2.237 0v-1.05h-1.118V20h1.118zm-2.237 0v-1.05h-1.118V20h1.118zm-2.236 0v-1.05h-1.119V20h1.119zm-2.237 0v-1.05h-1.12V20h1.119zm-2.237 0v-1.05h-1.119V20h1.119zm-2.237 0v-1.05h-1.118V20h1.118zm-2.237 0v-1.05h-1.118V20h1.118zm-2.237 0v-1.05h-1.118V20h1.118zm-2.236 0v-1.05h-1.119V20h1.119zm-2.237 0v-1.05H41.73V20h1.119zm-2.237 0v-1.05h-1.119V20h1.119zm-2.237 0v-1.05h-1.118V20h1.118zm-2.237 0v-1.05H35.02V20h1.118zm-2.237 0v-1.05h-1.118V20H33.9zm-2.237 0v-1.05h-1.118V20h1.119zm-2.236 0v-1.05h-1.119V20h1.119zm-2.237 0v-1.05h-1.119V20h1.119zm-2.237 0v-1.05h-1.119V20h1.119zm-2.237 0v-1.05H21.6V20h1.118zm-2.237 0v-1.05h-1.118V20h1.118z" fill="#E0E0E0"/><path d="M97 18c0 8.837-21.49 16-48 16S1 26.837 1 18 22.49 2 49 2s48 7.163 48 16z" fill="#F2F2F2"/><path d="M97 18c0 8.837-21.49 16-48 16S1 26.837 1 18 22.49 2 49 2s48 7.163 48 16z" fill="url(#paint0_linear)"/><path fill-rule="evenodd" clip-rule="evenodd" d="M92.516 23.332c2.298-1.811 3.337-3.621 3.337-5.332 0-1.71-1.04-3.52-3.337-5.332-2.285-1.8-5.663-3.473-9.939-4.898C74.037 4.923 62.165 3.143 49 3.143S23.963 4.923 15.423 7.77c-4.276 1.425-7.654 3.097-9.939 4.898C3.186 14.48 2.147 16.29 2.147 18s1.04 3.52 3.337 5.332c2.285 1.8 5.663 3.473 9.939 4.898 8.54 2.847 20.412 4.627 33.577 4.627s25.037-1.78 33.577-4.627c4.276-1.425 7.654-3.097 9.939-4.898zM49 34c26.51 0 48-7.163 48-16S75.51 2 49 2 1 9.163 1 18s21.49 16 48 16z" fill="#fff"/><defs><linearGradient id="paint0_linear" x1="1" y1="18" x2="97" y2="18" gradientUnits="userSpaceOnUse"><stop stop-color="#CB1489"/><stop offset="1" stop-color="#E360B0"/></linearGradient></defs></svg>