<svg width="74" height="74" fill="none" xmlns="http://www.w3.org/2000/svg"><path d="M9.25 0h39.296l20.829 20.748v48.627A4.625 4.625 0 0164.75 74H9.25a4.625 4.625 0 01-4.625-4.625V4.625A4.625 4.625 0 019.25 0z" fill="#E10786"/><path d="M69.308 20.812h-16.12a4.627 4.627 0 01-4.626-4.625V.047l20.746 20.765z" fill="#C6007F"/><path d="M52.026 35.065c.775 0 1.154-.676 1.154-1.33 0-.678-.395-1.332-1.154-1.332h-4.412c-.862 0-1.343.714-1.343 1.503v10.843c0 .967.55 1.503 1.295 1.503.74 0 1.292-.536 1.292-1.503v-2.976h2.67c.827 0 1.24-.678 1.24-1.35 0-.66-.413-1.314-1.24-1.314h-2.67v-4.044h3.168zm-14.913-2.662h-3.228c-.877 0-1.499.601-1.499 1.494v10.861c0 1.108.895 1.455 1.536 1.455h3.388c4.01 0 6.657-2.638 6.657-6.71-.002-4.307-2.495-7.1-6.854-7.1zm.155 11.132H35.3v-8.454h1.774c2.685 0 3.852 1.801 3.852 4.287 0 2.327-1.147 4.167-3.658 4.167zM25.442 32.403h-3.198c-.904 0-1.409.596-1.409 1.503v10.843c0 .967.578 1.503 1.355 1.503s1.355-.536 1.355-1.503v-3.166h2.005c2.475 0 4.517-1.753 4.517-4.572 0-2.758-1.97-4.608-4.625-4.608zm-.053 6.637h-1.843v-4.091h1.843c1.138 0 1.861.888 1.861 2.047-.002 1.156-.723 2.044-1.861 2.044z" fill="#fff"/></svg>