<svg width="91" height="72" fill="none" xmlns="http://www.w3.org/2000/svg"><g opacity=".2" fill="#4F4F4F"><path d="M42.506 22.57a1.04 1.04 0 00-1.04 1.04c0 2.836-1.119 5.491-3.15 7.475a10.371 10.371 0 01-7.552 2.971c-5.488-.129-9.965-4.49-10.192-9.93-.104-2.47.734-5.029 2.3-7.017 1.79-2.276 2.313-5.332 1.398-8.176a1.04 1.04 0 10-1.98.637c.404 1.254.455 2.53.173 3.718-.826-3.073-2.676-7.91-6.682-11.978A1.04 1.04 0 1014.3 2.77c5.037 5.114 6.394 11.75 6.664 13.417-1.69 2.317-2.587 5.215-2.47 8.026.164 3.919 2.164 7.37 5.158 9.538.571 2.322 1.258 6.048 1.482 11.138a1.05 1.05 0 001.085.994 1.05 1.05 0 00.993-1.085c-.08-1.833-.392-4.99-.392-4.99l-.303-2.252s-.28-1.694-.427-2.421a12.65 12.65 0 009.244.245 12.552 12.552 0 004.437-2.807 12.435 12.435 0 003.776-8.963 1.04 1.04 0 00-1.04-1.04z"/><path d="M29.048 29.135a3.145 3.145 0 003.141-3.141 3.145 3.145 0 00-3.141-3.141 3.145 3.145 0 00-3.141 3.141 3.145 3.145 0 003.141 3.141zm0-4.202a1.062 1.062 0 010 2.122 1.063 1.063 0 01-1.061-1.061c0-.585.476-1.061 1.061-1.061zm32.499 4.202a3.145 3.145 0 003.141-3.141 3.145 3.145 0 00-3.14-3.141 3.145 3.145 0 00-3.142 3.141 3.145 3.145 0 003.141 3.141zm0-4.202a1.062 1.062 0 01.001 2.122 1.062 1.062 0 010-2.122z"/><path d="M76.285 1.299a1.04 1.04 0 00-1.47.011c-4.007 4.068-5.857 8.905-6.683 11.977-.282-1.188-.23-2.463.173-3.717a1.04 1.04 0 10-1.98-.638c-.915 2.844-.391 5.9 1.399 8.177 1.565 1.988 2.403 4.546 2.3 7.017-.228 5.44-4.705 9.801-10.192 9.93a10.375 10.375 0 01-7.553-2.971 10.37 10.37 0 01-3.15-7.476 1.04 1.04 0 10-2.08 0c0 3.402 1.342 6.586 3.776 8.964a12.542 12.542 0 007.94 3.54 12.624 12.624 0 005.741-.979c-.146.728-.427 2.422-.427 2.422l-.302 2.252s-.312 3.157-.394 4.99a1.05 1.05 0 00.994 1.085 1.05 1.05 0 001.085-.994c.224-5.09.911-8.816 1.483-11.138 2.993-2.168 4.993-5.62 5.157-9.538.117-2.81-.78-5.71-2.47-8.026.27-1.667 1.627-8.303 6.664-13.417a1.04 1.04 0 00-.011-1.471c.41.403-.41-.403 0 0z"/></g><path d="M46.558 56.952c0-.929-.564-1.681-1.26-1.681-.697 0-1.26.752-1.26 1.68 0 .93.564 1.682 1.26 1.682.696 0 1.26-.753 1.26-1.681zm18.857-7.271a1.04 1.04 0 00-2.079.08c.181 4.657 1.192 7.625 2.169 10.495 1.031 3.032 2.006 5.896 2.006 10.704a1.04 1.04 0 102.08 0c0-5.153-1.077-8.315-2.117-11.374-.972-2.855-1.89-5.552-2.059-9.905zm-39.155-.999a1.04 1.04 0 00-1.08 1c-.17 4.352-1.087 7.049-2.058 9.904-1.041 3.059-2.118 6.221-2.118 11.374a1.04 1.04 0 002.08 0c0-4.808.975-7.672 2.007-10.704.977-2.87 1.987-5.838 2.167-10.495a1.04 1.04 0 00-.998-1.08zM41.656 72a1.04 1.04 0 01-.969-.66c-.017-.044-1.314-3.235-4.613-5.234a1.04 1.04 0 111.078-1.779c3.93 2.382 5.412 6.098 5.473 6.255a1.04 1.04 0 01-.97 1.418zm7.284 0a1.038 1.038 0 01-.982-1.38c.05-.148 1.31-3.666 5.47-6.282a1.04 1.04 0 111.108 1.761c-3.512 2.208-4.605 5.179-4.616 5.209a1.043 1.043 0 01-.98.692z" opacity=".2" fill="#4F4F4F"/><path d="M73 12.976c2.333 7.333 6.8 25.9 6 41.5M84.478 1.17c2.83 7.156 3.676 34.805 2.045 50.12M18.206 12.976c-2.334 7.333-6.8 25.9-6 41.5M6.728 1.17C3.897 8.326 3.052 35.975 4.683 51.29" stroke="#4F4F4F" stroke-width="2" stroke-linecap="round"/><path d="M7 40.541a.35.35 0 10.7 0v-.191a.35.35 0 10-.7 0v.191zm-1-2a.35.35 0 10.7 0v-.191a.35.35 0 10-.7 0v.191zm0-4a.35.35 0 10.7 0v-.191a.35.35 0 10-.7 0v.191zm0 8a.35.35 0 10.7 0v-.191a.35.35 0 10-.7 0v.191zm1-6a.35.35 0 10.7 0v-.191a.35.35 0 10-.7 0v.191zm2-3a.35.35 0 10.7 0v-.191a.35.35 0 10-.7 0v.191zm-1-2a.35.35 0 10.7 0v-.191a.35.35 0 10-.7 0v.191zm0-4a.35.35 0 10.7 0v-.191a.35.35 0 10-.7 0v.191zm0 8a.35.35 0 10.7 0v-.191a.35.35 0 10-.7 0v.191zm1-6a.35.35 0 10.7 0v-.191a.35.35 0 10-.7 0v.191zm2 4a.35.35 0 10.7 0v-.191a.35.35 0 10-.7 0v.191zm-1-2a.35.35 0 10.7 0v-.191a.35.35 0 10-.7 0v.191zm1-4a.35.35 0 10.7 0v-.191a.35.35 0 10-.7 0v.191zm-1 8a.35.35 0 10.7 0v-.191a.35.35 0 10-.7 0v.191zm2-6a.35.35 0 10.7 0v-.191a.35.35 0 10-.7 0v.191zm-3-8a.35.35 0 10.7 0v-.191a.35.35 0 10-.7 0v.191zm-1-2a.35.35 0 10.7 0v-.191a.35.35 0 10-.7 0v.191zm1-4a.35.35 0 10.7 0v-.191a.35.35 0 10-.7 0v.191zm-1 8a.35.35 0 10.7 0v-.191a.35.35 0 10-.7 0v.191zm2-6a.35.35 0 10.7 0v-.191a.35.35 0 10-.7 0v.191zm-3 12a.35.35 0 10.7 0v-.191a.35.35 0 10-.7 0v.191zm-1-2a.35.35 0 10.7 0v-.191a.35.35 0 10-.7 0v.191zm0-4a.35.35 0 10.7 0v-.191a.35.35 0 10-.7 0v.191zm0 8a.35.35 0 10.7 0v-.191a.35.35 0 10-.7 0v.191zm1-6a.35.35 0 10.7 0v-.191a.35.35 0 10-.7 0v.191zm78 15a.35.35 0 10.7 0v-.191a.35.35 0 10-.7 0v.191zm-1-2a.35.35 0 10.7 0v-.191a.35.35 0 10-.7 0v.191zm0-4a.35.35 0 10.7 0v-.191a.35.35 0 10-.7 0v.191zm0 8a.35.35 0 10.7 0v-.191a.35.35 0 10-.7 0v.191zm1-6a.35.35 0 10.7 0v-.191a.35.35 0 10-.7 0v.191zm0-7a.35.35 0 10.7 0v-.191a.35.35 0 10-.7 0v.191zm-1-2a.35.35 0 10.7 0v-.191a.35.35 0 10-.7 0v.191zm0-4a.35.35 0 10.7 0v-.191a.35.35 0 10-.7 0v.191zm0 8a.35.35 0 10.7 0v-.191a.35.35 0 10-.7 0v.191zm1-6a.35.35 0 10.7 0v-.191a.35.35 0 10-.7 0v.191zm-2 11a.35.35 0 10.7 0v-.191a.35.35 0 10-.7 0v.191zm-1-2a.35.35 0 10.7 0v-.191a.35.35 0 10-.7 0v.191zm0-4a.35.35 0 10.7 0v-.191a.35.35 0 10-.7 0v.191zm0 8a.35.35 0 10.7 0v-.191a.35.35 0 10-.7 0v.191zm1-6a.35.35 0 10.7 0v-.191a.35.35 0 10-.7 0v.191zm-3.3 0a.35.35 0 11-.7 0v-.191a.35.35 0 11.7 0v.191zm1-2a.35.35 0 11-.7 0v-.191a.35.35 0 11.7 0v.191zm-1-4a.35.35 0 11-.7 0v-.191a.35.35 0 11.7 0v.191zm1 8a.35.35 0 11-.7 0v-.191a.35.35 0 11.7 0v.191zm-2-6a.35.35 0 11-.7 0v-.191a.35.35 0 11.7 0v.191zm2-6a.35.35 0 11-.7 0v-.191a.35.35 0 11.7 0v.191zm1-2a.35.35 0 11-.7 0v-.191a.35.35 0 11.7 0v.191zm-1-4a.35.35 0 11-.7 0v-.191a.35.35 0 11.7 0v.191zm1 8a.35.35 0 11-.7 0v-.191a.35.35 0 11.7 0v.191zm-2-6a.35.35 0 11-.7 0v-.191a.35.35 0 11.7 0v.191z" fill="#4F4F4F"/></svg>