<svg width="73" height="126" fill="none" xmlns="http://www.w3.org/2000/svg"><path opacity=".3" d="M3.527 62.028c-1.006-.13-1.61-1.872-1.35-3.89.261-2.02 1.288-3.55 2.294-3.42 1.005.129 1.61 1.87 1.349 3.89-.26 2.018-1.287 3.55-2.293 3.42z" fill="#EB5757"/><path fill-rule="evenodd" clip-rule="evenodd" d="M26.131 3.754a.921.921 0 011.202.501c.458 1.11 1.002 2.906 1.162 4.737.157 1.787-.031 3.865-1.34 5.268-1.219 1.306-6.611 8.465-11.842 17.826C10.077 41.456 5.1 52.86 4.56 62.68c-.322 5.846-.803 11.742-1.27 17.474-.334 4.097-.66 8.111-.918 11.963-.622 9.298-.845 17.731.153 24.533a.92.92 0 11-1.822.268c-1.029-7.013-.791-15.618-.17-24.924.263-3.919.591-7.948.926-12.046.464-5.696.94-11.523 1.261-17.37.565-10.258 5.72-21.97 10.984-31.39 5.268-9.427 10.744-16.727 12.103-18.184.755-.808.997-2.198.852-3.85-.14-1.607-.627-3.219-1.03-4.197a.921.921 0 01.501-1.202zM56.583.048a.921.921 0 011.165.582c.81 2.428 2.311 5.729 4.092 9.596l.32.695c1.692 3.673 3.588 7.79 5.303 12.026 1.824 4.503 3.455 9.17 4.424 13.618.966 4.438 1.29 8.73.437 12.454l-.007.033-.01.033c-2.3 7.447-5.674 19.144-8.325 30.021-1.326 5.44-2.468 10.662-3.205 15.04-.744 4.418-1.052 7.857-.78 9.799.643 4.58 1.425 7.771 2.06 10.362.086.349.17.687.249 1.016.67 2.772 1.121 4.98.826 7.64a.92.92 0 11-1.83-.204c.256-2.314-.121-4.25-.787-7.003-.078-.326-.16-.661-.246-1.009-.637-2.596-1.44-5.87-2.096-10.546-.317-2.259.047-5.961.787-10.36.747-4.44 1.9-9.71 3.232-15.171 2.659-10.907 6.038-22.622 8.344-30.096.758-3.342.487-7.318-.45-11.617-.937-4.304-2.525-8.861-4.33-13.32-1.698-4.193-3.578-8.274-5.273-11.954l-.317-.687c-1.765-3.834-3.317-7.238-4.165-9.784a.921.921 0 01.582-1.164zM26.482 41.077c.508 0 .92.413.92.921v19.525c0 5.07-.045 14.064-.415 23.04-.367 8.942-1.059 17.973-2.377 23.057-2.068 7.977-3.82 13.313-4.448 15.009a.922.922 0 01-1.728-.64c.6-1.62 2.335-6.893 4.393-14.831 1.261-4.863 1.951-13.7 2.32-22.67.368-8.938.414-17.903.414-22.965V41.998a.92.92 0 01.92-.92z" fill="#000"/><path fill-rule="evenodd" clip-rule="evenodd" d="M52.086 31.498a.92.92 0 01.92-.92c.675 0 1.318.287 1.88.68.573.4 1.134.96 1.663 1.625 1.06 1.332 2.065 3.181 2.824 5.326 1.517 4.282 2.109 9.908.015 15.18-2.473 6.23-5.872 16.195-8.651 25.774-1.39 4.788-2.622 9.47-3.505 13.532-.887 4.082-1.41 7.477-1.41 9.72 0 3.862-.77 8.457-1.824 12.579-1.052 4.11-2.412 7.851-3.64 9.984a.92.92 0 11-1.596-.919c1.105-1.919 2.416-5.472 3.452-9.522 1.033-4.038 1.767-8.469 1.767-12.122 0-2.454.56-6.013 1.451-10.111.895-4.117 2.139-8.841 3.535-13.654 2.793-9.624 6.21-19.645 8.71-25.94 1.885-4.749 1.372-9.898-.04-13.886-.705-1.991-1.62-3.651-2.53-4.794-.455-.572-.89-.992-1.276-1.262-.395-.276-.67-.349-.825-.349a.92.92 0 01-.92-.92z" fill="#000"/></svg>