<svg width="82" height="138" fill="none" xmlns="http://www.w3.org/2000/svg"><path opacity=".3" d="M2.07 72.54C.927 72.397.24 70.492.536 68.284.833 66.076 2 64.4 3.143 64.543c1.143.142 1.83 2.047 1.533 4.255-.296 2.209-1.463 3.884-2.606 3.742z" fill="#EB5757"/><path fill-rule="evenodd" clip-rule="evenodd" d="M28.507 17.1a.92.92 0 01.259 1.276c-4.031 6.083-8.96 14.528-13.286 22.81-4.334 8.295-8.028 16.361-9.624 21.705-1.723 5.768-1.95 9.91-1.357 12.824.587 2.884 1.975 4.58 3.574 5.53 1.628.968 3.565 1.213 5.29 1.01 1.769-.21 3.108-.862 3.632-1.45a.921.921 0 111.377 1.223c-.95 1.069-2.81 1.821-4.793 2.055-2.025.24-4.392-.033-6.447-1.253-2.083-1.238-3.757-3.398-4.438-6.748-.675-3.32-.374-7.788 1.397-13.718 1.65-5.524 5.415-13.722 9.756-22.032 4.35-8.324 9.31-16.826 13.383-22.973a.921.921 0 011.277-.26z" fill="#000"/><path fill-rule="evenodd" clip-rule="evenodd" d="M29.43 4.105a.921.921 0 011.21.484c.517 1.21 1.134 3.168 1.315 5.165.178 1.955-.04 4.205-1.502 5.712a.921.921 0 01-1.322-1.282c.884-.911 1.154-2.456.99-4.263-.16-1.764-.716-3.533-1.175-4.607a.921.921 0 01.484-1.21zM4.077 77.562a.921.921 0 011.067.747c1.4 7.936 1.441 18.429.778 27.856-.662 9.401-2.036 17.905-3.536 21.825a.921.921 0 01-1.72-.658c1.394-3.643 2.757-11.906 3.418-21.296.66-9.363.608-19.685-.754-27.407a.921.921 0 01.747-1.067zM64.04.051a.921.921 0 011.17.569c.925 2.668 2.409 5.916 4.142 9.671l.259.562c1.66 3.598 3.517 7.62 5.267 11.944 3.682 9.096 6.925 19.601 6.925 30.513 0 10.906-3.894 23.858-7.562 35.117-.444 1.362-.885 2.7-1.315 4.006-1.357 4.121-2.614 7.936-3.56 11.274-.622 2.196-1.102 4.16-1.386 5.849-.287 1.7-.362 3.06-.215 4.069.73 5.013 1.62 8.506 2.343 11.34.097.382.192.752.282 1.111.761 3.032 1.272 5.44.938 8.34a.921.921 0 01-1.83-.212c.293-2.54-.138-4.666-.895-7.679-.089-.356-.182-.723-.28-1.103-.723-2.84-1.635-6.419-2.381-11.531-.188-1.289-.077-2.87.221-4.641.3-1.783.8-3.82 1.43-6.045.958-3.379 2.232-7.247 3.593-11.378.428-1.3.865-2.626 1.303-3.97 3.682-11.3 7.472-23.979 7.472-34.547 0-10.565-3.144-20.813-6.79-29.822-1.733-4.282-3.573-8.268-5.237-11.872l-.255-.553c-1.722-3.732-3.249-7.068-4.209-9.84A.92.92 0 0164.04.05zM29.792 44.934a.92.92 0 01.921.92v21.359c0 5.545-.052 15.383-.472 25.2-.418 9.783-1.204 19.657-2.7 25.211-2.35 8.725-4.342 14.56-5.055 16.413a.92.92 0 01-1.72-.662c.684-1.775 2.657-7.545 4.996-16.23 1.435-5.326 2.22-14.997 2.64-24.81.417-9.778.47-19.585.47-25.122V45.855a.92.92 0 01.92-.921z" fill="#000"/><path fill-rule="evenodd" clip-rule="evenodd" d="M59.023 34.37a.92.92 0 01.92-.922c.722 0 1.423.297 2.052.72.638.43 1.268 1.033 1.866 1.757 1.197 1.448 2.336 3.462 3.197 5.803 1.72 4.675 2.391 10.816.018 16.567-2.812 6.818-6.676 17.72-9.836 28.2-1.58 5.238-2.98 10.36-3.985 14.806-1.009 4.465-1.603 8.184-1.603 10.643 0 4.219-.875 9.241-2.073 13.747-1.195 4.495-2.74 8.581-4.13 10.905a.92.92 0 11-1.58-.945c1.26-2.108 2.752-6.002 3.93-10.433 1.175-4.42 2.01-9.272 2.01-13.274 0-2.678.637-6.566 1.65-11.049 1.017-4.502 2.43-9.668 4.017-14.932 3.174-10.526 7.057-21.486 9.898-28.37 2.15-5.21 1.564-10.857-.045-15.229-.803-2.183-1.847-4.006-2.888-5.266-.52-.63-1.024-1.098-1.474-1.401-.46-.31-.802-.407-1.023-.407a.92.92 0 01-.921-.92z" fill="#000"/></svg>