<svg width="132" height="130" fill="none" xmlns="http://www.w3.org/2000/svg"><path fill-rule="evenodd" clip-rule="evenodd" d="M49.656.002a.921.921 0 01.985.853c.223 3.135-1.566 9.702-9.995 12.062-1.175.33-2.486.637-3.892.968-4.714 1.107-10.487 2.464-15.762 5.7-6.735 4.131-12.63 11.353-13.797 25.254-.954 11.368-2.049 19.188-3.033 24.352-.493 2.582-.96 4.51-1.37 5.89-.4 1.34-.775 2.265-1.121 2.75a.92.92 0 11-1.5-1.07c.15-.21.455-.862.855-2.206.388-1.303.842-3.167 1.326-5.709.97-5.082 2.057-12.834 3.007-24.16 1.214-14.467 7.42-22.223 14.67-26.671 5.558-3.41 11.748-4.86 16.482-5.97 1.347-.316 2.576-.604 3.639-.902C47.592 9.06 48.976 3.406 48.803.987a.921.921 0 01.853-.985zm32.284 0a.921.921 0 00-.984.853c-.224 3.135 1.566 9.702 9.994 12.062 1.176.33 2.487.637 3.892.968 4.714 1.107 10.488 2.464 15.762 5.7 6.735 4.131 12.631 11.353 13.797 25.254.954 11.368 2.049 19.188 3.034 24.352.492 2.582.959 4.51 1.37 5.89.4 1.34.774 2.265 1.121 2.75a.921.921 0 001.499-1.07c-.149-.21-.454-.862-.854-2.206-.389-1.303-.842-3.167-1.327-5.709-.969-5.082-2.057-12.834-3.007-24.16-1.214-14.467-7.419-22.223-14.67-26.671-5.558-3.41-11.748-4.86-16.482-5.97-1.347-.316-2.575-.604-3.638-.902C84.005 9.06 82.62 3.406 82.793.987a.921.921 0 00-.853-.985zM26.461 49.21a.921.921 0 01.761 1.056c-.845 5.2-2.049 20.896.008 41.619 2.067 20.831.874 33.289-.021 37.006a.92.92 0 11-1.791-.431c.824-3.424 2.038-15.644-.021-36.393-2.07-20.856-.867-36.715.007-42.096a.921.921 0 011.057-.762zm82.401 26.416c.508 0 .921.412.921.921 0 2.715 1.386 6.6 3.226 10.466a83.126 83.126 0 005.461 9.654.921.921 0 01-1.533 1.02c-1.494-2.242-3.727-5.968-5.591-9.883-1.844-3.872-3.405-8.09-3.405-11.257a.92.92 0 01.921-.921z" fill="#000"/><path fill-rule="evenodd" clip-rule="evenodd" d="M25.235 75.626a.92.92 0 00-.92.921c0 2.715-1.386 6.6-3.227 10.466-1.82 3.823-4.007 7.471-5.46 9.654a.921.921 0 001.532 1.02c1.494-2.242 3.727-5.968 5.591-9.883 1.844-3.872 3.405-8.09 3.405-11.257a.92.92 0 00-.92-.921zm82.214-26.416a.92.92 0 00-.761 1.056c.845 5.2 2.049 20.896-.008 41.619-2.067 20.831-.874 33.289.021 37.006a.921.921 0 101.791-.431c-.824-3.424-2.038-15.644.021-36.393 2.07-20.856.867-36.715-.007-42.096a.921.921 0 00-1.057-.762z" fill="#000"/><path opacity=".3" d="M44.024 65.863c0 1.628-1.732 2.947-3.868 2.947-2.137 0-3.869-1.32-3.869-2.947s1.732-2.947 3.869-2.947c2.136 0 3.868 1.32 3.868 2.947zm53.786 0c0 1.628-1.732 2.947-3.868 2.947-2.137 0-3.868-1.32-3.868-2.947s1.731-2.947 3.868-2.947c2.136 0 3.868 1.32 3.868 2.947z" fill="#EB5757"/><path fill-rule="evenodd" clip-rule="evenodd" d="M36.232 65.067a.92.92 0 01.921.921c0 .944 1.06 2.055 2.848 2.055 1.788 0 2.849-1.11 2.849-2.055a.92.92 0 111.841 0c0 2.344-2.314 3.897-4.69 3.897-2.375 0-4.69-1.553-4.69-3.897a.92.92 0 01.921-.92z" fill="#000"/><path d="M41.787 65.194c0 .767-.8 1.389-1.786 1.389s-1.785-.622-1.785-1.389.8-1.388 1.785-1.388c.986 0 1.786.621 1.786 1.388z" fill="#000"/><path fill-rule="evenodd" clip-rule="evenodd" d="M58.844 62.368c.507.047.88.495.833 1.002-.27 2.924-1.68 7.129-5.057 10.326-3.414 3.234-8.739 5.342-16.624 4.192a.921.921 0 01.266-1.823c7.402 1.08 12.139-.91 15.091-3.706 2.99-2.833 4.252-6.589 4.49-9.158a.921.921 0 011.001-.833zm17.146 0a.921.921 0 00-.833 1.002c.27 2.924 1.68 7.129 5.057 10.326 3.414 3.234 8.739 5.342 16.624 4.192a.921.921 0 00-.266-1.823c-7.402 1.08-12.139-.91-15.091-3.706-2.991-2.833-4.252-6.589-4.49-9.158a.92.92 0 00-1.001-.833zm14.2 2.7c.51 0 .922.413.922.921 0 .944 1.06 2.055 2.848 2.055 1.788 0 2.848-1.11 2.848-2.055a.921.921 0 011.842 0c0 2.343-2.315 3.897-4.69 3.897-2.376 0-4.69-1.554-4.69-3.897a.92.92 0 01.92-.92z" fill="#000"/><path d="M95.745 65.195c0 .767-.8 1.389-1.785 1.389-.986 0-1.785-.622-1.785-1.389s.799-1.388 1.785-1.388c.986 0 1.785.621 1.785 1.388z" fill="#000"/></svg>