<svg width="142" height="140" fill="none" xmlns="http://www.w3.org/2000/svg"><path fill-rule="evenodd" clip-rule="evenodd" d="M53.505.002a.921.921 0 01.985.853c.24 3.354-1.676 10.403-10.73 12.938-1.264.354-2.675.686-4.189 1.042-5.087 1.195-11.332 2.662-17.033 6.16-7.287 4.47-13.66 12.282-14.92 27.302-1.03 12.263-2.21 20.698-3.272 26.266-.53 2.783-1.034 4.86-1.477 6.347-.43 1.446-.832 2.433-1.198 2.946a.921.921 0 01-1.5-1.071c.17-.236.501-.951.933-2.4.42-1.41.91-3.424 1.433-6.167 1.046-5.487 2.22-13.853 3.245-26.075 1.308-15.585 7.99-23.932 15.792-28.718 5.985-3.672 12.647-5.233 17.754-6.43 1.455-.342 2.784-.653 3.935-.975 8.068-2.26 9.578-8.395 9.39-11.033a.92.92 0 01.852-.985zm34.821 0a.921.921 0 00-.985.853c-.24 3.354 1.676 10.403 10.73 12.938 1.264.354 2.675.686 4.189 1.042 5.087 1.195 11.332 2.662 17.033 6.16 7.287 4.47 13.66 12.282 14.921 27.302 1.029 12.263 2.209 20.698 3.271 26.266.531 2.783 1.034 4.86 1.477 6.347.431 1.446.832 2.433 1.198 2.946a.921.921 0 001.499-1.071c-.168-.236-.5-.951-.932-2.4-.42-1.41-.909-3.424-1.433-6.167-1.046-5.487-2.219-13.853-3.245-26.075-1.308-15.585-7.99-23.932-15.792-28.718-5.985-3.672-12.647-5.233-17.754-6.43-1.456-.342-2.784-.653-3.936-.975C90.5 9.76 88.99 3.625 89.18.987a.92.92 0 00-.853-.985zM28.464 53.09a.921.921 0 01.761 1.057c-.274 1.69-.586 4.422-.826 8.04a.921.921 0 11-1.838-.122c.242-3.654.56-6.448.846-8.213a.921.921 0 011.057-.762zm-.25 31.499l.063 1.441c.193 4.084.5 8.447.956 13.037 2.23 22.471.941 35.902-.021 39.901a.92.92 0 11-1.791-.431c.892-3.705 2.2-16.899-.021-39.288a254.829 254.829 0 01-1.032-14.68l-.003-.072v-.026l-.001-.024a.966.966 0 01.005-.1c.02-.117.847-.82 1.717-.356.061.13.107.298.111.328l.005.039.001.015.001.013v.01l.01.193zm87.361-31.499a.92.92 0 00-.761 1.057c.274 1.69.586 4.422.826 8.04a.92.92 0 101.838-.122c-.242-3.654-.559-6.448-.846-8.213a.921.921 0 00-1.057-.762zm.25 31.499l-.063 1.441a252.64 252.64 0 01-.956 13.037c-2.23 22.471-.941 35.902.021 39.901a.921.921 0 101.791-.431c-.892-3.705-2.201-16.899.021-39.288.459-4.624.769-9.019.963-13.134.025-.52.058-1.29.069-1.545l.003-.073v-.026l.001-.024v-.022l-.006-.078c-.02-.117-.846-.82-1.716-.356a1.74 1.74 0 00-.111.328l-.005.039-.001.015-.001.013-.001.01-.009.193z" fill="#000"/><path fill-rule="evenodd" clip-rule="evenodd" d="M117.34 82.206a.921.921 0 01.974.865c.177 3.02 1.714 7.133 3.656 11.152 1.927 3.987 4.191 7.755 5.711 10.037a.92.92 0 11-1.533 1.021c-1.56-2.342-3.867-6.183-5.836-10.256-1.953-4.04-3.637-8.437-3.837-11.846a.92.92 0 01.865-.973zm-90.189 1.112a.921.921 0 00-1.042.781c-.442 3.088-2.01 7.023-3.873 10.783-1.853 3.74-3.953 7.222-5.388 9.378a.921.921 0 001.533 1.021c1.474-2.213 3.614-5.763 5.505-9.581 1.882-3.798 3.562-7.95 4.047-11.34a.921.921 0 00-.782-1.042z" fill="#000"/><path opacity=".3" d="M44.021 74.836c0 1.627-2.062 2.947-4.605 2.947-2.543 0-4.605-1.32-4.605-2.947 0-1.628 2.062-2.947 4.605-2.947 2.544 0 4.605 1.32 4.605 2.947zm64.838 0c0 1.627-2.061 2.947-4.605 2.947-2.543 0-4.605-1.32-4.605-2.947 0-1.628 2.062-2.947 4.605-2.947 2.544 0 4.605 1.32 4.605 2.947z" fill="#EB5757"/><path fill-rule="evenodd" clip-rule="evenodd" d="M34.597 74.621a.92.92 0 01.92.921c0 1.073 1.194 2.29 3.146 2.29s3.146-1.216 3.146-2.29a.921.921 0 011.842 0c0 2.473-2.448 4.131-4.988 4.131-2.54 0-4.987-1.658-4.987-4.13a.92.92 0 01.92-.922z" fill="#000"/><path d="M40.59 74.686c0 .827-.863 1.498-1.927 1.498s-1.926-.67-1.926-1.498.862-1.499 1.926-1.499 1.926.671 1.926 1.499z" fill="#000"/><path fill-rule="evenodd" clip-rule="evenodd" d="M100.179 74.622a.92.92 0 01.921.921c0 1.073 1.194 2.29 3.146 2.29s3.145-1.217 3.145-2.29a.92.92 0 111.842 0c0 2.473-2.448 4.131-4.987 4.131-2.54 0-4.988-1.658-4.988-4.13 0-.51.413-.922.921-.922z" fill="#000"/><path d="M106.172 74.687c0 .827-.863 1.498-1.926 1.498-1.064 0-1.927-.67-1.927-1.498s.863-1.498 1.927-1.498c1.063 0 1.926.67 1.926 1.498z" fill="#000"/><path fill-rule="evenodd" clip-rule="evenodd" d="M31.831 57.573a.92.92 0 01-.11 1.298c-4.086 3.449-6.672 8.578-6.672 14.306 0 10.368 8.486 18.788 18.972 18.788s18.973-8.42 18.973-18.788c0-5.728-2.587-10.857-6.673-14.306a.92.92 0 111.188-1.408c4.48 3.782 7.327 9.418 7.327 15.714 0 11.401-9.327 20.63-20.815 20.63-11.487 0-20.814-9.229-20.814-20.63 0-6.296 2.846-11.932 7.326-15.714a.92.92 0 011.298.11zm80.377 0a.92.92 0 00.11 1.298c4.086 3.449 6.672 8.578 6.672 14.306 0 10.368-8.486 18.788-18.972 18.788-10.487 0-18.973-8.42-18.973-18.788 0-5.728 2.587-10.857 6.673-14.306a.92.92 0 10-1.188-1.408c-4.48 3.782-7.327 9.418-7.327 15.714 0 11.401 9.327 20.63 20.815 20.63 11.487 0 20.814-9.229 20.814-20.63 0-6.296-2.846-11.932-7.326-15.714a.921.921 0 00-1.298.11z" fill="#000"/></svg>