<svg width="109" height="159" fill="none" xmlns="http://www.w3.org/2000/svg"><path opacity=".3" d="M2.319 82.768C1.039 82.383.622 80.07 1.39 77.6s2.429-4.16 3.71-3.776c1.28.385 1.696 2.699.928 5.168-.768 2.47-2.428 4.16-3.709 3.776z" fill="#EB5757"/><path fill-rule="evenodd" clip-rule="evenodd" d="M43.55 18.268c.453.23.635.784.406 1.238C39.409 28.5 31.548 38.17 24.052 47.393l-1.856 2.286c-4.03 4.969-7.867 9.784-10.968 14.3-3.108 4.528-5.429 8.689-6.474 12.348-1.84 6.44-1.122 11.706 1.04 15.688 2.166 3.993 5.827 6.78 10.02 8.173 8.407 2.795 18.732-.061 23.085-9.794a.921.921 0 011.681.752c-4.81 10.753-16.214 13.826-25.348 10.79-4.58-1.522-8.641-4.59-11.058-9.043C1.752 88.43 1.03 82.658 2.983 75.821c1.128-3.951 3.586-8.31 6.726-12.884 3.148-4.585 7.03-9.452 11.056-14.418l1.825-2.248c7.535-9.272 15.27-18.788 19.722-27.596a.921.921 0 011.237-.407z" fill="#000"/><path fill-rule="evenodd" clip-rule="evenodd" d="M48.762 3.867a.921.921 0 011.209.485c.707 1.653.392 3.897-.33 5.941-.737 2.09-1.983 4.212-3.45 5.724a.921.921 0 01-1.322-1.282c1.255-1.295 2.373-3.178 3.036-5.055.678-1.923.8-3.606.372-4.603a.921.921 0 01.485-1.21zm-30.318 97.088a.92.92 0 011.067.747c3.234 18.324.528 37.715-2.898 46.662a.921.921 0 01-1.72-.658c3.296-8.61 5.985-27.661 2.804-45.684a.92.92 0 01.747-1.067zM88.365.051a.921.921 0 011.172.569c1.076 3.105 2.801 6.882 4.812 11.24l.3.65c1.928 4.178 4.082 8.843 6.112 13.86 4.271 10.55 8.027 22.724 8.027 35.362 0 12.633-4.511 27.644-8.77 40.716-.515 1.581-1.026 3.132-1.525 4.648-1.576 4.784-3.036 9.217-4.135 13.095-.723 2.551-1.282 4.837-1.613 6.805-.333 1.979-.424 3.576-.25 4.769.85 5.827 1.885 9.888 2.723 13.179.113.443.222.871.327 1.289.883 3.517 1.47 6.29 1.085 9.627a.921.921 0 01-1.83-.212c.344-2.978-.163-5.468-1.041-8.967l-.325-1.281c-.84-3.296-1.898-7.443-2.762-13.369-.215-1.474-.089-3.291.256-5.341.347-2.062.926-4.421 1.657-7.001 1.111-3.919 2.589-8.405 4.168-13.199.497-1.509 1.004-3.049 1.513-4.612 4.272-13.112 8.68-27.851 8.68-40.146 0-12.29-3.656-24.207-7.892-34.672-2.013-4.973-4.15-9.603-6.081-13.786l-.297-.642c-2-4.334-3.768-8.2-4.88-11.41a.921.921 0 01.57-1.171zM48.564 52.156a.92.92 0 01.921.921V77.87c0 6.436-.06 17.854-.547 29.246-.486 11.358-1.398 22.802-3.13 29.231-2.727 10.124-5.038 16.893-5.863 19.036a.92.92 0 11-1.719-.661c.795-2.066 3.087-8.77 5.803-18.854 1.671-6.201 2.582-17.443 3.068-28.831.486-11.353.546-22.739.546-29.167V53.077c0-.508.413-.92.921-.92z" fill="#000"/><path fill-rule="evenodd" clip-rule="evenodd" d="M82.642 39.746a.92.92 0 01.92-.92c.798 0 1.583.328 2.3.81.725.488 1.446 1.178 2.134 2.01 1.377 1.666 2.691 3.989 3.686 6.693 1.988 5.403 2.76 12.491.024 19.123-3.268 7.919-7.754 20.578-11.423 32.747-1.835 6.083-3.461 12.032-4.628 17.197-1.172 5.184-1.865 9.514-1.865 12.386 0 4.88-1.012 10.695-2.4 15.919-1.386 5.213-3.175 9.939-4.779 12.621a.921.921 0 01-1.58-.946c1.474-2.464 3.21-6.999 4.578-12.148 1.366-5.137 2.339-10.783 2.339-15.446 0-3.091.735-7.591 1.91-12.792 1.18-5.221 2.82-11.215 4.661-17.323 3.683-12.214 8.189-24.932 11.484-32.917 2.513-6.092 1.827-12.686-.05-17.785-.937-2.546-2.156-4.678-3.377-6.156-.61-.739-1.204-1.293-1.743-1.655-.546-.368-.973-.497-1.27-.497a.921.921 0 01-.921-.92z" fill="#000"/></svg>