<svg width="162" height="160" fill="none" xmlns="http://www.w3.org/2000/svg"><path fill-rule="evenodd" clip-rule="evenodd" d="M61.015.002a.921.921 0 01.984.853c.27 3.782-1.889 11.77-12.164 14.648-1.436.402-3.043.78-4.769 1.185-5.814 1.366-12.98 3.05-19.514 7.058-8.363 5.13-15.667 14.095-17.11 31.298-1.176 14.009-2.524 23.641-3.737 29.998-.606 3.177-1.18 5.546-1.684 7.24-.492 1.652-.946 2.76-1.35 3.326a.92.92 0 11-1.5-1.07c.208-.29.591-1.126 1.085-2.783.481-1.616 1.042-3.92 1.64-7.058 1.197-6.275 2.538-15.84 3.71-29.807 1.491-17.768 9.105-27.267 17.983-32.714 6.818-4.183 14.4-5.96 20.235-7.328 1.667-.391 3.191-.749 4.514-1.119 9.29-2.6 11.043-9.676 10.824-12.742a.92.92 0 01.853-.985zm39.768 0a.921.921 0 00-.985.853c-.27 3.782 1.889 11.77 12.165 14.648 1.435.402 3.042.78 4.768 1.185 5.814 1.366 12.98 3.05 19.514 7.058 8.363 5.13 15.667 14.095 17.111 31.298 1.175 14.009 2.524 23.641 3.736 29.998.606 3.177 1.18 5.546 1.684 7.24.493 1.652.947 2.76 1.351 3.326a.921.921 0 001.499-1.07c-.207-.29-.591-1.126-1.084-2.783-.482-1.616-1.042-3.92-1.641-7.058-1.196-6.275-2.538-15.84-3.71-29.807-1.491-17.768-9.104-27.267-17.982-32.714-6.819-4.183-14.401-5.96-20.235-7.328-1.667-.391-3.192-.749-4.515-1.119-9.289-2.6-11.042-9.676-10.823-12.742a.921.921 0 00-.853-.985zM32.371 60.66a.921.921 0 01.762 1.057c-.315 1.936-.672 5.063-.946 9.2a.921.921 0 11-1.838-.122c.276-4.173.639-7.362.965-9.373a.921.921 0 011.057-.761zm-.396 35.868l.072 1.647c.22 4.669.572 9.656 1.093 14.904 2.547 25.669 1.074 40.999-.021 45.548a.92.92 0 11-1.79-.431c1.023-4.255 2.517-19.347-.022-44.935a291.055 291.055 0 01-1.178-16.766l-.003-.083-.001-.028v-.024a.967.967 0 01.005-.1c.02-.117.846-.82 1.716-.356.061.13.107.298.111.328l.005.039.001.015.001.013.001.011.01.218zm99.974-35.868a.92.92 0 00-.761 1.057c.314 1.936.671 5.063.945 9.2a.921.921 0 001.838-.122c-.276-4.173-.638-7.362-.965-9.373a.921.921 0 00-1.057-.761zm.396 35.868l-.072 1.647a289.611 289.611 0 01-1.093 14.904c-2.547 25.669-1.074 40.999.021 45.548a.921.921 0 101.791-.431c-1.024-4.255-2.518-19.347.021-44.935a291.298 291.298 0 001.178-16.766l.004-.083.001-.028v-.046l-.005-.078c-.021-.117-.847-.82-1.717-.356a1.74 1.74 0 00-.111.328l-.005.039-.001.015-.001.013-.001.011-.01.218z" fill="#000"/><path fill-rule="evenodd" clip-rule="evenodd" d="M133.953 93.93a.921.921 0 01.973.866c.205 3.477 1.971 8.198 4.191 12.792 2.205 4.561 4.795 8.872 6.535 11.484a.921.921 0 01-1.534 1.021c-1.779-2.672-4.412-7.055-6.659-11.703-2.231-4.616-4.144-9.619-4.372-13.486a.921.921 0 01.866-.974zM30.874 95.2a.921.921 0 00-1.042.781c-.508 3.55-2.309 8.061-4.439 12.361-2.12 4.279-4.522 8.262-6.165 10.729a.921.921 0 001.534 1.021c1.68-2.525 4.123-6.575 6.282-10.932 2.148-4.337 4.06-9.065 4.611-12.918a.921.921 0 00-.781-1.042z" fill="#000"/><path opacity=".3" d="M48.943 85.654c0 2.238-2.474 4.052-5.526 4.052-3.052 0-5.526-1.814-5.526-4.052 0-2.238 2.474-4.052 5.526-4.052 3.052 0 5.526 1.814 5.526 4.052zm76.995 0c0 2.238-2.474 4.052-5.526 4.052-3.052 0-5.526-1.814-5.526-4.052 0-2.238 2.474-4.052 5.526-4.052 3.052 0 5.526 1.814 5.526 4.052z" fill="#EB5757"/><path fill-rule="evenodd" clip-rule="evenodd" d="M39.4 85.266a.92.92 0 01.92.92c0 1.327 1.454 2.748 3.726 2.748 2.273 0 3.726-1.421 3.726-2.747a.921.921 0 011.842 0c0 2.725-2.708 4.589-5.568 4.589-2.86 0-5.567-1.864-5.567-4.59a.92.92 0 01.92-.92z" fill="#000"/><path d="M46.247 85.208c0 .945-.985 1.712-2.2 1.712-1.216 0-2.202-.767-2.202-1.712s.986-1.712 2.201-1.712c1.216 0 2.201.767 2.201 1.712z" fill="#000"/><path fill-rule="evenodd" clip-rule="evenodd" d="M114.336 85.264a.92.92 0 01.921.92c0 1.327 1.453 2.748 3.726 2.748 2.272 0 3.725-1.421 3.725-2.747a.921.921 0 011.842 0c0 2.725-2.707 4.589-5.567 4.589-2.86 0-5.568-1.864-5.568-4.59 0-.508.413-.92.921-.92z" fill="#000"/><path d="M121.184 85.207c0 .945-.986 1.712-2.201 1.712-1.216 0-2.201-.767-2.201-1.712s.985-1.712 2.201-1.712c1.215 0 2.201.766 2.201 1.712z" fill="#000"/><path fill-rule="evenodd" clip-rule="evenodd" d="M34.337 61.425a.92.92 0 01.693 1.103c-.954 4.167-2.18 7.225-3.252 9.898-.193.481-.38.95-.561 1.41-1.18 3.01-2.05 5.688-2.05 9.367 0 6.79 2.027 12.447 5.683 16.396 3.648 3.941 8.996 6.27 15.823 6.27 13.635 0 24.61-10.146 24.61-23.531 0-.557-.015-1.165-.031-1.81-.04-1.598-.086-3.417.081-5.21.24-2.558.918-5.238 2.725-7.547a.921.921 0 011.45 1.135c-1.508 1.927-2.12 4.216-2.34 6.584-.158 1.679-.116 3.311-.077 4.867.018.675.034 1.337.034 1.98 0 14.499-11.897 25.374-26.452 25.374-7.267 0-13.132-2.493-17.175-6.86-4.034-4.359-6.173-10.496-6.173-17.648 0-4.02.966-6.95 2.177-10.038.186-.476.378-.955.573-1.442 1.07-2.669 2.24-5.59 3.16-9.606a.92.92 0 011.102-.692zm95.891 0a.922.922 0 00-.692 1.103c.954 4.167 2.18 7.225 3.252 9.898.193.481.381.95.561 1.41 1.18 3.01 2.05 5.688 2.05 9.367 0 6.79-2.027 12.447-5.683 16.396-3.648 3.941-8.996 6.27-15.823 6.27-13.635 0-24.61-10.146-24.61-23.531 0-.557.015-1.165.031-1.81.04-1.598.086-3.417-.081-5.21-.24-2.558-.918-5.238-2.725-7.547a.921.921 0 00-1.45 1.135c1.508 1.927 2.12 4.216 2.34 6.584.157 1.679.116 3.311.077 4.867a74.911 74.911 0 00-.034 1.98c0 14.499 11.897 25.374 26.452 25.374 7.267 0 13.132-2.493 17.175-6.86 4.034-4.359 6.173-10.496 6.173-17.648 0-4.02-.966-6.95-2.177-10.038-.186-.476-.378-.955-.573-1.442-1.07-2.669-2.24-5.59-3.159-9.606a.922.922 0 00-1.104-.692z" fill="#000"/></svg>