<svg width="50" height="40" fill="none" xmlns="http://www.w3.org/2000/svg"><path d="M25.136 39.947c-1.686-.218-3.307-.359-4.905-.653-1.61-.304-3.23-.674-4.786-1.174-1.544-.5-3.067-1.11-4.503-1.86a26.583 26.583 0 01-4.133-2.676c-1.283-1.022-2.381-2.262-3.643-3.48-.37.185-.848.479-1.36.685a5.296 5.296 0 01-1.283.326c-.174.022-.511-.195-.522-.304-.01-.272.065-.62.25-.805.229-.228.577-.38.903-.478 2.762-.762 5.155-2.263 7.602-3.676 2.49-1.436 4.949-2.948 7.625-4.025 1.598-.641 3.24-1.142 4.97-1.283 1.925-.152 3.676.185 5.144 1.555 3.154-2.142 6.493-1.849 9.843-.696 3.317 1.153 6.34 2.828 8.799 5.417 1.033 1.087 2.23 1.642 3.752 1.261.218-.054.5-.076.696.011.185.087.392.337.414.544.021.152-.207.446-.37.49-.38.108-.783.108-1.175.14-.12.012-.315 0-.359-.065-.435-.772-1.348-.435-1.968-.913-.055.315-.098.576-.153.837-.51 2.621-2.131 4.525-4.11 6.145-2.622 2.154-5.71 3.307-8.995 3.992-1.36.282-2.752.446-4.144.663h.707l-4.296.022zM3.6 29.876c-.022.076-.054.152-.076.228 1.11.957 2.153 2.001 3.339 2.85 6.852 4.926 14.574 6.558 22.85 5.742 4.1-.402 7.842-1.98 11.203-4.383 1.523-1.088 2.806-2.404 3.47-4.22.14-.391.228-.805.358-1.261-.184 0-.25-.011-.326 0-2.403.271-4.774-.011-7.145-.305-.751-.098-1.523-.272-2.263-.196-1.435.142-2.86.446-4.285.675-1.338.206-2.675.445-4.024.587-2.11.228-4.187-.163-6.265-.49-1.675-.26-3.339-.38-5.025-.163-2.327.305-4.655.664-7.004.87-1.272.11-2.567-.065-3.85-.098-.326.011-.642.11-.957.164zm3.154-1.523c1.175 0 2.251.098 3.306-.022 3.405-.391 6.809-.696 10.246-.696 1.207 0 2.447.13 3.632-.054a31.302 31.302 0 017.744-.25c1.947.174 3.883.424 5.84.587 1.806.152 3.611.294 5.417.348.827.022 1.708.054 2.512-.457-.51-.457-.99-.924-1.5-1.36-3.285-2.805-6.983-4.785-11.312-5.361-1.914-.25-3.752.054-5.449 1.044-.152.087-.359.206-.38.337-.098.63-.49.315-.707.196-2.534-1.48-5.156-1.708-7.918-.696-4.155 1.5-7.548 4.274-11.43 6.384zm17.49-25.722c-.696.261-1.48.174-2.186-.152-1.044-.479-2.012-.555-3.143-.24-.849.24-1.828.088-2.741.066-.261-.011-.555-.098-.75-.261-.294-.229-.697-.566-.697-.849 0-.293.381-.674.685-.87.718-.456 1.534-.359 2.317-.152.816.218 1.61.533 2.436.74.794.195 1.425.707 2.154 1.011.63.283 1.305.49 1.925.707zm4.666-.087c1.196-.087 2.186-.652 3.165-1.283.239-.153.565-.185.848-.272 1.055-.316 2.1-.675 3.176-.914.783-.174 1.555-.032 2.153.588.403.413.403.859-.087 1.13-.522.283-1.12.512-1.707.588-1.099.141-2.197-.044-3.263-.37-.261-.076-.587-.043-.86.033-.663.185-1.283.49-1.957.63-.468.099-.99.022-1.48.022 0-.043 0-.098.012-.152z" fill="#000"/><rect x="3.959" y="23.261" width=".356" height="3.564" rx=".178" fill="#000"/><path d="M5.74 23.439a.178.178 0 01.357 0v1.425a.178.178 0 11-.356 0V23.44zm9.446-3.564a.178.178 0 11.356 0v.534a.178.178 0 01-.356 0v-.534zm1.247 0a.178.178 0 11.356 0V21.3a.178.178 0 01-.356 0v-1.425zm19.603-.357a.178.178 0 00.356 0v-.534a.178.178 0 00-.356 0v.534zm9.802 7.128a.178.178 0 10.356 0v-.534a.178.178 0 00-.356 0v.534zm-8.911-6.236a.178.178 0 00.356 0v-1.426a.178.178 0 10-.356 0v1.425zm9.802 6.236a.178.178 0 10.356 0v-1.425a.178.178 0 00-.356 0v1.425z" fill="#000"/></svg>