<svg width="61" height="84" fill="none" xmlns="http://www.w3.org/2000/svg"><path d="M50.415 16a1.04 1.04 0 00-2.078.08c.18 4.657 1.19 7.625 2.168 10.495 1.031 3.032 2.006 5.896 2.006 10.704a1.04 1.04 0 102.08 0c0-5.153-1.077-8.316-2.117-11.375-.972-2.854-1.89-5.55-2.059-9.904zM11.26 15a1.04 1.04 0 00-1.08 1c-.17 4.353-1.087 7.05-2.059 9.905-1.04 3.058-2.117 6.221-2.117 11.374a1.04 1.04 0 002.08 0c0-4.808.975-7.672 2.007-10.704.977-2.87 1.987-5.838 2.167-10.495A1.04 1.04 0 0011.26 15z" opacity=".2" fill="#4F4F4F"/><mask id="a" maskUnits="userSpaceOnUse" x="0" y="0" width="61" height="15"><path fill="#C4C4C4" d="M0 0h61v15H0z"/></mask><g opacity=".2" fill="#4F4F4F" mask="url(#a)"><path d="M7.871-14.891c-1.565 1.988-2.403 4.546-2.3 7.017-1.374 1.301 4.562 6.26 5.518 11.009.146.727.427 2.421.427 2.421l.303 2.253s.311 3.156.392 4.989a1.05 1.05 0 01-.993 1.085 1.05 1.05 0 01-1.085-.994C9.91 7.8 9.223 4.073 8.651 1.752c-2.994-2.169-4.994-5.62-5.158-9.54-.117-2.81.78-5.708 2.47-8.025-.27-1.667-1.627-8.303-6.664-13.417a1.04 1.04 0 111.482-1.46c4.006 4.068 5.856 8.905 6.682 11.978.282-1.189.23-2.464-.173-3.718a1.04 1.04 0 011.98-.637c.915 2.844.392 5.9-1.399 8.176zM59.814-30.69a1.04 1.04 0 111.482 1.46c-5.037 5.114-6.393 11.75-6.664 13.417 1.69 2.317 2.587 5.215 2.47 8.026-.164 3.919-2.164 7.37-5.157 9.539-.572 2.321-1.259 6.047-1.483 11.137a1.05 1.05 0 01-1.085.994 1.05 1.05 0 01-.994-1.085c.082-1.833.394-4.99.394-4.99l.302-2.252s.281-1.694.427-2.422c.584-3.739 3.922-8.896 5.517-11.008.104-2.47-.734-5.029-2.299-7.017-1.79-2.276-2.313-5.333-1.4-8.176a1.04 1.04 0 011.98.637c-.402 1.254-.454 2.529-.172 3.717.826-3.072 2.676-7.91 6.682-11.977z"/></g><path d="M7.153 40c-.667 7.167.5 25.7 10.5 42.5M53.5 40c.667 7.167-.5 25.7-10.5 42.5M28.5 82c-.833-2 1.5-11 1.5-34m2.5 34c.833-2-1.5-8.5-1.5-31.5m-1-2.572a9.467 9.467 0 01-6.5 2.572 9.494 9.494 0 01-8.08-4.5M31 48.293C32.912 49.972 35.484 51 38.313 51c4.172 0 7.786-2.237 9.546-5.5M30 48c.694-1.19 1.552-3.58 1.546-6.5" stroke="#4F4F4F" stroke-width="2" stroke-linecap="round"/><path d="M32.7 34.541a.35.35 0 11-.7 0v-.191a.35.35 0 11.7 0v.191zM32 30.35a.35.35 0 11.7 0v.191a.35.35 0 11-.7 0v-.191zm-1 1a.35.35 0 11.7 0v.191a.35.35 0 11-.7 0v-.191zm2-2a.35.35 0 11.7 0v.191a.35.35 0 11-.7 0v-.191zm1 1a.35.35 0 11.7 0v.191a.35.35 0 11-.7 0v-.191zm-2 2a.35.35 0 11.7 0v.191a.35.35 0 11-.7 0v-.191zm-1 2a.35.35 0 11.7 0v.191a.35.35 0 11-.7 0v-.191zm-1-2a.35.35 0 11.7 0v.191a.35.35 0 11-.7 0v-.191z" fill="#4F4F4F"/><path d="M32 34.541a.35.35 0 10.7 0v-.191a.35.35 0 10-.7 0v.191zm.7-4.191a.35.35 0 10-.7 0v.191a.35.35 0 10.7 0v-.191zm1 1a.35.35 0 10-.7 0v.191a.35.35 0 10.7 0v-.191zm-2-2a.35.35 0 10-.7 0v.191a.35.35 0 10.7 0v-.191zm-1 1a.35.35 0 10-.7 0v.191a.35.35 0 10.7 0v-.191zm2 2a.35.35 0 10-.7 0v.191a.35.35 0 10.7 0v-.191zm1 2a.35.35 0 10-.7 0v.191a.35.35 0 10.7 0v-.191zm1-2a.35.35 0 10-.7 0v.191a.35.35 0 10.7 0v-.191z" fill="#4F4F4F"/></svg>