<svg width="59" height="70" fill="none" xmlns="http://www.w3.org/2000/svg"><path d="M33.661 31.921c-1.347-.174-2.641-.286-3.919-.521-1.285-.243-2.58-.539-3.823-.938-1.233-.4-2.45-.887-3.597-1.486a21.243 21.243 0 01-3.301-2.137c-1.026-.817-1.903-1.808-2.911-2.78-.295.147-.678.381-1.086.546a4.23 4.23 0 01-1.025.261c-.14.018-.409-.156-.417-.243-.009-.217.052-.495.2-.643.182-.183.46-.304.72-.382 2.208-.609 4.12-1.808 6.074-2.937 1.99-1.147 3.953-2.355 6.09-3.215 1.278-.513 2.59-.912 3.971-1.025 1.538-.122 2.937.148 4.11 1.242 2.52-1.711 5.187-1.477 7.863-.556 2.65.921 5.066 2.26 7.03 4.327.825.869 1.78 1.312 2.997 1.008.174-.043.4-.06.556.009.148.07.313.27.33.434.018.122-.165.356-.295.391-.304.087-.626.087-.939.113-.095.009-.251 0-.286-.052-.348-.617-1.078-.348-1.573-.73-.043.252-.078.46-.121.67-.409 2.093-1.703 3.614-3.285 4.908-2.094 1.72-4.561 2.642-7.185 3.189-1.086.226-2.198.356-3.31.53h.564l-3.432.017zm-17.195-8.054c-.017.06-.043.122-.06.182.886.765 1.72 1.6 2.667 2.277 5.474 3.936 11.643 5.24 18.255 4.587 3.275-.321 6.264-1.58 8.949-3.501 1.216-.869 2.242-1.92 2.772-3.371.113-.313.182-.643.286-1.008-.147 0-.2-.009-.26 0-1.92.217-3.815-.009-5.709-.243-.6-.079-1.216-.218-1.807-.157-1.147.113-2.285.356-3.423.539-1.069.165-2.138.356-3.215.469-1.686.183-3.345-.13-5.005-.39-1.338-.21-2.667-.305-4.014-.131-1.86.243-3.719.53-5.595.695-1.017.087-2.05-.052-3.076-.078-.27.008-.513.087-.765.13zm2.52-1.216c.938 0 1.799.078 2.641-.018 2.72-.313 5.44-.556 8.185-.556.964 0 1.955.104 2.902-.043a24.987 24.987 0 016.186-.2c1.556.139 3.102.339 4.666.469 1.442.122 2.885.235 4.327.278.66.017 1.364.044 2.007-.365-.408-.365-.79-.738-1.199-1.086-2.624-2.242-5.578-3.823-9.036-4.284-1.53-.2-2.998.044-4.353.835-.122.07-.287.165-.304.269-.078.504-.391.252-.565.156-2.024-1.181-4.118-1.364-6.325-.556-3.328 1.2-6.039 3.415-9.132 5.1zM32.949 2.102c-.556.208-1.182.139-1.747-.122-.834-.382-1.607-.443-2.51-.19-.678.19-1.46.069-2.19.051a1.042 1.042 0 01-.6-.208c-.235-.183-.556-.452-.556-.678 0-.235.304-.539.547-.695.574-.365 1.226-.287 1.851-.122.652.174 1.286.426 1.946.591.635.156 1.139.565 1.72.808.513.226 1.043.391 1.539.565zm3.727-.07c.956-.07 1.746-.521 2.528-1.025.192-.122.452-.148.678-.217.843-.252 1.678-.54 2.538-.73.626-.139 1.243-.026 1.72.47.322.33.322.686-.069.903-.417.226-.895.408-1.364.469-.878.113-1.755-.035-2.607-.295-.208-.061-.469-.035-.686.026-.53.147-1.025.39-1.564.504-.374.078-.79.017-1.182.017 0-.035.009-.078.009-.122z" fill="#4F4F4F"/><path d="M38.717 53.5c9.587-1.746 17.5-11 20-18.35C55.682 48.303 41 57.916 27.961 55.122 14.072 52.146 4.81 36.631 0 24.765 14.217 53.5 26.734 55.683 38.717 53.5z" fill="#4F4F4F"/><path d="M31.217 53.432a.35.35 0 10.7 0v-.19a.35.35 0 10-.7 0v.19zM32 57.541a.35.35 0 10.7 0v-.191a.35.35 0 10-.7 0v.191zm-2-4a.35.35 0 10.7 0v-.191a.35.35 0 10-.7 0v.191zm4.217-1a.35.35 0 10.7 0v-.191a.35.35 0 10-.7 0v.191zm-5.217 0a.35.35 0 10.7 0v-.191a.35.35 0 10-.7 0v.191zm1-1a.35.35 0 10.7 0v-.191a.35.35 0 10-.7 0v.191zm-2 0a.35.35 0 10.7 0v-.191a.35.35 0 10-.7 0v.191zm14-1a.35.35 0 10.7 0v-.191a.35.35 0 10-.7 0v.191zm-18 1a.35.35 0 10.7 0v-.191a.35.35 0 10-.7 0v.191zm3 1a.35.35 0 10.7 0v-.191a.35.35 0 10-.7 0v.191zm-7-3a.35.35 0 10.7 0v-.191a.35.35 0 10-.7 0v.191zm-3-2a.35.35 0 10.7 0v-.191a.35.35 0 10-.7 0v.191zm-1-4a.35.35 0 10.7 0v-.191a.35.35 0 10-.7 0v.191zm2 1a.35.35 0 10.7 0v-.191a.35.35 0 10-.7 0v.191zm-4-1a.35.35 0 10.7 0v-.191a.35.35 0 10-.7 0v.191zm-2-2a.35.35 0 10.7 0v-.191a.35.35 0 10-.7 0v.191zm2-1a.35.35 0 10.7 0v-.191a.35.35 0 10-.7 0v.191zm2 1a.35.35 0 10.7 0v-.191a.35.35 0 10-.7 0v.191zm2 0a.35.35 0 10.7 0v-.191a.35.35 0 10-.7 0v.191zm24 11a.35.35 0 10.7 0v-.191a.35.35 0 10-.7 0v.191zm-5.783 0a.35.35 0 10.7 0v-.191a.35.35 0 10-.7 0v.191zm-.217 5a.35.35 0 10.7 0v-.191a.35.35 0 10-.7 0v.191zm-3 6a.35.35 0 10.7 0v-.191a.35.35 0 10-.7 0v.191zm5-12a.35.35 0 10.7 0v-.191a.35.35 0 10-.7 0v.191zm-3 5a.35.35 0 10.7 0v-.191a.35.35 0 10-.7 0v.191zm5-5a.35.35 0 10.7 0v-.191a.35.35 0 10-.7 0v.191zm-1.783 2a.35.35 0 10.7 0v-.191a.35.35 0 10-.7 0v.191zm-5.217 7a.35.35 0 10.7 0v-.191a.35.35 0 10-.7 0v.191zm2 0a.35.35 0 10.7 0v-.191a.35.35 0 10-.7 0v.191zm-2.535-7.109a.35.35 0 10.7 0V52.35a.35.35 0 10-.7 0v1.082zm-13.465-5a.35.35 0 10.7 0V47.35a.35.35 0 10-.7 0v1.082zm-6-4a.35.35 0 10.7 0V43.35a.35.35 0 10-.7 0v1.082zm10 7a.35.35 0 10.7 0V50.35a.35.35 0 10-.7 0v1.082zm3 1a.35.35 0 10.7 0V51.35a.35.35 0 10-.7 0v1.082zm8 7a.35.35 0 10.7 0V58.35a.35.35 0 10-.7 0v1.082zm1-7a.35.35 0 10.7 0V51.35a.35.35 0 10-.7 0v1.082zm2-1a.35.35 0 10.7 0V50.35a.35.35 0 10-.7 0v1.082zm-15-1a.35.35 0 10.7 0V49.35a.35.35 0 10-.7 0v1.082zm-6-4a.35.35 0 10.7 0V45.35a.35.35 0 10-.7 0v1.082zm18 16a.35.35 0 10.7 0V61.35a.35.35 0 10-.7 0v1.082zm2.44 7.098c-1.209-6.143.96-12.875 2.197-15.473.08-.057.58-.057.58.443-2.116 3.895-2.879 7.655-2.777 15.03z" fill="#4F4F4F"/></svg>