<svg width="99" height="34" fill="none" xmlns="http://www.w3.org/2000/svg"><path d="M0 7.379C0 3.304 3.381 0 7.552 0H90.62c4.17 0 7.551 3.304 7.551 7.379v18.447c0 4.076-3.38 7.38-7.551 7.38H7.55c-4.17 0-7.551-3.304-7.551-7.38V7.38z" fill="#F2F2F2"/><path fill-rule="evenodd" clip-rule="evenodd" d="M90.62 1.107H7.553c-3.545 0-6.42 2.808-6.42 6.272v18.447c0 3.464 2.875 6.273 6.42 6.273H90.62c3.545 0 6.418-2.809 6.418-6.273V7.38c0-3.464-2.873-6.272-6.418-6.272zM7.553 0C3.38 0 0 3.304 0 7.379v18.447c0 4.076 3.381 7.38 7.552 7.38H90.62c4.17 0 7.551-3.304 7.551-7.38V7.38c0-4.075-3.38-7.379-7.551-7.379H7.55z" fill="#E0E0E0"/><path d="M13.715 16.963c0-1.794 1.667-3.248 3.724-3.248h63.295c2.056 0 3.723 1.454 3.723 3.248 0 1.794-1.667 3.248-3.723 3.248H17.439c-2.057 0-3.724-1.454-3.724-3.248z" fill="#F2F2F2"/><path fill-rule="evenodd" clip-rule="evenodd" d="M16.952 20.184l.145-.966c.111.012.225.019.342.019h.565v.975h-.565c-.165 0-.328-.01-.487-.028zm-.939-.219l.428-.9a2.72 2.72 0 01-.588-.297l-.681.772c.256.172.539.316.841.425zm-1.528-1.024l.885-.594a2.216 2.216 0 01-.34-.514l-1.032.374c.125.264.29.51.487.734zm-.738-1.553l1.107-.127a2.02 2.02 0 010-.596l-1.107-.126a2.863 2.863 0 000 .848zm.25-1.668l1.033.373a2.22 2.22 0 01.34-.514l-.885-.593c-.197.223-.362.47-.487.734zm1.175-1.334l.68.773c.18-.12.378-.221.59-.298l-.429-.9c-.302.11-.585.253-.841.425zm1.78-.644c.16-.018.322-.027.487-.027h.565v.974h-.565c-.117 0-.23.007-.342.02l-.145-.967zm2.182-.027v.974h1.13v-.974h-1.13zm2.26 0v.974h1.13v-.974h-1.13zm2.261 0v.974h1.13v-.974h-1.13zm2.26 0v.974h1.13v-.974h-1.13zm2.261 0v.974h1.13v-.974h-1.13zm2.26 0v.974h1.131v-.974h-1.13zm2.261 0v.974h1.13v-.974h-1.13zm2.26 0v.974h1.131v-.974h-1.13zm2.261 0v.974h1.13v-.974h-1.13zm2.26 0v.974h1.131v-.974h-1.13zm2.261 0v.974h1.13v-.974h-1.13zm2.261 0v.974h1.13v-.974H44zm2.26 0v.974h1.13v-.974h-1.13zm2.261 0v.974h1.13v-.974h-1.13zm2.26 0v.974h1.13v-.974h-1.13zm2.261 0v.974h1.13v-.974h-1.13zm2.26 0v.974h1.131v-.974h-1.13zm2.261 0v.974h1.13v-.974h-1.13zm2.26 0v.974h1.131v-.974h-1.13zm2.261 0v.974h1.13v-.974h-1.13zm2.26 0v.974h1.131v-.974h-1.13zm2.261 0v.974h1.13v-.974h-1.13zm2.261 0v.974h1.13v-.974h-1.13zm2.26 0v.974h1.13v-.974h-1.13zm2.261 0v.974h1.13v-.974h-1.13zm2.26 0v.974h1.13v-.974h-1.13zm2.261 0v.974h1.13v-.974h-1.13zm2.26 0v.974h.566c.116 0 .23.007.342.02l.144-.967a4.304 4.304 0 00-.486-.027h-.565zm1.991.246l-.428.9c.211.077.41.177.589.298l.68-.773a3.882 3.882 0 00-.841-.425zm1.529 1.025l-.886.593c.138.157.253.33.34.514l1.032-.373a3.174 3.174 0 00-.486-.734zm.738 1.553l-1.108.126a2.018 2.018 0 010 .596l1.108.127a2.876 2.876 0 000-.85zm-.252 1.668l-1.031-.374a2.223 2.223 0 01-.34.514l.885.594c.197-.224.361-.47.486-.734zM83 19.54l-.68-.772c-.18.12-.378.22-.589.297l.428.9c.303-.11.585-.253.841-.425zm-1.78.644l-.144-.966a3.04 3.04 0 01-.342.019h-.565v.975h.565c.165 0 .327-.01.486-.028zm-2.182.027v-.974h-1.13v.975h1.13zm-2.26 0v-.974h-1.13v.975h1.13zm-2.26 0v-.974h-1.131v.975h1.13zm-2.261 0v-.974h-1.13v.975h1.13zm-2.26 0v-.974h-1.131v.975h1.13zm-2.261 0v-.974h-1.13v.975h1.13zm-2.26 0v-.974h-1.131v.975h1.13zm-2.261 0v-.974h-1.13v.975h1.13zm-2.261 0v-.974h-1.13v.975h1.13zm-2.26 0v-.974h-1.13v.975h1.13zm-2.261 0v-.974h-1.13v.975h1.13zm-2.26 0v-.974h-1.13v.975h1.13zm-2.261 0v-.974h-1.13v.975h1.13zm-2.26 0v-.974h-1.13v.975h1.13zm-2.261 0v-.974h-1.13v.975h1.13zm-2.26 0v-.974H44v.975h1.13zm-2.261 0v-.974h-1.13v.975h1.13zm-2.26 0v-.974h-1.131v.975h1.13zm-2.261 0v-.974h-1.13v.975h1.13zm-2.26 0v-.974h-1.131v.975h1.13zm-2.261 0v-.974h-1.13v.975h1.13zm-2.261 0v-.974h-1.13v.975h1.13zm-2.26 0v-.974h-1.13v.975h1.13zm-2.261 0v-.974h-1.13v.975h1.13zm-2.26 0v-.974h-1.13v.975h1.13zm-2.261 0v-.974h-1.13v.975h1.13zm-2.26 0v-.974h-1.131v.975h1.13z" fill="#E0E0E0"/><path d="M53.417 16.603c0 3.588-3.393 6.497-7.58 6.497-4.185 0-7.579-2.909-7.579-6.497s3.394-6.497 7.58-6.497 7.58 2.91 7.58 6.497z" fill="#F2F2F2"/><path d="M53.417 16.603c0 3.588-3.393 6.497-7.58 6.497-4.185 0-7.579-2.909-7.579-6.497s3.394-6.497 7.58-6.497 7.58 2.91 7.58 6.497z" fill="url(#paint0_linear)"/><path fill-rule="evenodd" clip-rule="evenodd" d="M45.838 22.1c3.542 0 6.413-2.46 6.413-5.497 0-3.036-2.871-5.497-6.413-5.497-3.542 0-6.414 2.461-6.414 5.497s2.872 5.497 6.414 5.497zm0 1c4.186 0 7.58-2.909 7.58-6.497s-3.394-6.497-7.58-6.497-7.58 2.91-7.58 6.497c0 3.588 3.394 6.497 7.58 6.497z" fill="#fff"/><defs><linearGradient id="paint0_linear" x1="38" y1="17" x2="53" y2="17" gradientUnits="userSpaceOnUse"><stop stop-color="#C90B85"/><stop offset="1" stop-color="#EC81C1"/></linearGradient></defs></svg>