<svg width="115" height="21" fill="none" xmlns="http://www.w3.org/2000/svg"><path fill-rule="evenodd" clip-rule="evenodd" d="M103.063 15.822c-3.207 2.684-6.641 5.477-12.364 5.152-4.982-.282-7.797-2.8-9.992-5.134-.285-.303-.555-.598-.816-.882-.757-.826-1.43-1.56-2.15-2.154-.934-.77-1.856-1.218-2.972-1.218a.776.776 0 01-.769-.783c0-.432.344-.782.769-.782 1.584 0 2.837.659 3.939 1.566.81.669 1.59 1.518 2.368 2.368.247.27.494.539.742.802 2.095 2.228 4.565 4.405 8.966 4.654 5.083.288 8.108-2.124 11.302-4.798l.249-.209C105.446 11.797 108.783 9 114.231 9c.425 0 .769.35.769.783a.776.776 0 01-.769.782c-4.892 0-7.848 2.476-11.004 5.12l-.164.137z" fill="#E0E0E0"/><path d="M0 10.244C0 4.586 4.597 0 10.267 0h61.6A5.128 5.128 0 0177 5.122v10.756A5.128 5.128 0 0171.867 21h-61.6C4.597 21 0 16.414 0 10.756v-.512z" fill="#F2F2F2"/><path fill-rule="evenodd" clip-rule="evenodd" d="M71.867 1.537h-61.6c-4.82 0-8.727 3.898-8.727 8.707v.512c0 4.809 3.907 8.707 8.727 8.707h61.6a3.59 3.59 0 003.593-3.585V5.122a3.59 3.59 0 00-3.593-3.585zM10.267 0C4.597 0 0 4.586 0 10.244v.512C0 16.414 4.597 21 10.267 21h61.6A5.128 5.128 0 0077 15.878V5.122A5.128 5.128 0 0071.867 0h-61.6z" fill="#E0E0E0"/><path d="M42 11c0-.552.341-1 .762-1h29.476c.42 0 .762.448.762 1s-.341 1-.762 1H42.762c-.42 0-.762-.448-.762-1zm0 4c0-.552.341-1 .762-1h29.476c.42 0 .762.448.762 1s-.341 1-.762 1H42.762c-.42 0-.762-.448-.762-1zm0-8.5c0-.276.341-.5.762-.5h29.476c.42 0 .762.224.762.5s-.341.5-.762.5H42.762c-.42 0-.762-.224-.762-.5z" opacity=".5" fill="#E0E0E0"/><path d="M0 10.244C0 4.586 4.477 0 10 0h4c2.761 0 5 2.293 5 5.122v10.756C19 18.707 16.761 21 14 21h-4C4.477 21 0 16.414 0 10.756v-.512z" fill="#F2F2F2"/><path d="M0 10.244C0 4.586 4.477 0 10 0h4c2.761 0 5 2.293 5 5.122v10.756C19 18.707 16.761 21 14 21h-4C4.477 21 0 16.414 0 10.756v-.512z" fill="url(#paint0_linear)"/><path fill-rule="evenodd" clip-rule="evenodd" d="M14 1.537h-4c-4.694 0-8.5 3.898-8.5 8.707v.512c0 4.809 3.806 8.707 8.5 8.707h4c1.933 0 3.5-1.605 3.5-3.585V5.122c0-1.98-1.567-3.585-3.5-3.585zM10 0C4.477 0 0 4.586 0 10.244v.512C0 16.414 4.477 21 10 21h4c2.761 0 5-2.293 5-5.122V5.122C19 2.293 16.761 0 14 0h-4z" fill="#fff" fill-opacity=".4"/><defs><linearGradient id="paint0_linear" x1="0" y1="11" x2="21" y2="11" gradientUnits="userSpaceOnUse"><stop stop-color="#CF2691"/><stop offset="1" stop-color="#DE56AA"/></linearGradient></defs></svg>