<svg width="99" height="34" fill="none" xmlns="http://www.w3.org/2000/svg"><path d="M0 7.54C0 3.374 3.381 0 7.552 0H90.62c4.17 0 7.551 3.375 7.551 7.54v18.848c0 4.164-3.38 7.54-7.551 7.54H7.55c-4.17 0-7.551-3.376-7.551-7.54V7.539z" fill="#F2F2F2"/><path fill-rule="evenodd" clip-rule="evenodd" d="M90.62 1.13H7.553c-3.545 0-6.42 2.87-6.42 6.41v18.848c0 3.54 2.875 6.408 6.42 6.408H90.62a6.413 6.413 0 006.418-6.408V7.539a6.413 6.413 0 00-6.418-6.408zM7.553 0C3.38 0 0 3.375 0 7.54v18.848c0 4.164 3.381 7.54 7.552 7.54H90.62c4.17 0 7.551-3.376 7.551-7.54V7.539C98.171 3.375 94.791 0 90.62 0H7.55z" fill="#E0E0E0"/><path d="M13.715 17.248c0-1.794 1.667-3.248 3.724-3.248h63.295c2.056 0 3.723 1.454 3.723 3.248 0 1.794-1.667 3.249-3.723 3.249H17.439c-2.057 0-3.724-1.455-3.724-3.249z" fill="#F2F2F2"/><path fill-rule="evenodd" clip-rule="evenodd" d="M16.952 20.47l.145-.967c.111.013.225.02.342.02h.565v.974h-.565c-.165 0-.328-.01-.487-.028zm-.939-.22l.428-.9a2.716 2.716 0 01-.588-.297l-.681.773a3.9 3.9 0 00.841.424zm-1.528-1.024l.885-.594a2.22 2.22 0 01-.34-.514l-1.032.374c.125.264.29.51.487.734zm-.738-1.553l1.107-.126a2.02 2.02 0 010-.597l-1.107-.126a2.86 2.86 0 000 .849zm.25-1.668l1.033.373a2.22 2.22 0 01.34-.513l-.885-.594c-.197.223-.362.47-.487.734zm1.175-1.334l.68.773c.18-.12.378-.22.59-.297l-.429-.9a3.856 3.856 0 00-.841.424zm1.78-.643A4.28 4.28 0 0117.44 14h.565v.975h-.565c-.117 0-.23.006-.342.019l-.145-.966zM19.134 14v.975h1.13V14h-1.13zm2.26 0v.975h1.13V14h-1.13zm2.261 0v.975h1.13V14h-1.13zm2.26 0v.975h1.13V14h-1.13zm2.261 0v.975h1.13V14h-1.13zm2.26 0v.975h1.131V14h-1.13zm2.261 0v.975h1.13V14h-1.13zm2.26 0v.975h1.131V14h-1.13zm2.261 0v.975h1.13V14h-1.13zm2.26 0v.975h1.131V14h-1.13zm2.261 0v.975h1.13V14h-1.13zM44 14v.975h1.13V14H44zm2.26 0v.975h1.13V14h-1.13zm2.261 0v.975h1.13V14h-1.13zm2.26 0v.975h1.13V14h-1.13zm2.261 0v.975h1.13V14h-1.13zm2.26 0v.975h1.131V14h-1.13zm2.261 0v.975h1.13V14h-1.13zm2.26 0v.975h1.131V14h-1.13zm2.261 0v.975h1.13V14h-1.13zm2.26 0v.975h1.131V14h-1.13zm2.261 0v.975h1.13V14h-1.13zm2.261 0v.975h1.13V14h-1.13zm2.26 0v.975h1.13V14h-1.13zm2.261 0v.975h1.13V14h-1.13zm2.26 0v.975h1.13V14h-1.13zm2.261 0v.975h1.13V14h-1.13zm2.26 0v.975h.566c.116 0 .23.006.342.019l.144-.966a4.28 4.28 0 00-.486-.028h-.565zm1.991.246l-.428.9c.211.077.41.177.589.298l.68-.773a3.882 3.882 0 00-.841-.425zm1.529 1.025l-.886.594c.138.156.253.329.34.513l1.032-.373a3.171 3.171 0 00-.486-.734zm.738 1.553l-1.108.126a2.02 2.02 0 010 .597l1.108.126a2.875 2.875 0 000-.849zm-.252 1.668l-1.031-.373a2.227 2.227 0 01-.34.513l.885.594c.197-.224.361-.47.486-.734zM83 19.826l-.68-.773c-.18.12-.378.22-.589.297l.428.9c.303-.11.585-.253.841-.424zm-1.78.643l-.144-.966c-.112.013-.226.02-.342.02h-.565v.974h.565c.165 0 .327-.01.486-.028zm-2.182.028v-.975h-1.13v.975h1.13zm-2.26 0v-.975h-1.13v.975h1.13zm-2.26 0v-.975h-1.131v.975h1.13zm-2.261 0v-.975h-1.13v.975h1.13zm-2.26 0v-.975h-1.131v.975h1.13zm-2.261 0v-.975h-1.13v.975h1.13zm-2.26 0v-.975h-1.131v.975h1.13zm-2.261 0v-.975h-1.13v.975h1.13zm-2.261 0v-.975h-1.13v.975h1.13zm-2.26 0v-.975h-1.13v.975h1.13zm-2.261 0v-.975h-1.13v.975h1.13zm-2.26 0v-.975h-1.13v.975h1.13zm-2.261 0v-.975h-1.13v.975h1.13zm-2.26 0v-.975h-1.13v.975h1.13zm-2.261 0v-.975h-1.13v.975h1.13zm-2.26 0v-.975H44v.975h1.13zm-2.261 0v-.975h-1.13v.975h1.13zm-2.26 0v-.975h-1.131v.975h1.13zm-2.261 0v-.975h-1.13v.975h1.13zm-2.26 0v-.975h-1.131v.975h1.13zm-2.261 0v-.975h-1.13v.975h1.13zm-2.261 0v-.975h-1.13v.975h1.13zm-2.26 0v-.975h-1.13v.975h1.13zm-2.261 0v-.975h-1.13v.975h1.13zm-2.26 0v-.975h-1.13v.975h1.13zm-2.261 0v-.975h-1.13v.975h1.13zm-2.26 0v-.975h-1.131v.975h1.13z" fill="#E0E0E0"/><path d="M68.04 17.354c0 7.376-6.949 13.355-15.52 13.355-8.572 0-15.52-5.98-15.52-13.355S43.949 4 52.52 4s15.52 5.979 15.52 13.354z" fill="#F2F2F2"/><path d="M68.04 17.354c0 7.376-6.949 13.355-15.52 13.355-8.572 0-15.52-5.98-15.52-13.355S43.949 4 52.52 4s15.52 5.979 15.52 13.354z" fill="url(#paint0_linear)"/><path fill-rule="evenodd" clip-rule="evenodd" d="M52.52 29.547c8.116 0 14.37-5.626 14.37-12.193 0-6.566-6.254-12.193-14.37-12.193s-14.37 5.627-14.37 12.193c0 6.567 6.254 12.193 14.37 12.193zm0 1.162c8.571 0 15.52-5.98 15.52-13.355S61.09 4 52.52 4C43.948 4 37 9.979 37 17.354c0 7.376 6.949 13.355 15.52 13.355z" fill="#fff"/><defs><linearGradient id="paint0_linear" x1="37" y1="17" x2="68" y2="17" gradientUnits="userSpaceOnUse"><stop stop-color="#C6007F"/><stop offset="1" stop-color="#F292CA"/></linearGradient></defs></svg>