<svg width="53" height="73" fill="none" xmlns="http://www.w3.org/2000/svg"><path d="M53 52.5C53 61 38.051 59 26.5 59 15.628 59 0 60.5 0 52.5 0 25.162 11.864 3 26.5 3S53 25.162 53 52.5z" fill="#4F4F4F"/><path d="M45.5 38c0 9.574-2.725 18.235-6.49 24.49-1.884 3.13-4.019 5.642-6.188 7.368-2.175 1.73-4.349 2.642-6.322 2.642-1.842 0-3.953-.907-6.109-2.64-2.148-1.728-4.3-4.243-6.214-7.372C10.347 56.23 7.5 47.569 7.5 38c0-9.596 2.168-18.26 5.648-24.505C16.638 7.232 21.378 3.5 26.5 3.5s9.862 3.732 13.352 9.995C43.332 19.74 45.5 28.404 45.5 38z" fill="#F2F2F2" stroke="#4F4F4F"/><path d="M27 66.5c-2 0-4.833-.667-6-1 1.167.833 4 2.5 6 2.5s4.5-1.667 5.5-2.5c-1 .333-3.5 1-5.5 1z" fill="#4F4F4F" stroke="#4F4F4F" stroke-width=".5" stroke-linecap="round" stroke-linejoin="round"/><path d="M27 69c-1.6 0-2.667-1.333-3-2h6c-.333.667-1.4 2-3 2zm0-3c-1.6 0-2.667.667-3 1h6c-.333-.333-1.4-1-3-1z" fill="#4F4F4F" stroke="#4F4F4F" stroke-width=".5" stroke-linecap="round" stroke-linejoin="round"/><path d="M34 50.5c1.333-.167 4.3-.2 5.5 1" stroke="#4F4F4F" stroke-width=".5" stroke-linecap="round"/><path d="M39.5 51.5c-1.5 1.5-3.5 3-7 1.5m-3 3c.5-2.667 3.6-8 12-8M14 51.5c1.5 1.5 3.5 3 7 1.5" stroke="#4F4F4F" stroke-linecap="round"/><path d="M19.5 50.5c-1.333-.167-4.3-.2-5.5 1" stroke="#4F4F4F" stroke-width=".5" stroke-linecap="round"/><path d="M24 56c-.5-2.667-3.6-8-12-8" stroke="#4F4F4F" stroke-linecap="round"/><path d="M24 61.5c.5 1.333 1.8 3.5 3 3.5s2.5-2.167 3-3.5" stroke="#4F4F4F" stroke-width=".7" stroke-linecap="round"/><path fill-rule="evenodd" clip-rule="evenodd" d="M7.006 38.766C7.002 38.511 7 38.256 7 38 7 18.67 15.73 3 26.5 3S46 18.67 46 38c0 .27-.002.538-.006.806-6.815 5.67-14.237 6.968-18.838-1.359-.448-.81-1.772-.772-2.178.061-4.037 8.28-11.236 6.947-17.972 1.258z" fill="#4F4F4F"/><path d="M8.5 31.5c1.6 3.2 4.667 5 6 5.5 3.833 2.833 10.5 8.3 6.5 7.5-5-1-6-1.5-9.5-4 2.8 1.2 4.833.833 5.5.5-1.5-.333-4.8-1.5-6-3.5 2 1.6 3.833 2 4.5 2-2-1.5-6.2-5.2-7-8zm35.235 0c-1.6 3.2-4.667 5-6 5.5-3.833 2.833-10.5 8.3-6.5 7.5 5-1 6-1.5 9.5-4-2.8 1.2-4.833.833-5.5.5 1.5-.333 4.8-1.5 6-3.5-2 1.6-3.833 2-4.5 2 2-1.5 6.2-5.2 7-8z" fill="#F2F2F2"/><path d="M15.096 10.046c6.103-6.977 16.705-6.977 22.808 0C42.17 14.922 46 21.195 46 28c0 6.805-3.83 13.078-8.096 17.954-6.103 6.977-16.705 6.977-22.808 0C10.83 41.078 7 34.805 7 28c0-6.805 3.83-13.078 8.096-17.954z" fill="#F2F2F2"/></svg>