<svg width="90" height="119" fill="none" xmlns="http://www.w3.org/2000/svg"><path d="M90 84.057c0 14.434-25.385 11.037-45 11.037-18.462 0-45 2.547-45-11.037C0 37.633 20.147 0 45 0s45 37.633 45 84.057z" fill="#4F4F4F"/><path d="M77.264 59.434c0 16.258-4.627 30.965-11.022 41.588-3.198 5.312-6.823 9.58-10.507 12.511-3.692 2.937-7.385 4.486-10.735 4.486-3.128 0-6.712-1.54-10.373-4.483-3.649-2.934-7.303-7.205-10.554-12.519-6.502-10.627-11.337-25.333-11.337-41.583 0-16.295 3.682-31.006 9.591-41.613C28.252 7.186 36.303.85 45 .85c8.697 0 16.748 6.337 22.673 16.972 5.91 10.607 9.591 25.318 9.591 41.613z" fill="#F2F2F2" stroke="#4F4F4F"/><path d="M45.849 107.83c-3.396 0-8.208-1.132-10.189-1.698 1.981 1.415 6.793 4.245 10.189 4.245s7.641-2.83 9.34-4.245c-1.699.566-5.944 1.698-9.34 1.698z" fill="#4F4F4F" stroke="#4F4F4F" stroke-width=".5" stroke-linecap="round" stroke-linejoin="round"/><path d="M45.85 112.075c-2.718 0-4.53-2.264-5.095-3.396h10.189c-.566 1.132-2.378 3.396-5.095 3.396zm0-5.094c-2.718 0-4.53 1.132-5.095 1.698h10.189c-.566-.566-2.378-1.698-5.095-1.698z" fill="#4F4F4F" stroke="#4F4F4F" stroke-width=".5" stroke-linecap="round" stroke-linejoin="round"/><path d="M57.736 80.66c2.264-.283 7.302-.34 9.34 1.699" stroke="#4F4F4F" stroke-width=".5" stroke-linecap="round"/><path d="M67.075 82.358c-2.547 2.548-5.943 5.095-11.887 2.548M50.094 90c.85-4.528 6.113-13.585 20.378-13.585m-46.699 5.943c2.548 2.548 5.944 5.095 11.887 2.548" stroke="#4F4F4F" stroke-linecap="round"/><path d="M33.113 80.66c-2.264-.283-7.302-.34-9.34 1.699" stroke="#4F4F4F" stroke-width=".5" stroke-linecap="round"/><path d="M40.755 90c-.85-4.528-6.113-13.585-20.378-13.585" stroke="#4F4F4F" stroke-linecap="round"/><path d="M40.755 99.34c.849 2.264 3.056 5.943 5.094 5.943 2.038 0 4.245-3.679 5.095-5.943" stroke="#4F4F4F" stroke-width=".7" stroke-linecap="round"/><path fill-rule="evenodd" clip-rule="evenodd" d="M12.536 47.67C15.578 20.48 28.956 0 45.001 0c15.934 0 29.24 20.2 32.4 47.111-1.593 2.748-2.594 5.57-2.678 8.524-.007.264-.069.53-.19.765-7.038 13.626-20.746 15.003-28.375 2.042-.798-1.355-3.066-1.294-3.796.1-7.21 13.763-22.49 13.663-27.928-4.202-.12-2.294-.808-4.508-1.898-6.67z" fill="#4F4F4F"/><path d="M38.29 12.52c1.002-10.596 11.463-10.768 12.626-.188 1.569 14.277 1.886 32.142-1.67 51.347-1.65 8.906-7.824 8.93-9.34 0-3.214-18.925-2.974-36.8-1.616-51.16z" fill="#F2F2F2"/></svg>