<svg width="53" height="70" fill="none" xmlns="http://www.w3.org/2000/svg"><path d="M53 49.5C53 58 38.051 56 26.5 56 15.628 56 0 57.5 0 49.5 0 22.162 11.864 0 26.5 0S53 22.162 53 49.5z" fill="#4F4F4F"/><path d="M45.5 35c0 9.574-2.725 18.235-6.49 24.49-1.884 3.13-4.019 5.642-6.188 7.368-2.175 1.73-4.349 2.642-6.322 2.642-1.842 0-3.953-.907-6.109-2.64-2.148-1.728-4.3-4.243-6.214-7.372C10.347 53.23 7.5 44.569 7.5 35c0-9.596 2.168-18.26 5.648-24.505C16.638 4.232 21.378.5 26.5.5s9.862 3.732 13.352 9.995C43.332 16.74 45.5 25.404 45.5 35z" fill="#F2F2F2" stroke="#4F4F4F"/><path d="M27 63.5c-2 0-4.833-.667-6-1 1.167.833 4 2.5 6 2.5s4.5-1.667 5.5-2.5c-1 .333-3.5 1-5.5 1z" fill="#4F4F4F" stroke="#4F4F4F" stroke-width=".5" stroke-linecap="round" stroke-linejoin="round"/><path d="M27 66c-1.6 0-2.667-1.333-3-2h6c-.333.667-1.4 2-3 2zm0-3c-1.6 0-2.667.667-3 1h6c-.333-.333-1.4-1-3-1z" fill="#4F4F4F" stroke="#4F4F4F" stroke-width=".5" stroke-linecap="round" stroke-linejoin="round"/><path d="M34 47.5c1.333-.167 4.3-.2 5.5 1" stroke="#4F4F4F" stroke-width=".5" stroke-linecap="round"/><path d="M39.5 48.5c-1.5 1.5-3.5 3-7 1.5m-3 3c.5-2.667 3.6-8 12-8M14 48.5c1.5 1.5 3.5 3 7 1.5" stroke="#4F4F4F" stroke-linecap="round"/><path d="M19.5 47.5c-1.333-.167-4.3-.2-5.5 1" stroke="#4F4F4F" stroke-width=".5" stroke-linecap="round"/><path d="M24 53c-.5-2.667-3.6-8-12-8" stroke="#4F4F4F" stroke-linecap="round"/><path d="M24 58.5c.5 1.333 1.8 3.5 3 3.5s2.5-2.167 3-3.5" stroke="#4F4F4F" stroke-width=".7" stroke-linecap="round"/><path fill-rule="evenodd" clip-rule="evenodd" d="M10.928 39.992c2.465 2.61 7.393 1.959 11.007-1.454 3.614-3.413 4.545-8.295 2.08-10.905-2.464-2.61-7.392-1.96-11.006 1.453-3.614 3.413-4.545 8.296-2.08 10.906zm30.846-.178c-2.384 2.684-7.33 2.183-11.045-1.118-3.716-3.3-4.796-8.152-2.412-10.836 2.384-2.684 7.329-2.184 11.045 1.117 3.716 3.3 4.796 8.153 2.412 10.837z" fill="#4F4F4F"/><path fill-rule="evenodd" clip-rule="evenodd" d="M7.006 35.766C7.002 35.511 7 35.256 7 35 7 15.67 15.73 0 26.5 0S46 15.67 46 35c0 .27-.002.538-.006.806-6.815 5.67-14.237 6.968-18.838-1.359-.448-.81-1.772-.772-2.178.061-4.037 8.28-11.236 6.947-17.972 1.258z" fill="#4F4F4F"/><path d="M25.616 2.58a.448.448 0 01.768 0C27.554 4.421 31 10.443 31 17.5s-3.445 13.078-4.616 14.92a.448.448 0 01-.768 0C24.446 30.579 21 24.557 21 17.5s3.445-13.078 4.616-14.92z" fill="#F2F2F2"/><path opacity=".3" d="M19.6 41.16c-2.127-1.014-6.345-4.499-6.2-10.32M22 39c-1.815-.25-5.756-1.8-7-6m16.4 8.16c2.127-1.014 6.345-4.499 6.2-10.32M29 39c1.815-.25 5.756-1.8 7-6" stroke="#F2F2F2" stroke-width=".5" stroke-linecap="round"/></svg>