<svg width="53" height="72" fill="none" xmlns="http://www.w3.org/2000/svg"><path d="M53 51.5C53 60 38.051 58 26.5 58 15.628 58 0 59.5 0 51.5 0 24.162 11.864 2 26.5 2S53 24.162 53 51.5z" fill="#4F4F4F"/><path d="M45.5 37c0 9.574-2.725 18.235-6.49 24.49-1.884 3.13-4.019 5.642-6.188 7.368-2.175 1.73-4.349 2.642-6.322 2.642-1.842 0-3.953-.907-6.109-2.64-2.148-1.728-4.3-4.243-6.214-7.372C10.347 55.23 7.5 46.569 7.5 37c0-9.596 2.168-18.26 5.648-24.505C16.638 6.232 21.378 2.5 26.5 2.5s9.862 3.732 13.352 9.995C43.332 18.74 45.5 27.404 45.5 37z" fill="#F2F2F2" stroke="#4F4F4F"/><path d="M27 65.5c-2 0-4.833-.667-6-1 1.167.833 4 2.5 6 2.5s4.5-1.667 5.5-2.5c-1 .333-3.5 1-5.5 1z" fill="#4F4F4F" stroke="#4F4F4F" stroke-width=".5" stroke-linecap="round" stroke-linejoin="round"/><path d="M27 68c-1.6 0-2.667-1.333-3-2h6c-.333.667-1.4 2-3 2zm0-3c-1.6 0-2.667.667-3 1h6c-.333-.333-1.4-1-3-1z" fill="#4F4F4F" stroke="#4F4F4F" stroke-width=".5" stroke-linecap="round" stroke-linejoin="round"/><path d="M34 49.5c1.333-.167 4.3-.2 5.5 1" stroke="#4F4F4F" stroke-width=".5" stroke-linecap="round"/><path d="M39.5 50.5c-1.5 1.5-3.5 3-7 1.5m-3 3c.5-2.667 3.6-8 12-8M14 50.5c1.5 1.5 3.5 3 7 1.5" stroke="#4F4F4F" stroke-linecap="round"/><path d="M19.5 49.5c-1.333-.167-4.3-.2-5.5 1" stroke="#4F4F4F" stroke-width=".5" stroke-linecap="round"/><path d="M24 55c-.5-2.667-3.6-8-12-8" stroke="#4F4F4F" stroke-linecap="round"/><path d="M24 60.5c.5 1.333 1.8 3.5 3 3.5s2.5-2.167 3-3.5" stroke="#4F4F4F" stroke-width=".7" stroke-linecap="round"/><path fill-rule="evenodd" clip-rule="evenodd" d="M7.006 37.766C7.002 37.511 7 37.256 7 37 7 17.67 15.73 2 26.5 2S46 17.67 46 37c0 .27-.002.538-.006.806-6.815 5.67-14.237 6.968-18.838-1.359-.448-.81-1.772-.772-2.178.061-4.037 8.28-11.236 6.947-17.972 1.258z" fill="#4F4F4F"/><path d="M8.5 30.5c1.6 3.2 4.667 5 6 5.5 3.833 2.833 10.5 8.3 6.5 7.5-5-1-6-1.5-9.5-4 2.8 1.2 4.833.833 5.5.5-1.5-.333-4.8-1.5-6-3.5 2 1.6 3.833 2 4.5 2-2-1.5-6.2-5.2-7-8zm35.235 0c-1.6 3.2-4.667 5-6 5.5-3.833 2.833-10.5 8.3-6.5 7.5 5-1 6-1.5 9.5-4-2.8 1.2-4.833.833-5.5.5 1.5-.333 4.8-1.5 6-3.5-2 1.6-3.833 2-4.5 2 2-1.5 6.2-5.2 7-8z" fill="#F2F2F2"/><path d="M14.477 17.106c3.86-11.238 19.185-11.238 23.046 0C38.427 19.739 39 22.566 39 25.5c0 2.935-.572 5.76-1.477 8.394-3.86 11.238-19.185 11.238-23.046 0C13.572 31.26 13 28.434 13 25.5c0-2.935.572-5.76 1.477-8.394z" fill="#F2F2F2"/></svg>