<svg width="123" height="121" fill="none" xmlns="http://www.w3.org/2000/svg"><path fill-rule="evenodd" clip-rule="evenodd" d="M46.168.002a.921.921 0 01.985.853c.21 2.937-1.467 9.067-9.328 11.268-1.096.307-2.316.594-3.623.9-4.376 1.03-9.722 2.286-14.61 5.284-6.235 3.825-11.698 10.511-12.78 23.4-.886 10.556-1.902 17.82-2.817 22.617-.458 2.399-.892 4.191-1.274 5.476-.371 1.245-.722 2.112-1.05 2.573a.921.921 0 01-1.5-1.07c.132-.185.413-.781.784-2.029.36-1.208.78-2.936 1.23-5.294.9-4.716 1.91-11.913 2.792-22.428C6.106 28.1 11.878 20.878 18.629 16.737c5.171-3.172 10.934-4.523 15.33-5.553 1.248-.293 2.386-.56 3.37-.835 6.874-1.925 8.145-7.141 7.986-9.362a.921.921 0 01.853-.985zm29.987 0a.92.92 0 00-.985.853c-.21 2.937 1.467 9.067 9.328 11.268 1.096.307 2.316.594 3.623.9 4.376 1.03 9.723 2.286 14.61 5.284 6.235 3.825 11.698 10.511 12.78 23.4.886 10.556 1.902 17.82 2.817 22.617.458 2.399.892 4.191 1.274 5.476.371 1.245.722 2.112 1.051 2.573a.92.92 0 101.498-1.07c-.131-.185-.412-.781-.783-2.029-.36-1.208-.78-2.936-1.23-5.294-.9-4.716-1.909-11.913-2.792-22.428-1.128-13.452-6.901-20.674-13.652-24.815-5.171-3.172-10.934-4.523-15.33-5.553-1.248-.293-2.386-.56-3.37-.835C78.12 8.424 76.85 3.208 77.009.987a.921.921 0 00-.853-.985zM24.646 45.695a.921.921 0 01.762 1.056c-.784 4.822-1.902 19.39.007 38.628 1.92 19.345.813 30.921-.021 34.383a.92.92 0 11-1.79-.431c.762-3.169 1.89-14.507-.022-33.77-1.922-19.37-.806-34.102.008-39.105a.921.921 0 011.056-.761zm75.179 0a.921.921 0 00-.761 1.056c.783 4.822 1.901 19.39-.008 38.628-1.92 19.345-.812 30.921.021 34.383a.92.92 0 101.791-.431c-.763-3.169-1.89-14.507.021-33.77 1.923-19.37.806-34.102-.007-39.105a.921.921 0 00-1.057-.761z" fill="#000"/><path fill-rule="evenodd" clip-rule="evenodd" d="M101.125 67.6a.92.92 0 01.921.922c0 2.432 1.207 5.923 2.817 9.408a75.465 75.465 0 004.772 8.696.921.921 0 11-1.547 1 77.301 77.301 0 01-4.898-8.923c-1.613-3.494-2.986-7.309-2.986-10.181a.92.92 0 01.921-.921zm-77.732 0a.92.92 0 00-.92.922c0 2.432-1.207 5.923-2.817 9.408a75.439 75.439 0 01-4.773 8.696.921.921 0 001.548 1 77.275 77.275 0 004.897-8.923c1.614-3.494 2.986-7.309 2.986-10.181a.921.921 0 00-.92-.921z" fill="#000"/><path opacity=".3" d="M39.971 61.156c0 1.628-1.65 2.947-3.684 2.947-2.034 0-3.684-1.32-3.684-2.947s1.65-2.947 3.684-2.947c2.035 0 3.684 1.32 3.684 2.947zm51.576-.002c0 1.628-1.65 2.947-3.684 2.947-2.034 0-3.684-1.32-3.684-2.947 0-1.628 1.65-2.947 3.684-2.947 2.035 0 3.684 1.32 3.684 2.947z" fill="#EB5757"/><path fill-rule="evenodd" clip-rule="evenodd" d="M33.709 60.417a.92.92 0 01.92.921c0 .826.94 1.842 2.58 1.842 1.638 0 2.578-1.016 2.578-1.842a.92.92 0 111.842 0c0 2.226-2.194 3.684-4.42 3.684-2.227 0-4.422-1.458-4.422-3.684a.92.92 0 01.922-.921z" fill="#000"/><path d="M38.866 60.6c0 .713-.742 1.29-1.658 1.29-.915 0-1.657-.577-1.657-1.29 0-.711.742-1.288 1.657-1.288.916 0 1.658.577 1.658 1.289z" fill="#000"/><path fill-rule="evenodd" clip-rule="evenodd" d="M83.81 60.417a.92.92 0 01.922.921c0 .826.94 1.842 2.579 1.842 1.638 0 2.578-1.016 2.578-1.842a.92.92 0 111.842 0c0 2.226-2.194 3.684-4.42 3.684-2.227 0-4.421-1.458-4.421-3.684a.92.92 0 01.92-.921z" fill="#000"/><path d="M88.968 60.602c0 .712-.742 1.29-1.657 1.29-.916 0-1.658-.578-1.658-1.29 0-.712.742-1.29 1.657-1.29.916 0 1.658.578 1.658 1.29z" fill="#000"/></svg>