<svg width="91" height="147" fill="none" xmlns="http://www.w3.org/2000/svg"><path opacity=".3" d="M2.217 78.651C.992 78.5.257 76.46.574 74.094c.318-2.364 1.567-4.158 2.791-4.006 1.225.152 1.96 2.192 1.643 4.557-.318 2.365-1.567 4.158-2.791 4.006z" fill="#EB5757"/><path fill-rule="evenodd" clip-rule="evenodd" d="M33.344 18.246c.454.23.636.783.407 1.237-3.907 7.729-9.446 15.37-14.717 22.638-.845 1.165-1.682 2.32-2.506 3.465-6.006 8.354-11.183 16.084-12.87 22.97-1.674 6.83-1.307 11.783.123 15.326 1.423 3.527 3.94 5.755 6.776 7.08 2.853 1.331 6.023 1.743 8.673 1.603 1.323-.07 2.492-.276 3.405-.559.947-.293 1.502-.633 1.728-.887a.921.921 0 011.376 1.224c-.563.634-1.51 1.098-2.559 1.423-1.083.335-2.406.562-3.853.639-2.89.152-6.372-.29-9.549-1.774-3.194-1.492-6.082-4.039-7.706-8.06-1.617-4.006-1.938-9.375-.204-16.453 1.788-7.295 7.203-15.315 13.165-23.607.831-1.157 1.675-2.32 2.522-3.489 5.277-7.279 10.718-14.784 14.552-22.37a.921.921 0 011.237-.406z" fill="#000"/><path fill-rule="evenodd" clip-rule="evenodd" d="M34.488 4.39a.921.921 0 011.209.485c.552 1.29 1.21 3.381 1.404 5.512.19 2.088-.045 4.472-1.59 6.064a.921.921 0 01-1.322-1.282c.967-.996 1.254-2.676 1.078-4.616-.172-1.897-.77-3.798-1.264-4.953a.921.921 0 01.485-1.21zM7.024 89.537a.921.921 0 011.067.747c1.496 8.48 1.619 18.086.982 26.578-.636 8.475-2.035 15.936-3.632 20.109a.921.921 0 11-1.72-.659c1.503-3.926 2.885-11.18 3.515-19.588.63-8.39.503-17.834-.96-26.12a.921.921 0 01.748-1.067zM71.545.051a.921.921 0 011.171.569c.991 2.86 2.581 6.342 4.437 10.362.091.2.184.4.277.601 1.779 3.854 3.766 8.16 5.64 12.788 3.941 9.737 7.41 20.978 7.41 32.65 0 11.668-4.166 25.527-8.095 37.585-.475 1.458-.946 2.89-1.407 4.289-1.454 4.413-2.8 8.5-3.813 12.077-.667 2.351-1.182 4.458-1.487 6.269-.306 1.824-.389 3.288-.23 4.378.784 5.371 1.737 9.115 2.511 12.15l.302 1.19c.815 3.245 1.36 5.814 1.002 8.907a.921.921 0 01-1.83-.212c.316-2.733-.148-5.019-.959-8.247l-.3-1.181c-.775-3.041-1.75-6.87-2.549-12.342-.2-1.369-.082-3.054.237-4.948.32-1.906.856-4.085 1.53-6.467 1.025-3.617 2.39-7.757 3.846-12.18.459-1.392.927-2.813 1.396-4.254 3.942-12.098 8.004-25.685 8.004-37.014 0-11.325-3.37-22.308-7.276-31.959-1.856-4.587-3.827-8.856-5.608-12.715l-.274-.593c-1.844-3.997-3.477-7.567-4.504-10.531A.921.921 0 0171.545.05zM34.85 48.117c.509 0 .921.413.921.921V71.91c0 5.937-.056 16.472-.505 26.983-.448 10.477-1.29 21.043-2.89 26.983-2.516 9.341-4.648 15.587-5.41 17.568a.921.921 0 11-1.72-.662c.733-1.903 2.846-8.084 5.352-17.386 1.538-5.711 2.378-16.075 2.828-26.582.447-10.472.503-20.975.503-26.904V49.038a.92.92 0 01.921-.92z" fill="#000"/><path fill-rule="evenodd" clip-rule="evenodd" d="M66.216 36.738a.92.92 0 01.922-.92c.754 0 1.492.31 2.16.76.677.455 1.347 1.096 1.984 1.867 1.276 1.544 2.492 3.695 3.413 6.196 1.838 4.996 2.553 11.555.02 17.694-3.013 7.302-7.151 18.978-10.535 30.203-1.692 5.61-3.192 11.097-4.269 15.86-1.08 4.782-1.718 8.77-1.718 11.411 0 4.511-.935 9.882-2.217 14.704-1.28 4.811-2.931 9.179-4.416 11.661a.92.92 0 11-1.58-.945c1.355-2.266 2.954-6.442 4.216-11.189 1.259-4.736 2.155-9.938 2.155-14.231 0-2.86.68-7.018 1.764-11.817 1.089-4.819 2.602-10.35 4.301-15.986C65.814 80.736 69.972 69 73.013 61.632c2.31-5.599 1.68-11.662-.047-16.355-.862-2.343-1.983-4.303-3.104-5.658-.56-.678-1.103-1.184-1.592-1.513-.498-.335-.878-.447-1.132-.447a.921.921 0 01-.922-.92z" fill="#000"/></svg>