<svg width="98" height="147" fill="none" xmlns="http://www.w3.org/2000/svg"><path opacity=".3" d="M2.14 76.653C.957 76.3.573 74.164 1.281 71.886c.709-2.279 2.24-3.838 3.422-3.483 1.182.354 1.565 2.489.857 4.767-.708 2.279-2.24 3.838-3.422 3.483z" fill="#EB5757"/><path fill-rule="evenodd" clip-rule="evenodd" d="M37.15 16.862c.453.23.635.783.406 1.237-4.047 8.007-10.076 16.182-15.818 23.967-.692.938-1.38 1.871-2.06 2.797C13.31 53.541 7.705 61.577 5.754 68.407c-1.708 5.977-1.349 10.541.168 13.856 1.513 3.306 4.229 5.48 7.466 6.595 6.542 2.254 15.05.131 19.487-5.61a.921.921 0 111.457 1.126c-4.958 6.417-14.317 8.715-21.544 6.226-3.647-1.257-6.79-3.745-8.541-7.571-1.747-3.818-2.056-8.855-.264-15.127 2.06-7.211 7.897-15.525 14.212-24.129.681-.928 1.369-1.86 2.059-2.796 5.756-7.807 11.687-15.85 15.659-23.709a.921.921 0 011.237-.406z" fill="#000"/><path fill-rule="evenodd" clip-rule="evenodd" d="M41.898 3.574a.921.921 0 011.209.485c.663 1.55.365 3.643-.302 5.533-.684 1.936-1.839 3.903-3.2 5.306a.921.921 0 01-1.322-1.282c1.15-1.186 2.176-2.914 2.785-4.637.624-1.77.728-3.3.345-4.195a.921.921 0 01.485-1.21zm-27.98 85.961a.921.921 0 011.066.747c1.497 8.48 1.62 18.086.982 26.578-.635 8.475-2.034 15.936-3.632 20.109a.92.92 0 11-1.72-.659c1.503-3.926 2.885-11.18 3.515-19.588.63-8.39.503-17.834-.959-26.12a.921.921 0 01.747-1.067zM78.438.051A.92.92 0 0179.61.62c.99 2.86 2.58 6.342 4.436 10.362l.277.601c1.78 3.854 3.767 8.16 5.64 12.788 3.942 9.737 7.41 20.978 7.41 32.65 0 11.668-4.166 25.527-8.094 37.585-.475 1.458-.947 2.89-1.408 4.289-1.453 4.413-2.8 8.5-3.813 12.077-.666 2.351-1.181 4.458-1.486 6.269-.307 1.824-.39 3.288-.23 4.378.783 5.371 1.737 9.115 2.51 12.15.105.409.205.805.302 1.19.815 3.245 1.36 5.814 1.003 8.907a.921.921 0 01-1.83-.212c.316-2.733-.149-5.019-.96-8.247-.095-.381-.195-.774-.3-1.181-.774-3.041-1.75-6.87-2.548-12.342-.2-1.369-.082-3.054.236-4.948.321-1.906.856-4.085 1.53-6.467 1.026-3.617 2.39-7.757 3.847-12.18.458-1.392.926-2.813 1.396-4.254 3.941-12.098 8.004-25.685 8.004-37.014 0-11.325-3.37-22.308-7.276-31.959-1.857-4.587-3.828-8.856-5.609-12.715l-.273-.593c-1.845-3.997-3.478-7.567-4.505-10.531A.921.921 0 0178.438.05zM41.744 48.117c.508 0 .92.413.92.921V71.91c0 5.937-.055 16.472-.505 26.983-.447 10.477-1.29 21.043-2.89 26.983-2.516 9.341-4.648 15.587-5.41 17.568a.921.921 0 11-1.72-.662c.733-1.903 2.846-8.084 5.352-17.386 1.539-5.711 2.379-16.075 2.828-26.582.448-10.472.504-20.975.504-26.904V49.038a.92.92 0 01.92-.92z" fill="#000"/><path fill-rule="evenodd" clip-rule="evenodd" d="M73.11 36.738a.92.92 0 01.92-.92c.755 0 1.494.31 2.162.76.676.455 1.346 1.096 1.984 1.867 1.276 1.544 2.492 3.695 3.412 6.196 1.839 4.996 2.554 11.555.02 17.694-3.012 7.302-7.15 18.978-10.535 30.203-1.692 5.61-3.192 11.097-4.268 15.86-1.08 4.782-1.719 8.77-1.719 11.411 0 4.511-.935 9.882-2.217 14.704-1.279 4.811-2.93 9.179-4.416 11.661a.92.92 0 11-1.58-.945c1.355-2.266 2.954-6.442 4.216-11.189 1.26-4.736 2.155-9.938 2.155-14.231 0-2.86.68-7.018 1.764-11.817 1.09-4.819 2.602-10.35 4.301-15.986C72.708 80.736 76.865 69 79.906 61.632c2.31-5.599 1.68-11.662-.047-16.355-.862-2.343-1.983-4.303-3.103-5.658-.56-.678-1.104-1.184-1.593-1.513-.498-.335-.878-.447-1.132-.447a.921.921 0 01-.921-.92z" fill="#000"/></svg>