<svg width="643" height="602" fill="none" xmlns="http://www.w3.org/2000/svg"><g filter="url(#filter0_i)"><path d="M166.948 430.611c6.217-.769 12.833-.377 18.604 2.383 4.244-23.18 35.108-126.236 102.466-164.567 8.045-4.827 36.606-26.549 38.617-30.571 2.012-4.023 0-12.068-14.079-10.057-14.079 2.011-94.129 9.252-165.329-4.827-7.241-1.609-23.733 6.436-6.034 19.309 17.7 12.872 75.223 36.605 82.061 38.214 6.839 1.609 16.493 4.827 4.425 21.722-12.068 16.895-51.489 96.141-57.925 119.874-.899 3.313-1.828 6.131-2.806 8.52z" fill="url(#paint0_linear)"/><path d="M202.666 433.9c10.749-1.26 22.368.063 32.234 7.991.655-2.785 1.961-5.997 4.042-9.743.944-1.699 2.115-4.037 3.55-6.901 13.852-27.651 52.315-104.429 148.907-130.673 6.363-1.59 19.326-2.793 32.884-4.05 17.302-1.605 35.573-3.3 42.339-6.006 12.068-4.827 43.042-31.779 35.801-54.708-4.688-14.846-9.512-14.257-12.26-11.056-1.566 1.824-1.673 4.386-1.607 6.788.366 13.222-3.276 31.304-14.291 34.976-13.937 4.645-22.124 2.815-37.41-36.606-15.286-39.422-48.674-104.588-123.897-127.517-5.631-1.609-8.045 0-8.045 1.207s0 3.218 5.632 4.023l.115.016c6.394.909 74.614 10.603 122.977 119.32 14.481 35.801 15.286 51.489-3.218 56.316-12.617 3.291-22.242-.461-29.001-5.604-5.173-3.936-11.678-6.391-17.829-4.291-24.871 8.491-82.064 31.555-117.293 69.832-40.223 43.704-54.044 71.047-63.63 96.686z" fill="url(#paint1_linear)"/><path d="M377.224 449.168c-.561-6.502-3.768-13.098-10.363-19.434-41.03-39.421-39.421-69.189-32.985-79.648 18.906-35.263 50.816-36.404 80.907-39.398 19.199-1.911 39.359-3.918 59.884-14.102 34.419-17.078 39.664-55.779 43.085-81.019 1.817-13.403 3.119-23.011 8.002-23.569 14.08-1.609.427 70.684-20.515 98.956-14.617 19.734-42.967 26.327-72.223 34.91-25.124 7.372-49.711 14.586-62.534 27.038-21.332 20.714-7.261 68.751 24.681 86.592-8.542 1.324-14.337 5.399-17.939 9.674z" fill="url(#paint2_linear)"/></g><path fill-rule="evenodd" clip-rule="evenodd" d="M443.315 250.228c3.221 15.727-.516 23.82-12.897 27.049-11.346 2.96-20.273.224-26.872-4.099-6.759-4.426-14.794-7.617-22.418-4.944-26.014 9.117-80.72 31.916-114.832 68.98-41.836 45.456-55.11 73.212-64.764 99.761-3.218 8.85-16.493 10.057-16.493 0 0-10.056 30.169-127.114 102.979-168.547 8.045-4.827 36.605-26.549 38.617-30.572 2.011-4.023 0-12.068-14.079-10.057-14.08 2.012-94.129 9.252-165.33-4.827-7.24-1.609-23.733 6.436-6.033 19.309 17.699 12.872 75.222 36.606 82.061 38.215 6.838 1.609 16.492 4.827 4.425 21.722-12.068 16.895-51.49 96.14-57.926 119.874-6.436 23.733-14.481 22.124-30.169 18.504l-2.024-.469c-12.157-2.818-23.49-5.445-36.878-4.428-5.971.453-12.056-.861-16.457-4.922-47.438-43.785-111.2-148.292-54.459-275.249C91.312 17.82 248.998-17.58 386.974 17.819c142.383 36.53 192.28 174.179 178.201 259.056-12.31 74.213-83.268 161.709-136.768 168.95-53.501 7.241-85.682-65.971-57.926-92.922 12.824-12.452 37.411-19.667 62.535-27.038 29.255-8.584 59.238-17.381 72.223-34.911 20.942-28.272 34.594-100.565 20.515-98.956-4.884.558-6.186 10.166-8.002 23.569-3.421 25.241-8.667 63.941-43.085 81.019-20.526 10.185-40.686 12.191-59.885 14.102-30.091 2.995-57.823 5.755-80.907 39.399-6.436 10.458-8.045 40.226 32.986 79.648 41.03 39.421-49.076 88.899-91.716 63.155-5.521-3.618-8.97-9.758-12.35-15.778-3.763-6.698-7.441-13.247-13.797-16.001-12.068-5.229-20.113-10.861-10.056-28.963.944-1.699 2.115-4.036 3.55-6.901 13.852-27.65 52.314-104.428 148.907-130.672 6.362-1.591 19.325-2.793 32.884-4.051 17.301-1.605 35.573-3.3 42.338-6.006 12.068-4.827 43.042-31.778 35.802-54.707-4.356-13.793-8.829-14.263-11.645-11.694-2.207 2.014-2.246 5.324-2.204 8.312.182 13.13-3.539 30.499-14.31 34.089-10.135 3.378-17.229 3.332-26.224-12.104-3.374-5.791-7.016-13.747-11.186-24.502a351.02 351.02 0 00-1.47-3.728c-15.6-38.884-48.183-99.085-118.069-122.398a170.63 170.63 0 00-4.357-1.39c-5.632-1.61-8.045 0-8.045 1.206 0 1.207 0 3.218 5.631 4.023l.116.016c.817.117 2.644.376 5.311.968 18.197 4.037 75.484 23.531 117.665 118.352.5 1.236.984 2.448 1.451 3.637 4.01 10.201 6.801 18.665 8.228 25.63zm6.093 8.899c.01.603.005 1.195-.014 1.775-.178 5.302-1.602 10.023-4.819 13.811-3.18 3.744-7.653 6.035-12.895 7.403-12.893 3.363-23.259.233-30.874-4.755-6.445-4.221-12.707-6.273-18.025-4.409-25.891 9.074-79.58 31.547-112.806 67.648-41.401 44.984-54.322 72.174-63.744 98.084-2.345 6.448-8.329 10.149-13.95 10.377-2.874.117-5.998-.669-8.458-2.879-2.533-2.274-3.784-5.538-3.784-9.207 0-1.908.614-5.375 1.563-9.541.998-4.377 2.493-10.052 4.505-16.666 4.024-13.227 10.151-30.32 18.586-48.413 16.777-35.987 43.059-76.743 80.799-98.243 3.762-2.266 12.661-8.706 21.025-15.217 4.163-3.241 8.097-6.424 11.09-9.021 1.502-1.303 2.715-2.414 3.587-3.284.689-.689.962-1.033 1.022-1.096a1.672 1.672 0 00-.324-1.607c-.417-.469-2.378-2.031-8.629-1.138-14.367 2.052-95.038 9.359-167.006-4.872l-.058-.011-.057-.013c-.715-.159-2.178-.133-3.884.411-1.69.539-2.928 1.366-3.541 2.111-.441.535-.556.938-.314 1.679.359 1.1 1.686 3.242 5.73 6.183 8.35 6.073 26.659 15.024 44.191 22.805 8.67 3.848 16.998 7.343 23.569 9.972 6.764 2.705 11.244 4.318 12.506 4.615 1.759.413 4.079 1.012 6.262 2.042 2.186 1.031 4.669 2.696 6.249 5.495 3.352 5.939.973 13.368-5.163 21.958-5.75 8.051-18.447 31.7-30.651 56.662-12.214 24.984-23.447 50.291-26.517 61.614-3.245 11.967-7.355 19.651-14.419 22.774-3.472 1.535-7.109 1.705-10.619 1.373-3.454-.326-7.236-1.192-11.082-2.079l-1.847-.428c-12.298-2.847-22.947-5.313-35.552-4.356-6.85.521-14.485-.935-20.226-6.233C32.457 389.8-32.724 283.095 25.202 153.488 88.153 12.633 249.016-22.737 388.216 12.976c145.37 37.296 196.31 177.795 181.892 264.717-6.333 38.179-27.633 79.386-53.985 111.919-13.203 16.3-27.786 30.562-42.579 41.249-14.743 10.652-29.982 17.959-44.467 19.919-29.451 3.986-52.595-14.262-64.5-36.21-5.977-11.022-9.333-23.295-9.278-34.784.055-11.488 3.545-22.553 11.699-30.471 7.703-7.48 18.889-12.976 31.096-17.561 10.408-3.909 22.032-7.319 33.553-10.699 2.056-.603 4.11-1.205 6.152-1.809 13.613-4.026 26.8-8.142 38.049-13.214 11.303-5.097 20.09-10.922 25.373-18.054 9.821-13.258 18.287-37.547 22.505-58.685 2.099-10.524 3.055-19.828 2.714-26.221-.097-1.824-.293-3.247-.53-4.315-.615 1.698-1.18 4.138-1.739 7.423-.5 2.946-.952 6.278-1.457 10.002-.149 1.1-.303 2.235-.464 3.404-.698 5.065-1.518 10.653-2.651 16.462-4.501 23.067-14.183 50.862-42.71 65.017-21.429 10.633-42.773 12.746-62.087 14.659-5.316.526-10.477 1.037-15.445 1.707-11.705 1.577-22.539 3.992-32.663 9.175-10.03 5.134-19.622 13.119-28.619 26.198-4.558 7.589-7.938 34.713 32.25 73.325 5.649 5.428 9.288 11.271 10.949 17.382 1.667 6.134 1.255 12.223-.707 17.96-3.865 11.305-13.681 21.173-25.555 28.529-11.974 7.418-26.649 12.67-41.19 14.392-14.498 1.716-29.349-.03-41.261-7.222l-.079-.048-.077-.05c-6.59-4.318-10.607-11.498-13.84-17.277-.237-.423-.469-.839-.698-1.245-3.726-6.612-6.613-11.012-10.857-12.851-5.855-2.537-12.577-5.829-15.767-11.924-3.458-6.61-1.957-14.542 3.328-24.055.904-1.628 2.04-3.901 3.444-6.71 13.747-27.512 53.158-106.385 152.073-133.26l.049-.014.049-.012c3.999-1 10.082-1.808 16.84-2.54 5.184-.562 10.973-1.099 16.826-1.641 1.864-.173 3.735-.347 5.594-.522 7.744-.729 15.319-1.488 21.69-2.358 6.548-.895 11.263-1.841 13.629-2.787 5.022-2.009 15.137-9.317 23.127-19.089 8.109-9.916 12.578-20.556 9.763-29.471-1.565-4.954-2.965-7.472-3.87-8.666a7.116 7.116 0 00-.043.205c-.17.883-.19 1.974-.169 3.504.097 6.984-.831 15.221-3.328 22.345-2.432 6.943-6.802 14.025-14.399 16.557-3.626 1.209-7.468 2.213-11.383 2.036-4.128-.187-7.976-1.662-11.621-4.734a30.423 30.423 0 01-3.434-3.436zm44.828-37.389l-.01.007.01-.007zm32.706-25.017c.001.003-.017.023-.054.05.035-.039.053-.053.054-.05z" fill="#A0989A" fill-opacity=".4"/><g filter="url(#filter1_i)"><path d="M29.767 155.528c-56.74 126.957 7.02 231.464 54.46 275.248 4.4 4.062 10.485 5.376 16.455 4.923 14.128-1.073 25.968 1.912 38.902 4.897 15.688 3.62 23.734 5.229 30.17-18.505 6.436-23.733 45.857-102.979 57.925-119.873 12.068-16.895 2.414-20.113-4.425-21.723-6.838-1.609-64.361-25.342-82.061-38.214-17.699-12.873-1.207-20.918 6.034-19.309 71.2 14.079 151.25 6.839 165.329 4.827 14.079-2.011 16.091 6.034 14.079 10.057-2.011 4.022-30.572 25.745-38.617 30.572-72.809 41.433-102.978 158.491-102.978 168.547 0 10.057 13.274 8.85 16.492 0 9.655-26.549 22.929-54.305 64.764-99.761 34.112-37.064 88.818-59.863 114.832-68.981 7.624-2.672 15.66.519 22.418 4.945 6.6 4.323 15.526 7.059 26.873 4.099 18.504-4.827 17.699-20.515 3.218-56.316-48.363-108.717-116.583-118.411-122.977-119.32l-.115-.016c-5.632-.805-5.632-2.816-5.632-4.023 0-1.207 2.414-2.816 8.045-1.207 75.223 22.929 108.611 88.096 123.897 127.517 15.286 39.422 23.473 41.252 37.41 36.606 10.771-3.59 14.492-20.959 14.309-34.089-.041-2.988-.003-6.299 2.204-8.312 2.817-2.569 7.29-2.099 11.645 11.694 7.241 22.928-23.733 49.88-35.801 54.707-12.068 4.827-60.741 6.436-75.223 10.057-106.599 28.962-142.4 119.471-152.457 137.573-10.056 18.102-2.011 23.733 10.057 28.963 12.068 5.229 14.481 24.135 26.147 31.778 42.639 25.745 132.746-23.733 91.715-63.155-41.03-39.421-39.421-69.189-32.985-79.647 37.812-55.11 88.095-27.354 140.791-53.501s37.008-102.979 51.087-104.588c14.08-1.609.427 70.684-20.515 98.956-24.136 32.583-107.001 34.997-134.757 61.948-27.756 26.952 4.425 100.164 57.925 92.923 53.501-7.241 124.459-94.737 136.769-168.95 14.079-84.877-35.818-222.526-178.202-259.056-137.975-35.399-295.661 0-357.207 137.709z" fill="#E2D4D0"/></g><path fill-rule="evenodd" clip-rule="evenodd" d="M483.104 186.505l.032.091c2.097 6.08 5.674 20.835 6.495 35.607.41 7.39.142 14.954-1.437 21.51-1.571 6.524-4.542 12.449-9.864 15.957l-.394.259c-2.134 1.404-4.572 2.522-7.238 3.031-3.516.672-6.889.922-10.157.089-3.338-.85-6.256-2.747-9.015-5.82-2.169-2.416-4.31-5.646-6.559-9.844 1.173 4.855 1.757 9.124 1.625 12.853-.17 4.775-1.524 8.798-4.416 11.966-2.839 3.111-6.876 5.082-11.804 6.368-19.238 5.018-31.371-5.601-37.898-13.467l-.126-.152-.106-.167c-5.134-8.174-9.266-17.637-13.331-26.944-1.51-3.458-3.01-6.894-4.549-10.235-5.781-12.548-12.198-24.02-21.89-32.097-7.055-5.879-16.709-12.286-27.056-17.361-10.38-5.091-21.237-8.733-30.738-9.303-5.553-.333-14.385-2.834-23.971-7.189-9.654-4.387-20.35-10.779-29.599-19.121-9.246-8.34-17.156-18.73-21.013-31.116-3.876-12.45-3.583-26.687 3.221-42.493C236.939 37.278 263.44 25.37 288.77 22.78c25.157-2.572 49.598 3.967 60.209 9.697l-1.425 2.64c-20.113-10.861-95.336-25.745-121.483 34.997-26.147 60.741 48.674 94.531 68.787 95.738 20.113 1.206 45.053 15.286 59.534 27.353 13.053 10.878 20.266 27.395 27.359 43.636 4.032 9.235 8.026 18.38 13.032 26.349 6.238 7.517 17.276 17.059 34.832 12.479 18.504-4.827 17.699-18.504 3.218-54.305-48.646-109.354-116.58-119.059-122.278-119.873l-.009-.001c-5.632-.805-5.632-2.816-5.632-4.023 0-1.206 2.414-2.816 8.045-1.206 69.189 18.101 108.611 85.681 123.897 125.103 14.043 36.216 19.938 41.198 33.279 38.649 2.204-.421 4.278-1.357 6.152-2.59l.392-.258c17.7-11.666 7.643-57.926 3.621-69.591C435.607 80.765 379.612 51.777 354.445 38.749a415.732 415.732 0 01-4.319-2.256l-.004-.002c-.92-.49-1.777-.947-2.568-1.374l1.425-2.64a410.213 410.213 0 006.845 3.607c11.818 6.117 30.735 15.906 52.064 35.706 24.142 22.411 51.297 57.551 75.179 114.626l.037.089z" fill="#74655D"/><g filter="url(#filter2_i)"><path d="M470.135 260.013c2.204-.421 4.278-1.357 6.152-2.59l.392-.258c17.7-11.666 7.643-57.926 3.621-69.591C432.833 74.136 372.618 48.479 350.126 36.493c-.922-.491-1.781-.949-2.572-1.376-20.113-10.861-95.336-25.745-121.483 34.997-26.147 60.741 48.674 94.531 68.787 95.737 20.113 1.207 45.053 15.286 59.534 27.354 20.475 17.062 26.58 48 40.391 69.984 6.238 7.518 17.276 17.059 34.832 12.48 18.504-4.827 17.699-18.504 3.218-54.306-48.646-109.353-116.58-119.058-122.278-119.872l-.009-.001c-5.632-.805-5.632-2.816-5.632-4.023 0-1.207 2.414-2.816 8.045-1.207 69.189 18.102 108.611 85.682 123.897 125.103 14.043 36.217 19.937 41.198 33.279 38.65z" fill="#8D746C"/></g><path fill-rule="evenodd" clip-rule="evenodd" d="M310.546 101.49c-5.632-.805-5.632-2.816-5.632-4.023 0-1.207 2.414-2.816 8.045-1.207 69.189 18.102 108.611 85.682 123.897 125.103 14.043 36.217 19.937 41.198 33.279 38.65 2.204-.421 4.278-1.357 6.152-2.59l.392-.258c17.7-11.666 7.643-57.926 3.621-69.591C435.607 80.764 379.612 51.777 354.445 38.749a415.732 415.732 0 01-4.319-2.256l-.004-.002c-.92-.49-1.778-.947-2.568-1.374-20.113-10.861-95.336-25.745-121.483 34.997-26.147 60.741 48.674 94.531 68.787 95.737 20.113 1.207 45.053 15.286 59.534 27.354 13.053 10.878 20.266 27.395 27.358 43.636 4.033 9.235 8.027 18.38 13.033 26.348 6.238 7.518 17.276 17.059 34.832 12.48 18.504-4.827 17.699-18.504 3.218-54.306-48.646-109.353-116.58-119.058-122.278-119.872l-.009-.001zm86.671 159.935c-4.828-7.724-8.657-16.493-12.627-25.583-1.549-3.547-3.119-7.144-4.779-10.746-5.843-12.682-12.716-25.21-23.498-34.195-7.427-6.189-17.484-12.856-28.255-18.139-10.739-5.267-22.409-9.268-33.021-9.905-4.503-.27-12.566-2.446-21.848-6.663-9.215-4.187-19.361-10.265-28.063-18.114-8.705-7.851-15.855-17.373-19.302-28.444-3.427-11.007-3.267-23.77 3.003-38.336 12.523-29.093 36.707-40.113 60.553-42.551 24.02-2.456 47.247 3.877 56.748 9.008.798.43 1.661.89 2.577 1.379l.01.005c1.33.708 2.783 1.461 4.352 2.273 11.785 6.103 30.034 15.553 50.739 34.774 23.443 21.762 50.113 56.144 73.688 112.453 1.932 5.646 5.362 19.779 6.146 33.895.394 7.091.109 14.008-1.279 19.772-1.395 5.795-3.805 10.027-7.333 12.352l-.39.257c-1.615 1.062-3.324 1.817-5.066 2.149-3.154.603-5.521.686-7.55.169-1.958-.499-3.893-1.633-6.031-4.014-4.47-4.978-9.282-14.744-16.338-32.942-15.376-39.653-55.281-108.418-125.902-126.912-3.118-.887-5.705-.995-7.706-.456-1.747.47-4.131 1.868-4.131 4.556v.061c-.002.694-.006 2.523 1.511 4.148 1.411 1.512 3.662 2.35 6.697 2.784h.001l.008.001h.001l.025.004c2.654.379 20.539 2.933 43.742 18.739 23.271 15.853 52.06 45.151 76.172 99.332 3.596 8.892 6.309 16.33 8.086 22.56 1.787 6.267 2.573 11.136 2.438 14.929-.132 3.722-1.141 6.261-2.85 8.134-1.762 1.93-4.563 3.479-8.887 4.607-15.762 4.111-25.677-4.205-31.641-11.341z" fill="#A89A96"/><g filter="url(#filter3_i)"><path d="M157.513 379.962c-15.644 17.898-57.246 7.13-92.92-24.051-35.673-31.181-51.91-70.968-36.267-88.866 15.644-17.898 57.246-7.13 92.92 24.051 35.674 31.182 51.911 70.968 36.267 88.866z" fill="#AFA690"/></g><g filter="url(#filter4_i)"><path fill-rule="evenodd" clip-rule="evenodd" d="M119.316 383.437c16.466 4.262 29.263 2.188 35.938-5.449 6.675-7.637 7.019-20.597.592-36.344-6.352-15.564-19.013-32.939-36.575-48.289-17.561-15.35-36.474-25.572-52.748-29.785-16.465-4.262-29.263-2.187-35.938 5.449-6.675 7.637-7.018 20.597-.592 36.344 6.352 15.565 19.014 32.94 36.575 48.289 17.561 15.35 36.474 25.573 52.748 29.785zm-54.722-27.526c35.673 31.181 77.275 41.949 92.919 24.051 15.644-17.898-.593-57.684-36.267-88.866-35.674-31.181-77.276-41.949-92.92-24.051-15.644 17.898.594 57.685 36.268 88.866z" fill="#74655D"/></g><path fill-rule="evenodd" clip-rule="evenodd" d="M641.069 304.404l-139.182-88.498 1.073-1.687 139.182 88.497-1.073 1.688zM462.471 587.196L245.652 451.232l1.063-1.694 216.818 135.964-1.062 1.694zm164.84-285.819a1 1 0 011.193.761l1.944 8.787a1 1 0 01-1.953.432l-1.423-6.43L455.49 573.991l6.43-1.423a1 1 0 01.432 1.953l-8.787 1.944a1 1 0 01-1.193-.76l-1.944-8.788a1 1 0 011.953-.432l1.422 6.43 171.583-269.063-6.43 1.422a1.001 1.001 0 01-.432-1.953l8.787-1.944zM94 147.505V128h2v19.505h-2zm9.416-9.753v-5.38h2v5.38h-2zm9.416 0v-5.38h2v5.38h-2zm9.416 0v-5.38h2v5.38h-2zm9.416 0v-5.38h2v5.38h-2zm9.416 0v-5.38h2v5.38h-2zm9.416 0v-5.38h2v5.38h-2zm9.415 0v-5.38h2v5.38h-2zm9.416 9.752V128h2v19.504h-2z" fill="#4A4A4A"/><path fill-rule="evenodd" clip-rule="evenodd" d="M171 138.752H95.001v-2H171v2z" fill="#4A4A4A"/><path d="M366.289 178.873c3.15 0 5.49-.93 7.41-2.31l-1.92-2.73c-1.23.9-3.12 1.86-5.61 1.86-4.41 0-7.71-3.03-7.71-7.77s3.3-7.77 7.71-7.77c2.49 0 4.38.96 5.61 1.86l1.92-2.73c-1.92-1.38-4.26-2.31-7.41-2.31-6.66 0-11.25 4.41-11.25 10.95 0 6.54 4.59 10.95 11.25 10.95z" fill="#fff"/><path fill-rule="evenodd" clip-rule="evenodd" d="M172.777 546.443v-98.554h2v98.554h-2zm61.144 47.466V447.486h2v146.423h-2zm152.055 0V447.486h2v146.423h-2zm-209.688-66.47a.999.999 0 010-1.414l6.364-6.364a1 1 0 011.414 1.414l-4.657 4.657h49.075l-4.657-4.657a.999.999 0 111.414-1.414l6.364 6.364a.999.999 0 010 1.414l-6.364 6.364a.999.999 0 11-1.414-1.414l4.657-4.657h-49.075l4.657 4.657a.999.999 0 11-1.414 1.414l-6.364-6.364zm61.947 48.674a1.002 1.002 0 010-1.415l6.364-6.364a1 1 0 011.414 1.415l-4.656 4.656h138.778l-4.657-4.656a1.002 1.002 0 010-1.415 1.002 1.002 0 011.415 0l6.364 6.364c.39.391.39 1.024 0 1.415l-6.364 6.364c-.391.39-1.024.39-1.415 0a1.002 1.002 0 010-1.415l4.657-4.657H241.357l4.656 4.657a1 1 0 11-1.414 1.415l-6.364-6.364zm192.534-277.015a.5.5 0 01.007.707l-3.152 3.212a.5.5 0 01-.714-.7l2.303-2.347c-66.04 1.028-105.623 34.88-117.967 52.651l3.204-.659a.501.501 0 01.202.98l-4.408.906a.501.501 0 01-.591-.389l-.905-4.408a.5.5 0 11.979-.202l.667 3.246c12.49-18.019 52.383-52.095 118.817-53.125l-2.354-2.31a.5.5 0 01.7-.714l3.212 3.152zm-46.318-38.666a.5.5 0 01.114.698l-2.63 3.652a.5.5 0 11-.812-.585l1.923-2.669c-48.255 8.061-78.421 26.258-112.33 61.14l3.289-.057a.501.501 0 01.018 1l-4.5.077a.499.499 0 01-.508-.491l-.077-4.499a.5.5 0 11.999-.017l.057 3.295c34.037-35.014 64.389-53.334 112.896-61.436l-2.675-1.926a.5.5 0 11.585-.812l3.651 2.63z" fill="#4A4A4A"/><path fill-rule="evenodd" clip-rule="evenodd" d="M420.389 261.78l-52.386-83.817 2.544-1.59 52.386 83.817 2.221-9.626a1.5 1.5 0 012.923.675l-3.035 13.154a1.5 1.5 0 01-1.799 1.124l-13.154-3.035a1.5 1.5 0 11.674-2.923l9.626 2.221z" fill="#fff"/><path fill-rule="evenodd" clip-rule="evenodd" d="M250.811 341.692l-54.086-22.407.765-1.848 54.086 22.407-2.52-6.085a1 1 0 111.848-.765l3.444 8.315a1 1 0 01-.542 1.307l-8.315 3.444a1 1 0 11-.765-1.848l6.085-2.52zm63.917-70.109l-49.631-65.654 1.595-1.206 49.631 65.654.907-6.523a1 1 0 011.981.275l-1.239 8.915a1 1 0 01-1.128.852l-8.914-1.238a1 1 0 01.275-1.981l6.523.906zm-13.086 86.087a1 1 0 011.372-.343l7.718 4.631a1 1 0 01-1.029 1.715l-5.648-3.389 13.494 53.975-1.94.485-13.494-53.975-3.388 5.648a1 1 0 01-1.715-1.029l4.63-7.718zm84.336-29.182a1 1 0 01.928-1.068l8.978-.629a1 1 0 11.14 1.995l-6.57.46 31.967 27.782-1.311 1.509-31.968-27.781.46 6.57a.999.999 0 11-1.995.14l-.629-8.978zm109.698-120.93l39.978-142.891 1.926.539-39.978 142.891 5.739-3.23a1 1 0 01.981 1.743l-7.843 4.414a1 1 0 01-1.362-.381l-4.414-7.843a1 1 0 011.743-.981l3.23 5.739z" fill="#4A4A4A"/><path d="M236.1 201.98v-13.96c2.08-.053 3.36-.08 3.84-.08 1.573 0 2.713.313 3.42.94.72.627 1.08 1.467 1.08 2.52 0 .84-.22 1.533-.66 2.08-.44.533-1.02.92-1.74 1.16v.04c.893.147 1.6.507 2.12 1.08.52.56.78 1.307.78 2.24 0 1.36-.467 2.38-1.4 3.06-.92.667-2.147 1-3.68 1a78.51 78.51 0 01-3.76-.08zm3.96-6.36h-2.26v4.76c.613.053 1.333.08 2.16.08 1.053 0 1.86-.213 2.42-.64.573-.44.86-1.08.86-1.92 0-.733-.28-1.293-.84-1.68-.547-.4-1.327-.6-2.34-.6zm-.16-6.08c-.4 0-1.1.02-2.1.06v4.52h2.24c.773 0 1.413-.207 1.92-.62.52-.413.78-.987.78-1.72 0-1.493-.947-2.24-2.84-2.24zm8.363 5.36l-.42-1.28c.88-.547 1.88-.82 3-.82 1.24 0 2.127.307 2.66.92.534.613.8 1.533.8 2.76V202h-1.52v-1.16c-.693.867-1.653 1.3-2.88 1.3-.826 0-1.493-.247-2-.74-.506-.507-.76-1.187-.76-2.04 0-.893.314-1.593.94-2.1.64-.507 1.46-.76 2.46-.76.96 0 1.707.193 2.24.58 0-.96-.133-1.673-.4-2.14-.266-.467-.813-.7-1.64-.7-.813 0-1.64.22-2.48.66zm2.2 5.8c.894 0 1.667-.387 2.32-1.16v-1.14c-.56-.4-1.233-.6-2.02-.6-.533 0-.986.127-1.36.38-.373.253-.56.62-.56 1.1 0 .44.14.787.42 1.04.294.253.694.38 1.2.38zM530.1 57V43h.24c.293 0 .86-.007 1.7-.02.853-.027 1.48-.04 1.88-.04 1.36 0 2.553.187 3.58.56 1.026.36 1.846.867 2.46 1.52a6.14 6.14 0 011.36 2.18c.306.8.46 1.673.46 2.62 0 2.093-.7 3.82-2.1 5.18-1.387 1.36-3.36 2.04-5.92 2.04-.294 0-.84-.007-1.64-.02-.787-.013-1.387-.02-1.8-.02h-.22zm3.78-12.46c-.254 0-.494.007-.72.02a14.9 14.9 0 00-.74.02c-.254.013-.46.02-.62.02v10.8c1.226.027 1.9.04 2.02.04 1.946 0 3.46-.513 4.54-1.54 1.08-1.04 1.62-2.4 1.62-4.08 0-1.573-.527-2.847-1.58-3.82-1.054-.973-2.56-1.46-4.52-1.46zm13.131 420.574l-1.359-.845 6.079-9.763 1.358.846-2.59 4.16 10.526 6.554-.898 1.443-10.526-6.554-2.59 4.159z" fill="#C6007F"/><path d="M559.736 451.11l5.604 8.178-.613.985-9.917-1.251.993-1.596 5.278.718c.591.085 1.291.223 2.1.412-.503-.58-.95-1.149-1.341-1.706l-3.002-4.297.898-1.443zm6.412 2.188l-9.847-6.131.846-1.358 9.236 5.751c.521.324.948.496 1.281.515.33.001.593-.157.79-.474.191-.306.278-.699.263-1.179l1.226.339c.082.726-.099 1.446-.543 2.159-.719 1.154-1.803 1.281-3.252.378zM164.3 318l6.02-14.08h1.46L177.8 318h-1.82l-1.8-4.24h-6.38l-1.78 4.24h-1.72zm6.7-11.82l-2.52 5.98h5.04l-2.52-5.98zm9.021 4.72l-.42-1.28c.88-.547 1.88-.82 3-.82 1.24 0 2.127.307 2.66.92.534.613.8 1.533.8 2.76V318h-1.52v-1.16c-.693.867-1.653 1.3-2.88 1.3-.826 0-1.493-.247-2-.74-.506-.507-.76-1.187-.76-2.04 0-.893.314-1.593.94-2.1.64-.507 1.46-.76 2.46-.76.96 0 1.707.193 2.24.58 0-.96-.133-1.673-.4-2.14-.266-.467-.813-.7-1.64-.7-.813 0-1.64.22-2.48.66zm2.2 5.8c.894 0 1.667-.387 2.32-1.16v-1.14c-.56-.4-1.233-.6-2.02-.6-.533 0-.986.127-1.36.38-.373.253-.56.62-.56 1.1 0 .44.14.787.42 1.04.294.253.694.38 1.2.38zM411.1 385.98v-13.96c2.08-.053 3.36-.08 3.84-.08 1.573 0 2.713.313 3.42.94.72.627 1.08 1.467 1.08 2.52 0 .84-.22 1.533-.66 2.08-.44.533-1.02.92-1.74 1.16v.04c.893.147 1.6.507 2.12 1.08.52.56.78 1.307.78 2.24 0 1.36-.467 2.38-1.4 3.06-.92.667-2.147 1-3.68 1a78.51 78.51 0 01-3.76-.08zm3.96-6.36h-2.26v4.76c.613.053 1.333.08 2.16.08 1.053 0 1.86-.213 2.42-.64.573-.44.86-1.08.86-1.92 0-.733-.28-1.293-.84-1.68-.547-.4-1.327-.6-2.34-.6zm-.16-6.08c-.4 0-1.1.02-2.1.06v4.52h2.24c.773 0 1.413-.207 1.92-.62.52-.413.78-.987.78-1.72 0-1.493-.947-2.24-2.84-2.24zm7.883 16.46v-13h1.6v1.06c.32-.373.754-.673 1.3-.9.56-.24 1.147-.36 1.76-.36 1.267 0 2.274.427 3.02 1.28.76.84 1.14 1.933 1.14 3.28 0 1.387-.433 2.54-1.3 3.46-.866.92-1.993 1.38-3.38 1.38-1.066 0-1.913-.207-2.54-.62V390h-1.6zm4.2-11.7c-1.066 0-1.933.413-2.6 1.24V384c.694.467 1.494.7 2.4.7.947 0 1.7-.307 2.26-.92.574-.613.86-1.4.86-2.36 0-.933-.26-1.687-.78-2.26-.52-.573-1.233-.86-2.14-.86zM300.439 602v-13h1.6v1.06c.32-.373.754-.673 1.3-.9.56-.24 1.147-.36 1.76-.36 1.267 0 2.274.427 3.02 1.28.76.84 1.14 1.933 1.14 3.28 0 1.387-.433 2.54-1.3 3.46-.866.92-1.993 1.38-3.38 1.38-1.066 0-1.913-.207-2.54-.62V602h-1.6zm4.2-11.7c-1.066 0-1.933.413-2.6 1.24V596c.694.467 1.494.7 2.4.7.947 0 1.7-.307 2.26-.92.574-.613.86-1.4.86-2.36 0-.933-.26-1.687-.78-2.26-.52-.573-1.233-.86-2.14-.86zm6.914 6.86V584h1.6v5.86c.333-.307.753-.56 1.26-.76.506-.2 1.02-.3 1.54-.3 1.32 0 2.36.42 3.12 1.26.773.84 1.16 1.94 1.16 3.3 0 1.48-.454 2.66-1.36 3.54-.907.867-2.12 1.3-3.64 1.3-1.494 0-2.72-.347-3.68-1.04zm4.04-6.86c-.494 0-.967.12-1.42.36-.44.227-.78.493-1.02.8v4.62c.613.413 1.333.62 2.16.62.933 0 1.7-.287 2.3-.86.613-.587.92-1.373.92-2.36 0-1-.274-1.78-.82-2.34-.534-.56-1.24-.84-2.12-.84zM117.94 166.2c-.986 0-1.853-.206-2.6-.62a3.86 3.86 0 01-1.64-1.78l.92-1.14a3.513 3.513 0 001.38 1.44c.587.334 1.214.5 1.88.5.854 0 1.527-.233 2.02-.7.494-.48.74-1.086.74-1.82 0-.746-.266-1.34-.8-1.78-.52-.44-1.206-.66-2.06-.66h-1.1v-1.6h1c.64 0 1.2-.226 1.68-.68.494-.466.74-1.046.74-1.74 0-.693-.206-1.233-.62-1.62-.4-.4-.953-.6-1.66-.6-1.253 0-2.213.58-2.88 1.74l-.9-1.1c.32-.706.82-1.253 1.5-1.64.694-.4 1.494-.6 2.4-.6 1.174 0 2.107.32 2.8.96.707.627 1.06 1.487 1.06 2.58 0 .774-.186 1.454-.56 2.04-.373.587-.913 1.027-1.62 1.32v.06c.84.134 1.5.52 1.98 1.16.494.627.74 1.367.74 2.22 0 1.227-.413 2.214-1.24 2.96-.826.734-1.88 1.1-3.16 1.1zm18.557-2.66l.76 1.16c-.373.48-.867.854-1.48 1.12a5.12 5.12 0 01-1.98.38c-1.44 0-2.607-.426-3.5-1.28-.88-.866-1.32-2.006-1.32-3.42 0-1.32.433-2.433 1.3-3.34.867-.906 1.953-1.36 3.26-1.36 1.573 0 2.753.394 3.54 1.18l-.74 1.26c-.68-.626-1.54-.94-2.58-.94-.84 0-1.567.307-2.18.92-.6.6-.9 1.36-.9 2.28 0 .96.307 1.734.92 2.32.627.587 1.4.88 2.32.88 1.04 0 1.9-.386 2.58-1.16zm2.846 2.46v-9h1.46l3.46 4.46 3.28-4.46h1.42v9h-1.6v-6.56l-3.12 4.18h-.06l-3.24-4.18V166h-1.6zM195.2 552.3c0-.707.254-1.293.76-1.76.52-.467 1.227-.793 2.12-.98-.146-.187-.22-.433-.22-.74s.08-.56.24-.76c-.64-.253-1.14-.64-1.5-1.16a3.235 3.235 0 01-.52-1.8c0-.933.334-1.713 1-2.34.68-.64 1.574-.96 2.68-.96.867 0 1.627.22 2.28.66l2.64-.64.04 1.3-1.7.42c.28.453.42.973.42 1.56 0 .92-.34 1.693-1.02 2.32-.68.613-1.566.92-2.66.92-.266 0-.466-.007-.6-.02-.066.133-.1.3-.1.5 0 .24.06.44.18.6h.26c.12-.013.214-.02.28-.02 1.374 0 2.48.247 3.32.74.84.493 1.26 1.213 1.26 2.16 0 .933-.42 1.64-1.26 2.12-.84.493-1.946.74-3.32.74-1.373 0-2.48-.24-3.32-.72-.84-.48-1.26-1.193-1.26-2.14zm2.32-1.18c-.546.293-.82.687-.82 1.18 0 .493.274.873.82 1.14.56.28 1.314.42 2.26.42.947 0 1.694-.133 2.24-.4.56-.267.84-.653.84-1.16 0-.493-.273-.887-.82-1.18-.546-.28-1.3-.42-2.26-.42-.96 0-1.713.14-2.26.42zm.06-6.02c0 .56.2 1.027.6 1.4.4.36.927.54 1.58.54.64 0 1.16-.18 1.56-.54.414-.36.62-.827.62-1.4s-.2-1.047-.6-1.42c-.4-.387-.926-.58-1.58-.58-.653 0-1.18.193-1.58.58-.4.373-.6.847-.6 1.42zm8.743 5.9v-14h1.6v6.04c.347-.347.78-.633 1.3-.86a4.148 4.148 0 011.64-.34c2.493 0 3.74 1.333 3.74 4V551h-1.6v-4.94c0-1.813-.84-2.72-2.52-2.72-.48 0-.953.107-1.42.32a3.335 3.335 0 00-1.14.82V551h-1.6zM304.3 437l6.02-14.08h1.46L317.8 437h-1.82l-1.8-4.24h-6.38l-1.78 4.24h-1.72zm6.7-11.82l-2.52 5.98h5.04l-2.52-5.98zm8.541 15.82v-13h1.6v1.06c.32-.373.754-.673 1.3-.9.56-.24 1.147-.36 1.76-.36 1.267 0 2.274.427 3.02 1.28.76.84 1.14 1.933 1.14 3.28 0 1.387-.433 2.54-1.3 3.46-.866.92-1.993 1.38-3.38 1.38-1.066 0-1.913-.207-2.54-.62V441h-1.6zm4.2-11.7c-1.066 0-1.933.413-2.6 1.24V435c.694.467 1.494.7 2.4.7.947 0 1.7-.307 2.26-.92.574-.613.86-1.4.86-2.36 0-.933-.26-1.687-.78-2.26-.52-.573-1.233-.86-2.14-.86z" fill="#C6007F"/><defs><filter id="filter0_i" x="133.279" y="95.718" width="398.229" height="363.449" filterUnits="userSpaceOnUse" color-interpolation-filters="sRGB"><feFlood flood-opacity="0" result="BackgroundImageFix"/><feBlend in="SourceGraphic" in2="BackgroundImageFix" result="shape"/><feColorMatrix in="SourceAlpha" values="0 0 0 0 0 0 0 0 0 0 0 0 0 0 0 0 0 0 127 0" result="hardAlpha"/><feOffset dy="10"/><feGaussianBlur stdDeviation="9"/><feComposite in2="hardAlpha" operator="arithmetic" k2="-1" k3="1"/><feColorMatrix values="0 0 0 0 0.279167 0 0 0 0 0.232639 0 0 0 0 0.261719 0 0 0 1 0"/><feBlend in2="shape" result="effect1_innerShadow"/></filter><filter id="filter1_i" x="7.443" y="5" width="560.02" height="515.003" filterUnits="userSpaceOnUse" color-interpolation-filters="sRGB"><feFlood flood-opacity="0" result="BackgroundImageFix"/><feBlend in="SourceGraphic" in2="BackgroundImageFix" result="shape"/><feColorMatrix in="SourceAlpha" values="0 0 0 0 0 0 0 0 0 0 0 0 0 0 0 0 0 0 127 0" result="hardAlpha"/><feOffset dy="20"/><feGaussianBlur stdDeviation="32.5"/><feComposite in2="hardAlpha" operator="arithmetic" k2="-1" k3="1"/><feColorMatrix values="0 0 0 0 1 0 0 0 0 1 0 0 0 0 1 0 0 0 0.8 0"/><feBlend in2="shape" result="effect1_innerShadow"/></filter><filter id="filter2_i" x="220.591" y="25.203" width="266.212" height="255.66" filterUnits="userSpaceOnUse" color-interpolation-filters="sRGB"><feFlood flood-opacity="0" result="BackgroundImageFix"/><feBlend in="SourceGraphic" in2="BackgroundImageFix" result="shape"/><feColorMatrix in="SourceAlpha" values="0 0 0 0 0 0 0 0 0 0 0 0 0 0 0 0 0 0 127 0" result="hardAlpha"/><feOffset dy="4"/><feGaussianBlur stdDeviation="15.5"/><feComposite in2="hardAlpha" operator="arithmetic" k2="-1" k3="1"/><feColorMatrix values="0 0 0 0 0.854167 0 0 0 0 0.854167 0 0 0 0 0.854167 0 0 0 0.4 0"/><feBlend in2="shape" result="effect1_innerShadow"/></filter><filter id="filter3_i" x="0" y="234.638" width="185.839" height="181.732" filterUnits="userSpaceOnUse" color-interpolation-filters="sRGB"><feFlood flood-opacity="0" result="BackgroundImageFix"/><feBlend in="SourceGraphic" in2="BackgroundImageFix" result="shape"/><feColorMatrix in="SourceAlpha" values="0 0 0 0 0 0 0 0 0 0 0 0 0 0 0 0 0 0 127 0" result="hardAlpha"/><feOffset dy="4"/><feGaussianBlur stdDeviation="17.5"/><feComposite in2="hardAlpha" operator="arithmetic" k2="-1" k3="1"/><feColorMatrix values="0 0 0 0 0.404167 0 0 0 0 0.389499 0 0 0 0 0.353646 0 0 0 1 0"/><feBlend in2="shape" result="effect1_innerShadow"/></filter><filter id="filter4_i" x="0" y="234.638" width="185.839" height="181.732" filterUnits="userSpaceOnUse" color-interpolation-filters="sRGB"><feFlood flood-opacity="0" result="BackgroundImageFix"/><feBlend in="SourceGraphic" in2="BackgroundImageFix" result="shape"/><feColorMatrix in="SourceAlpha" values="0 0 0 0 0 0 0 0 0 0 0 0 0 0 0 0 0 0 127 0" result="hardAlpha"/><feOffset dy="4"/><feGaussianBlur stdDeviation="17.5"/><feComposite in2="hardAlpha" operator="arithmetic" k2="-1" k3="1"/><feColorMatrix values="0 0 0 0 0.404167 0 0 0 0 0.389499 0 0 0 0 0.353646 0 0 0 1 0"/><feBlend in2="shape" result="effect1_innerShadow"/></filter><linearGradient id="paint0_linear" x1="214.405" y1="449.58" x2="343.53" y2="157.539" gradientUnits="userSpaceOnUse"><stop stop-color="#8F7E7F"/><stop offset="1" stop-color="#5D585E"/></linearGradient><linearGradient id="paint1_linear" x1="214.405" y1="449.58" x2="343.53" y2="157.539" gradientUnits="userSpaceOnUse"><stop stop-color="#8F7E7F"/><stop offset="1" stop-color="#5D585E"/></linearGradient><linearGradient id="paint2_linear" x1="214.405" y1="449.58" x2="343.53" y2="157.539" gradientUnits="userSpaceOnUse"><stop stop-color="#8F7E7F"/><stop offset="1" stop-color="#5D585E"/></linearGradient></defs></svg>