<svg width="51" height="51" fill="rgb(73, 116, 33);" xmlns="http://www.w3.org/2000/svg"><path fill-rule="evenodd" clip-rule="evenodd" d="M18 23a3 3 0 100-6 3 3 0 000 6zm0 2a5 5 0 100-10 5 5 0 000 10zm-2.744 13.332a1 1 0 011.412-.076C18.415 39.825 21.867 41 26 41c4.133 0 7.586-1.175 9.332-2.744a1 1 0 011.336 1.488C34.422 41.762 30.413 43 26 43c-4.413 0-8.422-1.238-10.668-3.256a1 1 0 01-.076-1.412zM34 23a3 3 0 100-6 3 3 0 000 6zm0 2a5 5 0 100-10 5 5 0 000 10z"/><path fill-rule="evenodd" clip-rule="evenodd" d="M25.5 49C38.479 49 49 38.479 49 25.5S38.479 2 25.5 2 2 12.521 2 25.5 12.521 49 25.5 49zm0 2C39.583 51 51 39.583 51 25.5S39.583 0 25.5 0 0 11.417 0 25.5 11.417 51 25.5 51z"/><path d="M35 20a1 1 0 11-2 0 1 1 0 012 0z"/><path fill-rule="evenodd" clip-rule="evenodd" d="M34 19.5a.5.5 0 100 1 .5.5 0 000-1zm-1.5.5a1.5 1.5 0 113 0 1.5 1.5 0 01-3 0z"/><path d="M19 20a1 1 0 11-2 0 1 1 0 012 0z"/><path fill-rule="evenodd" clip-rule="evenodd" d="M18 19.5a.5.5 0 100 1 .5.5 0 000-1zm-1.5.5a1.5 1.5 0 113 0 1.5 1.5 0 01-3 0zm4.668 7.634a1 1 0 011.367.365A3.998 3.998 0 0026 30c1.48 0 2.772-.802 3.465-2a1 1 0 111.732 1A5.998 5.998 0 0126 32a5.998 5.998 0 01-5.197-3 1 1 0 01.365-1.366zM20.2 12.557a1 1 0 01-1.387.273c-.59-.396-1.8-.652-3.274-.41-1.476.241-2.539.87-2.972 1.433a1 1 0 01-1.586-1.218c.85-1.107 2.464-1.9 4.234-2.19 1.771-.29 3.553-.053 4.712.725a1 1 0 01.273 1.387zm11.001.062a1 1 0 001.405.167c.558-.44 1.744-.787 3.233-.658 1.49.129 2.597.675 3.072 1.204a1 1 0 001.49-1.335c-.933-1.04-2.602-1.707-4.39-1.862-1.787-.155-3.546.216-4.642 1.08a1 1 0 00-.168 1.404z"/></svg>