<svg width="51" height="51" fill="rgb(73, 116, 33);" xmlns="http://www.w3.org/2000/svg"><path fill-rule="evenodd" clip-rule="evenodd" d="M17.096 42.335a1 1 0 001.386-.284A8.991 8.991 0 0126 38a8.991 8.991 0 017.518 4.05 1 1 0 101.67-1.1A10.991 10.991 0 0026 36c-3.841 0-7.222 1.97-9.188 4.95a1 1 0 00.284 1.385z"/><path fill-rule="evenodd" clip-rule="evenodd" d="M25.5 49C38.479 49 49 38.479 49 25.5S38.479 2 25.5 2 2 12.521 2 25.5 12.521 49 25.5 49zm0 2C39.583 51 51 39.583 51 25.5S39.583 0 25.5 0 0 11.417 0 25.5 11.417 51 25.5 51z"/><path fill-rule="evenodd" clip-rule="evenodd" d="M34.33 22.598a3 3 0 113-5.196 3 3 0 01-3 5.196zm-1 1.732a5 5 0 115-8.66 5 5 0 01-5 8.66z"/><path fill-rule="evenodd" clip-rule="evenodd" d="M37.33 17.402a2.992 2.992 0 011.437 1.984l-3.873-2.236a2.993 2.993 0 012.436.252zm-4.47-1.426a5.001 5.001 0 017.3 6.524l-8.66-5a4.982 4.982 0 011.36-1.524z"/><path d="M34.83 21a1 1 0 102 0 1 1 0 00-2 0z"/><path fill-rule="evenodd" clip-rule="evenodd" d="M35.83 20.5a.5.5 0 110 1 .5.5 0 010-1zm1.5.5a1.5 1.5 0 10-3 0 1.5 1.5 0 003 0zm6.295-4.203a1 1 0 00-1.211-.73c-.807.2-2.185-.006-3.621-.836-1.437-.83-2.305-1.919-2.535-2.718a1 1 0 10-1.922.554c.422 1.463 1.75 2.91 3.457 3.896 1.707.986 3.624 1.412 5.102 1.046a1 1 0 00.73-1.212zM21.168 27.634a1 1 0 011.367.365A3.998 3.998 0 0026 30c1.48 0 2.772-.802 3.465-2a1 1 0 111.732 1A5.998 5.998 0 0126 32a5.998 5.998 0 01-5.197-3 1 1 0 01.365-1.366zm-3.838-5.036a3 3 0 10-3-5.196 3 3 0 003 5.196zm1 1.732a5 5 0 10-5-8.66 5 5 0 005 8.66z"/><path fill-rule="evenodd" clip-rule="evenodd" d="M14.33 17.402a2.993 2.993 0 00-1.436 1.984l3.873-2.236a2.993 2.993 0 00-2.437.252zm4.47-1.426a5.001 5.001 0 00-7.3 6.524l8.66-5a4.984 4.984 0 00-1.36-1.524z"/><path d="M16.83 21a1 1 0 11-2 0 1 1 0 012 0z"/><path fill-rule="evenodd" clip-rule="evenodd" d="M15.83 20.5a.5.5 0 100 1 .5.5 0 000-1zm-1.5.5a1.5 1.5 0 113 0 1.5 1.5 0 01-3 0zm-6.295-4.203a1 1 0 011.212-.73c.806.2 2.184-.006 3.62-.836 1.437-.83 2.305-1.919 2.535-2.718a1 1 0 011.922.554c-.422 1.463-1.75 2.91-3.456 3.896-1.707.986-3.625 1.412-5.103 1.046a1 1 0 01-.73-1.212zM16 32.5a.5.5 0 00.5-.5c0-.29-.155-1.086-.469-1.834-.01-.024-.02-.049-.031-.072l-.031.072c-.314.748-.469 1.545-.469 1.834a.5.5 0 00.5.5zm.434-3.134l-.016.015a.077.077 0 01.016-.015zm-.868 0c0-.001.005.003.016.015a.088.088 0 01-.016-.015zM16 34a2 2 0 002-2c0-1.105-.895-4-2-4s-2 2.895-2 4a2 2 0 002 2zm20-1.5a.5.5 0 00.5-.5c0-.29-.155-1.086-.469-1.834-.01-.024-.02-.049-.031-.072l-.031.072c-.314.748-.469 1.545-.469 1.834a.5.5 0 00.5.5zm.434-3.134l-.016.015a.077.077 0 01.016-.015zm-.868 0c0-.001.005.003.016.015a.088.088 0 01-.016-.015zM36 34a2 2 0 002-2c0-1.105-.895-4-2-4s-2 2.895-2 4a2 2 0 002 2z"/></svg>